<svg xmlns="http://www.w3.org/2000/svg" xmlns:xlink="http://www.w3.org/1999/xlink" viewBox="0 0 1895.81 1759.35"><defs><style>.cls-1{opacity:0.25;fill:url(#Degradado_sin_nombre_3);}.cls-2{fill:#ebfbff;}.cls-3{fill:#cff4ff;}.cls-15,.cls-4{fill:#666;}.cls-4{opacity:0.24;}.cls-5{fill:#876643;}.cls-6{fill:#825d38;}.cls-7{fill:#a57c52;}.cls-8{fill:#785a3b;}.cls-9{fill:#f9e8d8;}.cls-10{fill:#e6d6c7;}.cls-11{fill:#1f1f1f;}.cls-12{fill:#2b84ed;}.cls-13{fill:#4a4a4a;}.cls-14{fill:#d9d9d9;}.cls-16{fill:#2e2619;}.cls-17{fill:#242424;}.cls-18{fill:#e6d7c8;}.cls-19{fill:#262626;}.cls-20{fill:#1c1c1c;}.cls-21{fill:#363636;}.cls-22{fill:#e8e8e8;}.cls-23{fill:#d46a40;}.cls-24{fill:#de341b;}.cls-25,.cls-32{fill:none;stroke-miterlimit:10;}.cls-25{stroke:#c1272d;}.cls-26{fill:#946f49;}.cls-27{fill:#6b5035;}.cls-28{fill:#f2f2f2;}.cls-29{fill:#fff;}.cls-30{fill:#e6e6e6;}.cls-31{fill:#2b2b2b;}.cls-32{stroke:#383838;stroke-width:2px;}.cls-33{fill:#fafafa;}.cls-34{fill:#f5f5f5;}.cls-35{fill:#533724;}.cls-36{fill:#dbccbe;}.cls-37{fill:#402a1c;}.cls-38{fill:#534741;}.cls-39{fill:#403732;}.cls-40{fill:#423934;}.cls-41{fill:#332c28;}</style><linearGradient id="Degradado_sin_nombre_3" x1="1532.86" y1="988.19" x2="417.27" y2="-52.2" gradientUnits="userSpaceOnUse"><stop offset="0" stop-color="#00b8d9"/><stop offset="1" stop-color="#fdff15"/></linearGradient></defs><g id="Capa_2" data-name="Capa 2"><g id="Gaston"><g id="Gorra"><polygon class="cls-1" points="1895.81 186.56 1305.29 0 739.74 0 739.74 36 250.45 0 1.98 225.81 0 698.76 1239.03 1426.42 1373.56 865.12 1748.32 1154.69 1895.81 186.56"/><path class="cls-2" d="M249.87,476.65,3.68,700.39A2.2,2.2,0,0,1,0,698.76V230.29a6.07,6.07,0,0,1,2-4.48L250.45,0V475.35A1.74,1.74,0,0,1,249.87,476.65Z"/><path class="cls-3" d="M239.22,10.21v463a4.54,4.54,0,0,1-1.48,3.35L0,692.64v6.59a2,2,0,0,0,3.34,1.48L248.92,477.52a4.68,4.68,0,0,0,1.53-3.47V0Z"/><path class="cls-2" d="M739.74,0h565.55a0,0,0,0,1,0,0V452.9a0,0,0,0,1,0,0H741.65a1.9,1.9,0,0,1-1.9-1.9V0A0,0,0,0,1,739.74,0Z"/><path class="cls-3" d="M745.55,438.13V0h-5.81V450.9a2,2,0,0,0,2,2h563.55V440.13H747.55A2,2,0,0,1,745.55,438.13Z"/><polygon class="cls-4" points="1822.07 988.26 868.26 671.61 296.9 625.16 53.81 1126.84 874.45 1759.36 1822.07 988.26"/><polygon class="cls-5" points="877.03 468.43 828 580.43 828 790.5 877.03 678.5 877.03 468.43"/><polygon class="cls-6" points="828 580.37 872.9 477.8 872.9 468.37 823.87 580.37 823.87 790.43 828 790.5 828 580.37"/><polygon class="cls-5" points="732.52 468.43 683.48 580.43 683.48 790.5 732.52 678.5 732.52 468.43"/><polygon class="cls-6" points="683.48 580.37 728.39 477.8 728.39 468.37 679.36 580.37 679.36 790.43 683.48 790.5 683.48 580.37"/><path class="cls-7" d="M824.15,584.86H682.72c-9.52,0-16.3-8.91-12.77-16.77l45.22-100.91a12.48,12.48,0,0,1,11.59-7H868.19c9.52,0,16.3,8.91,12.77,16.78l-45.22,100.9A12.46,12.46,0,0,1,824.15,584.86Z"/><path class="cls-6" d="M881.5,469.73A10.6,10.6,0,0,1,881,477l-45.23,100.9a12.45,12.45,0,0,1-11.58,7H682.7a14.06,14.06,0,0,1-11.39-5.62c1.44,5.25,6.72,9.53,13.31,9.53H826.06a12.46,12.46,0,0,0,11.58-7l45.23-100.91A11,11,0,0,0,881.5,469.73Z"/><polygon class="cls-8" points="618.97 781.55 282.97 732 378.97 495.1 653.03 537.38 618.97 781.55"/><circle class="cls-9" cx="542.05" cy="603.24" r="30.46"/><path class="cls-10" d="M543.13,572.8A30.45,30.45,0,0,0,533,574.16a32.12,32.12,0,0,1,4.72-.2,30.46,30.46,0,0,1,8,59.52,30.46,30.46,0,0,0-2.56-60.68Z"/><circle class="cls-9" cx="518.52" cy="622.75" r="11.09"/><path class="cls-10" d="M518.52,611.66a11,11,0,0,0-4.41.92,10.64,10.64,0,0,1,1.7-.15,11.09,11.09,0,0,1,4.42,21.27,11.09,11.09,0,0,0-1.71-22Z"/><path class="cls-11" d="M593.31,700.44l-48.42-46.79a12.81,12.81,0,0,1,.38-18.76l28.81-25.69a12.8,12.8,0,0,1,17.92.86l54,58.38Z"/><circle class="cls-9" cx="454.49" cy="680.86" r="10.69"/><path class="cls-10" d="M456.65,670.38a10.69,10.69,0,0,1-6.42,19.24,11,11,0,0,1-2.16-.22,10.69,10.69,0,1,0,8.58-19Z"/><circle class="cls-9" cx="430.85" cy="706.46" r="37.29"/><path class="cls-10" d="M441.16,670.63a37.29,37.29,0,0,1-29.51,67.8,37.29,37.29,0,1,0,29.51-67.8Z"/><rect class="cls-12" x="424.81" y="722.31" width="59.35" height="11.87" rx="5.94" transform="translate(-399.44 640.52) rotate(-52.17)"/><rect class="cls-12" x="525.98" y="612.21" width="59.35" height="11.87" rx="5.94" transform="translate(-271.13 532.81) rotate(-42.15)"/><rect class="cls-13" x="541.44" y="941.14" width="28.39" height="107.17" rx="14.19"/><path class="cls-14" d="M580.39,956.11l-78.88,1.83c-33.79.79-44.49-15.57-23.91-36.53h0c20.58-21,64.66-38.6,98.45-39.38l78.87-1.84c33.79-.78,44.5,15.58,23.92,36.54h0C658.25,937.69,614.18,955.33,580.39,956.11Z"/><path class="cls-15" d="M678.82,916.84h0c-20.58,21-64.66,38.59-98.45,39.38l-78.87,1.83c-17.06.4-33.9-3.88-34.37-17.16,0,20.45,7.21,32.32,34.37,31.69l78.87-1.84c33.79-.78,77.87-18.41,98.45-39.38h0C689,921,690.08,909.46,689.3,898.28,688.48,906,682.86,912.73,678.82,916.84Z"/><path class="cls-13" d="M555.63,1033.34c-64.57,0-116.9,28.66-116.9,64h20.9c0-26.37,42.4-47.75,94.71-47.75s94.71,21.38,94.71,47.75h23.48C672.53,1062,620.19,1033.34,555.63,1033.34Z"/><path class="cls-13" d="M448.1,1094.72c-15.54,0-28.51,6-31.54,14a2.66,2.66,0,0,0,2.5,3.58h.33a2.72,2.72,0,0,0,2.57-2c1.91-6.31,12.73-11.14,25.78-11.14s23.88,4.83,25.79,11.14a2.72,2.72,0,0,0,2.57,2h1a2.65,2.65,0,0,0,2.49-3.58C476.61,1100.75,463.64,1094.72,448.1,1094.72Z"/><path class="cls-13" d="M660.51,1094.72c-15.55,0-28.52,6-31.54,14a2.66,2.66,0,0,0,2.49,3.58h.33a2.71,2.71,0,0,0,2.57-2c1.92-6.31,12.73-11.14,25.79-11.14s23.87,4.83,25.79,11.14a2.71,2.71,0,0,0,2.57,2h1a2.66,2.66,0,0,0,2.49-3.58C689,1100.75,676.05,1094.72,660.51,1094.72Z"/><path class="cls-13" d="M555.63,1093.64c-15.54,0-28.51,6-31.54,14a2.66,2.66,0,0,0,2.5,3.58h.33a2.72,2.72,0,0,0,2.57-2c1.91-6.31,12.73-11.15,25.78-11.15s23.88,4.84,25.79,11.15a2.71,2.71,0,0,0,2.57,2h1a2.65,2.65,0,0,0,2.49-3.58C584.14,1099.67,571.17,1093.64,555.63,1093.64Z"/><rect class="cls-13" x="545.44" y="1046.5" width="20.39" height="48.22" rx="3.81"/><path class="cls-16" d="M710.88,858.8A54.91,54.91,0,0,0,631.19,814a60.28,60.28,0,0,0-26.25-6h0s-137.4-18-185.16.91a38.83,38.83,0,0,0,3.27,76.6c23.58,15.91,74.35,37.9,178.15,43.14h0c1.24.08,2.48.13,3.74.13a60.05,60.05,0,0,0,25.46-5.63,53.66,53.66,0,0,1,24.11-5.34c.53,0,1.07,0,1.6,0A54.92,54.92,0,0,0,710.88,858.8Z"/><path class="cls-17" d="M707.89,633.86s57.29-3.1,48,78.45-17,123.36-17,123.36-4.12,15-33.54,25.29-85.17,32-128.52,0S583.5,743.8,583.5,743.8l-4.13-50.59s-2.58-25.8,55.23-42.32S707.89,633.86,707.89,633.86Z"/><circle id="Cabeza" class="cls-9" cx="644.01" cy="581.5" r="65.81"/><path class="cls-18" d="M644,515.69a65.66,65.66,0,0,0-49.72,22.73,65.78,65.78,0,0,1,23.38,103.39A65.81,65.81,0,1,0,644,515.69Z"/><path class="cls-19" d="M594.85,677.73l-11.39,3.13s6.75-45.45,69.2-59.9c28.9-19.62,62.38-26.58,79,4.64,8.9,4.68,23.31,27.63,2.79,51.12a10,10,0,0,1-13.16,1.61C701.26,664.73,640.83,655,594.85,677.73Z"/><path class="cls-20" d="M586.13,671.83a46.09,46.09,0,0,0-2.67,9l11.39-3.13c37-18.34,83.48-15.56,110.58-6.68C682.47,659.19,628.69,652.12,586.13,671.83Z"/><path class="cls-20" d="M731.63,625.6c-6.37-12-15.23-18.33-25.36-20.5,5.39,3.45,10.16,8.61,14,15.86,8.9,4.68,23.32,27.63,2.8,51.12a9.88,9.88,0,0,1-6.85,3.33,45.42,45.42,0,0,1,5,2.92,10,10,0,0,0,13.16-1.61C754.94,653.23,740.53,630.28,731.63,625.6Z"/><path class="cls-15" d="M708.19,835.64C680,855.9,670.69,859.7,661.7,863.09c-16.84,6.48-29.62,2-29.62-22.21v-.77c0-24,13-53.4,29.2-66.47,14.22-10.7,17.25-4.32,46.91-27.8,26.1-18.68,32.16-31.71,41.92-39,16.16-11.21,29.06-1.37,29.06,22.6v.77c0,14-8.9,41.39-25.73,62.51C741.31,809.2,723.92,823.21,708.19,835.64Z"/><path class="cls-14" d="M687.21,817.2V805.3a8.49,8.49,0,0,1,4.33-6.82c4.71-2.09,13.4-6.46,26.7-15A276.7,276.7,0,0,0,745,763.18a3.9,3.9,0,0,1,2.53-1.12c-.55-1.49-2.25-1.6-4.08,0a276.49,276.49,0,0,1-26.77,20.28c-13.3,8.56-22,12.93-26.7,15a8.46,8.46,0,0,0-4.33,6.82v11.9c0,1.44.68,2.28,1.74,2.31A3.35,3.35,0,0,1,687.21,817.2Z"/><path class="cls-13" d="M744.89,763.23a276.33,276.33,0,0,1-26.76,20.27c-13.31,8.57-22,12.94-26.7,15a8.48,8.48,0,0,0-4.33,6.82v11.9c0,1.89,1.16,2.76,2.82,2.1,3.35-1.34,9.82-4.32,20.1-10.61C715.19,832,724.31,898,670,927.41c-10.45,0-19,19-19,19l7.75,2.71s86.67.75,75.7-156.4a4.41,4.41,0,0,0-.11-.65c5.34-4.12,9.42-7.6,11.94-9.83a8.71,8.71,0,0,0,2.9-5.88V764.41C749.16,761.89,747.12,761.32,744.89,763.23Z"/><path class="cls-21" d="M730.45,795.29C740,931.71,674.86,946.54,657.8,948.76l.93.33s86.67.75,75.7-156.4a4.41,4.41,0,0,0-.11-.65c5.34-4.12,9.42-7.6,11.94-9.83C748,780.71,730.44,795.06,730.45,795.29Z"/><path class="cls-19" d="M529.82,818.12s30.45-135.23,70.71-134.2,65,35.62,37.68,93.94S583.5,881.6,565.44,885.21s-43.88-27.87-43.88-27.87L445.34,760.6a8,8,0,0,1-.11-9.68l28.68-38.21a7.94,7.94,0,0,1,11.8-1L550,772.18"/><path class="cls-21" d="M446.26,753.37l28.68-38.21a7.94,7.94,0,0,1,11.8-1l58.63,55.21c12.72-38.16,32.8-83.57,56.19-83,20.56.52,37.07,9.8,44.67,26.5-7.06-18.25-24.16-28.4-45.7-29-23.39-.6-43.48,44.82-56.2,83l-58.62-55.2a7.94,7.94,0,0,0-11.8,1l-28.68,38.21a7.93,7.93,0,0,0-.33,9A7.92,7.92,0,0,1,446.26,753.37Z"/><path class="cls-20" d="M644.46,708.89c2.12,14.48-.92,32.59-10.9,53.87-27.35,58.33-54.71,103.74-72.77,107.36s-43.87-27.87-43.87-27.87l-71.81-91.14a7.94,7.94,0,0,0,.23,9.49l76.22,96.74s25.81,31.49,43.88,27.87,45.41-49,72.77-107.35C652,748.38,652.54,725,644.46,708.89Z"/><circle class="cls-22" cx="448.1" cy="1123.2" r="19.66"/><circle class="cls-22" cx="555.63" cy="1122.12" r="19.66"/><circle class="cls-22" cx="660.51" cy="1122.12" r="19.66"/><path class="cls-14" d="M632.08,841.19v-.78c0-24,13-53.39,29.21-66.46,14.22-10.71,17.25-4.33,46.91-27.81,26.1-18.67,32.16-31.71,41.91-39,5.54-3.84,10.94-6.4,18.26-3.63-5.29-6.47-16.81-7.88-26.27-1.33-9.75,7.34-15.82,20.37-41.91,39.05-29.66,23.48-32.69,17.1-46.91,27.8-16.23,13.07-29.21,42.43-29.21,66.47v.77c0,15.28,7.6,24.85,15.56,26.63C634.34,859.41,632.08,850.37,632.08,841.19Z"/><path class="cls-23" d="M396.31,999.84s-17.31-5.9-28.49-9.69a42.7,42.7,0,0,1-13.92-8.06A31.77,31.77,0,1,0,323,1036.34l18.75,6.4,35.69,12.2a29.12,29.12,0,0,0,37-18.13h0A29.12,29.12,0,0,0,396.31,999.84Z"/><path class="cls-24" d="M378.68,1052.46,343,1040.26l-18.75-6.41a31.76,31.76,0,0,1-20.1-39.32q-.3.62-.57,1.26a31.76,31.76,0,0,0,19,42.45l18.75,6.41,35.69,12.2a29.12,29.12,0,0,0,37-18.14h0q.19-.57.36-1.14A29.12,29.12,0,0,1,378.68,1052.46Z"/><line class="cls-25" x1="335.5" y1="994.76" x2="342.47" y2="1007.17"/><line class="cls-25" x1="333.56" y1="1007.17" x2="344.4" y2="997.47"/><line class="cls-25" x1="349.3" y1="997.47" x2="355.06" y2="1007.17"/><line class="cls-25" x1="347.7" y1="1007.17" x2="356.66" y2="999.59"/><line class="cls-25" x1="362.31" y1="999.59" x2="366.81" y2="1007.17"/><line class="cls-25" x1="361.06" y1="1007.17" x2="368.06" y2="1001.25"/><path class="cls-16" d="M391.64,832.23S353.31,971.92,356.4,980.44s5.42,31.74,55,31.74c32.52-21.68,55.74-97.2,65-126.4"/><polygon class="cls-6" points="371.23 1282.19 364.26 1287.67 63.1 1138.69 63.1 790.5 371.23 943.01 371.23 1282.19"/><polygon class="cls-26" points="364.26 1287.67 56.13 1135.15 56.13 786.95 364.26 939.47 364.26 1287.67"/><polygon class="cls-7" points="322.82 694.26 352.96 694.26 467.13 578.13 417.87 578.13 315.1 691.51 322.82 694.26"/><polygon class="cls-27" points="467.13 578.13 352.96 694.26 322.82 694.4 318.88 693 316.96 695.12 324.56 697.34 353.25 697.87 467.13 582.16 467.13 578.13"/><path class="cls-7" d="M43.88,766.58l317-303.33a28,28,0,0,1,20-7.78l303.93,6.28a14.06,14.06,0,0,1,12.53,19.82l-37.76,84A26.15,26.15,0,0,1,625.69,579l-43.15-18a163.78,163.78,0,0,0-178.12,34.7l-40.2,39.74c-44.52,44-38.3,117.61,13,153.54l42.65,29.88A58.75,58.75,0,0,1,430.92,905l-43,50.63a37.65,37.65,0,0,1-46.68,8.71L49.1,805.63A24.39,24.39,0,0,1,43.88,766.58Z"/><path class="cls-6" d="M430.91,905.15l-43,50.64a37.65,37.65,0,0,1-46.67,8.71L49.1,805.76A24.23,24.23,0,0,1,36.5,787a24.36,24.36,0,0,0,12.6,24.14L341.25,969.82a37.65,37.65,0,0,0,46.67-8.71l43-50.63a58.49,58.49,0,0,0,13.9-40.65A58.42,58.42,0,0,1,430.91,905.15Z"/><path class="cls-6" d="M697.35,481.71l-37.77,84a26.13,26.13,0,0,1-33.89,13.41l-43.15-18a163.76,163.76,0,0,0-178.12,34.71l-40.2,39.74a99.75,99.75,0,0,0-29.76,73.93,99.69,99.69,0,0,1,29.76-68.61l40.2-39.74a163.78,163.78,0,0,1,178.12-34.71l43.15,18A26.13,26.13,0,0,0,659.58,571l37.77-84a14,14,0,0,0,1-8.44A14.66,14.66,0,0,1,697.35,481.71Z"/><rect class="cls-28" x="81.68" y="667" width="179.61" height="45.2"/><polygon class="cls-29" points="241.92 509.03 409.27 509.03 261.06 667.61 81.45 667.61 241.92 509.03"/><polygon class="cls-30" points="409.09 553.37 261.29 712.2 261.06 667.61 408.86 508.77 409.09 553.37"/><path class="cls-13" d="M618.7,506.32l-68.42-7a7.32,7.32,0,0,0-6.46,2.71l-15.51,19.39a7.32,7.32,0,0,0,5,11.85l75.35,7.58a7.31,7.31,0,0,0,7.45-4.39l8.58-19.93A7.31,7.31,0,0,0,618.7,506.32Z"/><path class="cls-31" d="M624.78,510.83a7.22,7.22,0,0,1,0,5.64l-8.58,19.94a7.33,7.33,0,0,1-7.45,4.39l-75.35-7.58a7.19,7.19,0,0,1-5.23-3.06,7.24,7.24,0,0,0,6,4.55l75.36,7.58A7.32,7.32,0,0,0,617,537.9L625.55,518A7.29,7.29,0,0,0,624.78,510.83Z"/><path class="cls-32" d="M554.13,515l-23.58-13a25.11,25.11,0,0,0-14.95-3l-34.93,3.9a25.12,25.12,0,0,1-17.41-4.53l-16.75-12a25.14,25.14,0,0,0-17.6-4.51l-16.66,2a25.1,25.1,0,0,1-17-4.11h0a25.16,25.16,0,0,0-24.69-1.93l-20.79,9.71a24.46,24.46,0,0,1-2.37,1l-14.08,4.9"/><path class="cls-31" d="M604.44,520.83c-1.41,10.09-13.59,4.29-29.31,2.09s-29,0-27.62-10,15.3-16.49,31-14.3S605.85,510.73,604.44,520.83Z"/><ellipse class="cls-15" cx="253.8" cy="567.35" rx="58.32" ry="24.13" transform="translate(-326.84 345.64) rotate(-45)"/><path class="cls-15" d="M270.86,584.89c-22.78,22.78-48.88,33.61-58.31,24.18a12.56,12.56,0,0,1-3.36-8.39c-.2,4.49.86,8.19,3.36,10.7,9.43,9.42,35.53-1.41,58.31-24.18,17.78-17.79,28.28-37.6,27.54-49.92C297.84,549.67,287.57,568.18,270.86,584.89Z"/><rect class="cls-13" x="243.49" y="520.2" width="14.19" height="53.42" rx="7.1"/><path class="cls-33" d="M371,251.23s-35.88,22.24-106.91,79.12c-77.28,61.89-127.4,109.78-127.4,109.78V667s55.25-60.61,127.4-129.64c66.89-64,106.91-95.78,106.91-95.78Z"/><path class="cls-15" d="M136.65,440.13s50.12-47.89,127.4-109.78c53.67-43,93.69-70.35,106.91-79.12h-6.44s-35.88,22.24-106.9,79.12c-77.28,61.89-127.41,109.78-127.41,109.78V667h6.44Z"/><path class="cls-15" d="M385.24,251.7s60.65-6.45,163.13-6.45c94.25,0,152.36,5.38,163.11,6.46l-1.89-2.37s-57.84-6.45-163.12-6.45c-102.48,0-163.13,6.45-163.13,6.45V438.42a11.88,11.88,0,0,0,1.89,2.37Z"/><path class="cls-34" d="M711.48,251.71s-57.84-6.45-163.12-6.45c-102.48,0-163.13,6.45-163.13,6.45V440.79s67.1-6.45,163.13-6.45c98.83,0,163.12,6.45,163.12,6.45Z"/><rect class="cls-13" x="540.35" y="421.94" width="16.01" height="44.13"/><rect class="cls-15" x="505.19" y="461.42" width="86.32" height="4.65"/><polygon class="cls-15" points="505.19 466.06 505.19 461.42 504.25 462.7 504.25 467.35 590.57 467.35 591.52 466.06 505.19 466.06"/><path class="cls-35" d="M626,597.21s3.87,5.42,3.48,11.42,8.15.83,8.15.83-3.7-16.89-2-19.21-21.87,3.09-21.87,3.09l2.13,3.87Z"/><circle class="cls-9" cx="647.09" cy="601.68" r="12.23"/><circle class="cls-36" cx="646.5" cy="601.68" r="5.81"/><path class="cls-35" d="M658.34,588.31c0,1,3.29,24.58-1,32.71s59.81-12.39,59.81-12.39.38-25.16-4.45-30.58S658.34,588.31,658.34,588.31Z"/><path class="cls-37" d="M712.73,578.05c-4.84-5.42-54.39,10.26-54.39,10.26s0,.48.1,1.06c12.51-3.75,45.72-13.19,49.64-8.8,4.24,4.75,4.47,24.69,4.46,29.52l4.64-1.46S717.56,583.47,712.73,578.05Z"/><path class="cls-29" d="M582.08,579.8s-11.23-12.47,6.19-64.11c2.33-8.28,22.07-7.51,22.07-7.51a33.6,33.6,0,0,1,28.26-8.13c9.67-7,30.19-9.21,36.38-.54,15.87-.23,19.75,4.8,23.62,11.38s21.81,34.61,7,55.74S582.08,579.8,582.08,579.8Z"/><path class="cls-38" d="M580.57,579.44s-11.23-12.46,6.19-64.1c2.32-8.28,22.06-7.51,22.06-7.51a33.58,33.58,0,0,1,28.26-8.13c9.68-7,30.2-9.21,36.39-.54,15.87-.23,19.74,4.8,23.61,11.38s21.82,34.61,7,55.74S580.57,579.44,580.57,579.44Z"/><path class="cls-39" d="M670.12,498.19c1.46,0,2.83,0,4.1.07-2.4-2.57-6.24-4-10.63-4.48A12.69,12.69,0,0,1,670.12,498.19Z"/><path class="cls-39" d="M698.63,510.6c-3.18-5.4-6.36-9.75-16.18-11,6.12,1.91,8.7,5.6,11.28,10,3.87,6.58,21.81,34.61,7,55.74C687.64,583.9,602,580,581.6,578.76a5.05,5.05,0,0,0,.52.75s108.63,8,123.48-13.16S702.5,517.19,698.63,510.6Z"/><path class="cls-40" d="M592.56,561.17H697.88a16.36,16.36,0,0,1,16.36,16.36V584a8.53,8.53,0,0,1-8.53,8.53H583.25a8.53,8.53,0,0,1-8.53-8.53v-5A17.84,17.84,0,0,1,592.56,561.17Z" transform="translate(-56.64 70.35) rotate(-5.99)"/><path class="cls-41" d="M714.61,576.69l-.67-6.43a16.37,16.37,0,0,0-13.49-14.41,16.33,16.33,0,0,1,7.49,12.09l.67,6.42a8.54,8.54,0,0,1-7.59,9.38l-121.8,12.77-.74,0a8.53,8.53,0,0,0,6.74,2.28L707,586.06A8.53,8.53,0,0,0,714.61,576.69Z"/></g></g></g></svg>