<svg xmlns="http://www.w3.org/2000/svg" xmlns:xlink="http://www.w3.org/1999/xlink" viewBox="0 0 1572 1379"><defs><style>.cls-1,.cls-30,.cls-38,.cls-39{fill:none;}.cls-2{fill:url(#linear-gradient);}.cls-3{fill:url(#linear-gradient-2);}.cls-4{fill:#6859a3;}.cls-5{fill:url(#linear-gradient-3);}.cls-6{fill:url(#linear-gradient-4);}.cls-7{fill:url(#linear-gradient-5);}.cls-8{fill:url(#linear-gradient-6);}.cls-9{fill:url(#linear-gradient-7);}.cls-10{fill:url(#linear-gradient-8);}.cls-11,.cls-14,.cls-71{fill:#1a1a1a;}.cls-11,.cls-70{opacity:0.2;}.cls-12{opacity:0.4;}.cls-13{fill:url(#Degradado_sin_nombre_2);}.cls-14{opacity:0.21;}.cls-15{fill:#e6e6e6;}.cls-16{fill:#ccc;}.cls-17{fill:gray;}.cls-18{fill:#f7f7f7;}.cls-19{fill:#f5f5f5;}.cls-20{fill:#f2f2f2;}.cls-21{fill:#dbdbdb;}.cls-22{fill:#ebebeb;}.cls-23{fill:#dedede;}.cls-24{fill:#00798f;}.cls-25{fill:#ededed;}.cls-26{fill:#b3b3b3;}.cls-27{fill:#008da6;}.cls-28{fill:#a5bcbf;}.cls-29{fill:#5c5c5c;}.cls-30{stroke:#666;stroke-width:2px;}.cls-30,.cls-38,.cls-39,.cls-80,.cls-82{stroke-miterlimit:10;}.cls-31{fill:#333;}.cls-32{fill:#9c9c9c;}.cls-33{fill:#171717;}.cls-34{fill:#ebfbff;}.cls-35{fill:#c4f1ff;}.cls-36{fill:#cff4ff;}.cls-37{fill:#f7f9ff;}.cls-38{stroke:#0071bc;}.cls-38,.cls-39{stroke-linecap:round;stroke-width:5px;}.cls-39{stroke:#247fbc;}.cls-40{fill:#43c8df;}.cls-41{fill:#c2e6ff;}.cls-42{fill:#666;}.cls-43{fill:#999;}.cls-44{fill:#d9d9d9;}.cls-45{fill:#fff;}.cls-46{fill:#f4e2d4;}.cls-47,.cls-70{fill:#002121;}.cls-48{fill:#fff5ed;}.cls-49{opacity:0.5;}.cls-50{fill:#edbca2;}.cls-51{fill:#42210b;}.cls-52{fill:#3b2112;}.cls-53{fill:#381c09;}.cls-54{fill:#2e1708;}.cls-55{fill:#3b1d0a;}.cls-56{fill:#381e0c;}.cls-57{fill:#404040;}.cls-58{fill:#4f4f4f;}.cls-59{fill:#4d4d4d;}.cls-60{fill:#f0c195;}.cls-61{fill:#e3d3c5;}.cls-62{fill:#001c1c;}.cls-63{fill:#242424;}.cls-64{fill:#002424;}.cls-65{fill:#003b3b;}.cls-66{fill:#002b2b;}.cls-67{fill:#004d4d;}.cls-68{fill:#003636;}.cls-69{fill:#005c5c;}.cls-72{fill:#15104f;}.cls-73{fill:#0f0c40;}.cls-74{fill:#1b1463;}.cls-75{fill:#911d22;}.cls-76{fill:#f9e8d8;}.cls-77{fill:#f9dfc7;}.cls-78{fill:#461a00;}.cls-79,.cls-81{opacity:0.1;}.cls-79{fill:url(#Degradado_sin_nombre_3);}.cls-80,.cls-82{stroke:#003463;}.cls-80{fill:url(#Cielo);}.cls-81{fill:url(#Degradado_sin_nombre_3-2);}.cls-82{fill:url(#Cielo-2);}.cls-83{fill:#003463;}.cls-84{fill:#f4e3d6;}.cls-85{fill:#ffefe0;}.cls-86{fill:#0a0726;opacity:0.39;}.cls-87{fill:#130f4f;}.cls-88{fill:#a8a8a8;}.cls-89{fill:#8a8a8a;}.cls-90{fill:#595959;}.cls-91{fill:#ffbae2;}.cls-92{fill:#b56392;}.cls-93{fill:url(#Pluma1);}.cls-94{fill:#0f0b36;}.cls-100,.cls-95,.cls-99{fill:#0a0724;}.cls-95{opacity:0.18;}.cls-96,.cls-97{fill:#0a0721;}.cls-97,.cls-99{opacity:0.75;}.cls-98{fill:#1f194a;}.cls-100{opacity:0.32;}.cls-101{fill:#f7d5ba;}.cls-102{fill:#151238;}.cls-103{fill:#28254a;}.cls-104{fill:#100e2b;}.cls-105{fill:#110c3d;}.cls-106{fill:#0a0926;}.cls-107{fill:#301200;}.cls-108{fill:#422700;}.cls-109{fill:#593500;}.cls-110{fill:#210c00;}.cls-111{fill:#e3cab6;}.cls-112{fill:#f4d1b7;}.cls-113{fill:#fff2e8;}.cls-114{fill:#141414;}.cls-115{opacity:0.09;}</style><linearGradient id="linear-gradient" x1="-31521.83" y1="-44148.27" x2="-31478.6" y2="-44118.44" gradientTransform="matrix(1, 0, 0, -1, 31628.5, -43927.72)" gradientUnits="userSpaceOnUse"><stop offset="0.03" stop-color="#a298ca"/><stop offset="0.66" stop-color="#7c6eb0"/></linearGradient><linearGradient id="linear-gradient-2" x1="-31490.53" y1="-44081.51" x2="-31412.1" y2="-44081.51" xlink:href="#linear-gradient"/><linearGradient id="linear-gradient-3" x1="-31660.84" y1="-44148.27" x2="-31617.61" y2="-44118.44" xlink:href="#linear-gradient"/><linearGradient id="linear-gradient-4" x1="-31629.54" y1="-44081.51" x2="-31551.11" y2="-44081.51" xlink:href="#linear-gradient"/><linearGradient id="linear-gradient-5" x1="-31521.83" y1="-44010.83" x2="-31478.6" y2="-43981" xlink:href="#linear-gradient"/><linearGradient id="linear-gradient-6" x1="-31490.53" y1="-43944.07" x2="-31412.1" y2="-43944.07" xlink:href="#linear-gradient"/><linearGradient id="linear-gradient-7" x1="-31660.84" y1="-44010.83" x2="-31617.61" y2="-43981" xlink:href="#linear-gradient"/><linearGradient id="linear-gradient-8" x1="-31629.54" y1="-43944.07" x2="-31551.11" y2="-43944.07" xlink:href="#linear-gradient"/><linearGradient id="Degradado_sin_nombre_2" x1="181" y1="689.5" x2="1572" y2="689.5" gradientUnits="userSpaceOnUse"><stop offset="0" stop-color="#ff0"/><stop offset="0.13" stop-color="#e6f81e"/><stop offset="0.74" stop-color="#72d6a8"/><stop offset="1" stop-color="#43c8df"/></linearGradient><linearGradient id="Degradado_sin_nombre_3" x1="628.76" y1="459.34" x2="629.74" y2="457.57" gradientTransform="translate(-130.69 302.28) rotate(-24.45)" gradientUnits="userSpaceOnUse"><stop offset="0" stop-color="#cce0f4"/><stop offset="0.1" stop-color="#c3daf0"/><stop offset="0.27" stop-color="#a9c9e4"/><stop offset="0.48" stop-color="#80aed1"/><stop offset="0.73" stop-color="#4689b7"/><stop offset="0.99" stop-color="#005b97"/></linearGradient><linearGradient id="Cielo" x1="621.6" y1="453.01" x2="643.18" y2="453.01" gradientUnits="userSpaceOnUse"><stop offset="0" stop-color="#cce0f4"/><stop offset="0.06" stop-color="#c3dcf2"/><stop offset="0.17" stop-color="#a9d2ee"/><stop offset="0.31" stop-color="#80c2e7"/><stop offset="0.46" stop-color="#47acde"/><stop offset="0.57" stop-color="#1e9cd7"/><stop offset="0.87" stop-color="#0075be"/><stop offset="0.99" stop-color="#005b97"/></linearGradient><linearGradient id="Degradado_sin_nombre_3-2" x1="606.18" y1="449.1" x2="607.16" y2="447.32" gradientTransform="translate(-128.48 292.02) rotate(-24.45)" xlink:href="#Degradado_sin_nombre_3"/><linearGradient id="Cielo-2" x1="599.02" y1="442.76" x2="620.6" y2="442.76" xlink:href="#Cielo"/><pattern id="Pluma1" data-name="Pluma1" width="139.01" height="137.44" patternTransform="translate(-2.97)" patternUnits="userSpaceOnUse" viewBox="0 0 139.01 137.44"><rect class="cls-1" width="139.01" height="137.44"/><path class="cls-2" d="M138.93,136.2c-6.61,7.87-10.85,30.65,2,51.84,12.62,20.87,38.33,28.2,35.44,51.75-2-5.57-8.44-8.47-15.13-8.47-5,0-10.76,2.59-10.76,8.84a6.4,6.4,0,0,0,6.3,6.48,5.23,5.23,0,0,0,4.14-8.51c2.53.93,5,3.38,5,8.31,0,5.51-5.06,11.29-13.58,11.29a17.17,17.17,0,0,1-16.81-17c0-15.32,16.69-20.8,27.54-15.56-12.64-11.35-38.52-1.78-46.16-25.41a11.3,11.3,0,0,0,10,4.06c-3.9-1.95-8-5.95-10.45-12.32-3.91-10-1.57-15.62-7.86-21.69a35,35,0,0,1,18.24,16c-4.4-14.94-10-25.92-24.17-34.71,9.22,1.84,14.07,3.86,21.75,10.54C126.25,149.41,130.59,143.57,138.93,136.2Z"/><path class="cls-3" d="M183.53,237.48c-2.66-22.62-17.29-27.68-31.2-42.63-18-19.33-17-46.14-8.35-60.41-2.11,14.3.51,27.42,9.23,38.67-5.09-17.12-4.22-35.12,4.17-49-1.19,9.25-1,14.25,2,22.62.88-18,8.54-30.68,22.85-41.52-5.72,9.64-8.59,22-7,31.86,6.33-25.87,24.07-37,36.74-40.65a39.37,39.37,0,0,0-8.18,18.24c9.38-19.56,27.76-22.31,37.79-28.34C248.74,82,245.74,74,241.37,74c-2.38,0-3.75,1.37-5.13,4,1-5.25,4.38-7.88,8-7.88,5.31,0,9.33,5.25,9.33,11.72,0,17.26-22.93,29.47-48.95,44.26-22.41,12.74-32.5,22.27-35.81,40-3.36,18,5.93,35.15,5.93,35.15s-8.56-29.6,4.63-47.87c12-16.62,30.33-23.92,47.25-33.87,18.69-11,35.87-22.63,30.72-41.51,9.45,9.45,12.72,24.28,5.28,33.39-9.57,11.72-28.53,14.24-36,21.75,13.15-6.63,25.22-4.11,34.71-7.91,9.32-3.72,9.22-14.28,9.22-14.28,3.85,13.31,0,28.65-15.38,34.28-16.13,5.9-34.73-1.75-51.4,7.68,17.88-6.2,38.65-3.18,50.14,15.82-4.56-4.56-13.31-6.15-20-6.15,15.6,8.72,13.79,31.71-.48,36.16,0,0,4.59-3.25,4.59-11.51,0-11.09-9.77-20.35-28-20.35-12.38,0-22.94,5.25-27.5,13.93,4.94-5.8,13.28-9.88,22.63-9.88,13.31,0,18.56,9.78,18.67,17.45a18,18,0,0,1-9.45,15.94c5.71-6.31,1.21-14.94-6.81-14.94-11.65,0-16.48,14.13-14.28,25.71,2.68-9.83,7.93-15,17.58-16.7-7,5.62-9.65,11.37-8.57,20.87,6.17-13.63,18.45-6.81,24.17-20.43,1.37,7.55.12,19-10.8,24.28C203.35,229,193.19,226.27,183.53,237.48Z"/><path class="cls-4" d="M226.37,198.81c1.37,7.55.12,19-10.8,24.28-12.22,5.94-22.38,3.18-32,14.39,7.94-17.55-3.21-27.88,1.36-42.69,4.49-14.58,18.68-17.58,26.36-14.5,9.78,3.92,11.16,17.88,3,24,5.71-6.31,1.21-14.94-6.81-14.94-11.65,0-16.48,14.13-14.28,25.71,2.68-9.83,7.93-15,17.58-16.7-7,5.62-9.65,11.37-8.57,20.87C208.37,205.61,220.65,212.43,226.37,198.81Zm-43.94-18c4.56-8.68,15.12-13.93,27.5-13.93,18.25,0,28,9.26,28,20.35,0,8.26-4.59,11.51-4.59,11.51,14.27-4.45,16.08-27.44.48-36.16,6.73,0,15.48,1.59,20,6.15C234.72,146.26,186.08,152.48,182.43,180.79Zm88.09-69.86c2.31,17.76-7.31,25.1-29.79,27-28.54,2.42-37,14.95-37,14.95,16.67-9.43,35.27-1.78,51.4-7.68C270.52,139.58,274.37,124.24,270.52,110.93Zm-43.93,22.19c7.5-7.51,26.46-10,36-21.75,7.44-9.11,4.17-23.94-5.28-33.39,6.41,9,7.72,20.67.55,29.1C248,118.7,235.16,119.4,226.59,133.12Zm27-51.29c0-6.47-4-11.72-9.33-11.72,8.18,2.21,8.8,16.16-4,27.07-11.27,9.56-28.22,18.11-44.66,28.43S164,149,164,170.27c0,17.27,10.79,31,10.79,31s-9.29-17.19-5.93-35.15c3.31-17.72,13.4-27.25,35.81-40C230.64,111.3,253.57,99.09,253.57,81.83ZM140.91,188c-12.83-21.19-8.59-44-2-51.84-8.3,8.3-14.44,27.66-7.83,45.83,5.23,14.35,16.62,24.57,30.89,35.46,8.67,6.61,13.63,14.25,14.36,22.3C179.24,216.24,153.53,208.91,140.91,188Zm20.31,43.28a20.83,20.83,0,0,1,8,1.53c-6.89-7.94-25.9-5.13-25.9,7.69a11.29,11.29,0,0,0,11.37,11.52c8.85,0,11.83-9.39,6.22-13.93a5.23,5.23,0,0,1-4.14,8.51,6.4,6.4,0,0,1-6.3-6.48C150.46,233.91,156.25,231.32,161.22,231.32Z"/><path class="cls-5" d="M-.08,136.2c-6.61,7.87-10.85,30.65,2,51.84,12.62,20.87,38.33,28.2,35.44,51.75-2-5.57-8.44-8.47-15.13-8.47-5,0-10.76,2.59-10.76,8.84a6.4,6.4,0,0,0,6.3,6.48,5.23,5.23,0,0,0,4.14-8.51c2.52.93,5.05,3.38,5.05,8.31,0,5.51-5.06,11.29-13.59,11.29a17.17,17.17,0,0,1-16.8-17c0-15.32,16.69-20.8,27.54-15.56-12.64-11.35-38.52-1.78-46.16-25.41a11.3,11.3,0,0,0,10,4.06c-3.9-1.95-8-5.95-10.45-12.32-3.91-10-1.57-15.62-7.86-21.69a35,35,0,0,1,18.24,16c-4.4-14.94-10-25.92-24.17-34.71,9.22,1.84,14.07,3.86,21.75,10.54C-12.76,149.41-8.42,143.57-.08,136.2Z"/><path class="cls-6" d="M44.52,237.48c-2.67-22.62-17.29-27.68-31.2-42.63-18-19.33-17-46.14-8.35-60.41-2.12,14.3.51,27.42,9.23,38.67C9.1,156,10,138,18.37,124.12c-1.19,9.25-1,14.25,2,22.62.88-18,8.54-30.68,22.85-41.52-5.72,9.64-8.6,22-7,31.86,6.33-25.87,24.07-37,36.74-40.65a39.37,39.37,0,0,0-8.18,18.24c9.37-19.56,27.76-22.31,37.78-28.34C109.73,82,106.73,74,102.35,74c-2.37,0-3.75,1.37-5.12,4,1-5.25,4.37-7.88,8-7.88,5.31,0,9.33,5.25,9.33,11.72,0,17.26-22.93,29.47-48.95,44.26-22.41,12.74-32.51,22.27-35.81,40-3.36,18,5.93,35.15,5.93,35.15s-8.56-29.6,4.62-47.87c12-16.62,30.34-23.92,47.25-33.87,18.7-11,35.88-22.63,30.73-41.51,9.45,9.45,12.72,24.28,5.27,33.39-9.56,11.72-28.52,14.24-36,21.75,13.15-6.63,25.22-4.11,34.71-7.91,9.31-3.72,9.22-14.28,9.22-14.28,3.84,13.31,0,28.65-15.38,34.28-16.13,5.9-34.73-1.75-51.4,7.68,17.88-6.2,38.65-3.18,50.14,15.82-4.56-4.56-13.31-6.15-20-6.15,15.6,8.72,13.79,31.71-.49,36.16,0,0,4.6-3.25,4.6-11.51,0-11.09-9.77-20.35-28-20.35-12.38,0-22.94,5.25-27.5,13.93,4.93-5.8,13.28-9.88,22.63-9.88,13.3,0,18.56,9.78,18.67,17.45a18,18,0,0,1-9.45,15.94c5.71-6.31,1.21-14.94-6.81-14.94-11.65,0-16.48,14.13-14.28,25.71,2.67-9.83,7.92-15,17.58-16.7-7,5.62-9.66,11.37-8.57,20.87,6.16-13.63,18.45-6.81,24.17-20.43,1.37,7.55.12,19-10.8,24.28C64.34,229,54.18,226.27,44.52,237.48Z"/><path class="cls-4" d="M87.36,198.81c1.37,7.55.12,19-10.8,24.28-12.22,5.94-22.38,3.18-32,14.39,7.94-17.55-3.21-27.88,1.36-42.69,4.49-14.58,18.68-17.58,26.36-14.5,9.78,3.92,11.16,17.88,3,24,5.71-6.31,1.21-14.94-6.81-14.94-11.65,0-16.48,14.13-14.28,25.71,2.67-9.83,7.92-15,17.58-16.7-7,5.62-9.66,11.37-8.57,20.87C69.35,205.61,81.64,212.43,87.36,198.81Zm-43.94-18c4.56-8.68,15.12-13.93,27.5-13.93,18.25,0,28,9.26,28,20.35,0,8.26-4.6,11.51-4.6,11.51,14.28-4.45,16.09-27.44.49-36.16,6.73,0,15.48,1.59,20,6.15C95.71,146.26,47.07,152.48,43.42,180.79Zm88.09-69.86c2.31,17.76-7.31,25.1-29.79,27-28.55,2.42-37,14.95-37,14.95,16.67-9.43,35.27-1.78,51.4-7.68C131.5,139.58,135.35,124.24,131.51,110.93ZM87.58,133.12c7.5-7.51,26.46-10,36-21.75,7.45-9.11,4.18-23.94-5.27-33.39,6.41,9,7.72,20.67.55,29.1C109,118.7,96.15,119.4,87.58,133.12Zm27-51.29c0-6.47-4-11.72-9.33-11.72,8.18,2.21,8.8,16.16-4,27.07C89.92,106.74,73,115.29,56.53,125.61S24.94,149,24.94,170.27c0,17.27,10.79,31,10.79,31S26.44,184,29.8,166.08c3.3-17.72,13.4-27.25,35.81-40C91.63,111.3,114.56,99.09,114.56,81.83ZM1.9,188c-12.83-21.19-8.59-44-2-51.84-8.3,8.3-14.44,27.66-7.83,45.83C-2.68,196.38,8.71,206.6,23,217.49c8.67,6.61,13.62,14.25,14.36,22.3C40.23,216.24,14.52,208.91,1.9,188Zm20.31,43.28a20.74,20.74,0,0,1,8,1.53c-6.88-7.94-25.89-5.13-25.89,7.69a11.29,11.29,0,0,0,11.37,11.52c8.85,0,11.83-9.39,6.22-13.93a5.23,5.23,0,0,1-4.14,8.51,6.4,6.4,0,0,1-6.3-6.48C11.45,233.91,17.24,231.32,22.21,231.32Z"/><path class="cls-7" d="M138.93-1.24c-6.61,7.87-10.85,30.65,2,51.84,12.62,20.87,38.33,28.2,35.44,51.75-2-5.57-8.44-8.47-15.13-8.47-5,0-10.76,2.59-10.76,8.84a6.4,6.4,0,0,0,6.3,6.48,5.23,5.23,0,0,0,4.14-8.51c2.53.93,5,3.38,5,8.31,0,5.51-5.06,11.29-13.58,11.29a17.17,17.17,0,0,1-16.81-17c0-15.32,16.69-20.8,27.54-15.56C150.46,76.38,124.58,86,116.94,62.32a11.3,11.3,0,0,0,10,4.06c-3.9-1.95-8-5.95-10.45-12.32-3.91-10-1.57-15.62-7.86-21.69a35,35,0,0,1,18.24,16c-4.4-14.94-10-25.93-24.17-34.71,9.22,1.84,14.07,3.86,21.75,10.54C126.25,12,130.59,6.13,138.93-1.24Z"/><path class="cls-8" d="M183.53,100c-2.66-22.61-17.29-27.67-31.2-42.62-18-19.33-17-46.14-8.35-60.41-2.11,14.3.51,27.42,9.23,38.67-5.09-17.12-4.22-35.12,4.17-49-1.19,9.25-1,14.25,2,22.62.88-18,8.54-30.68,22.85-41.52-5.72,9.64-8.59,22-7,31.86,6.33-25.87,24.07-37,36.74-40.65a39.37,39.37,0,0,0-8.18,18.24c9.38-19.56,27.76-22.31,37.79-28.34,7.21-4.34,4.21-12.34-.16-12.34-2.38,0-3.75,1.37-5.13,4,1-5.25,4.38-7.88,8-7.88,5.31,0,9.33,5.25,9.33,11.72,0,17.26-22.93,29.47-48.95,44.26-22.41,12.74-32.5,22.27-35.81,40-3.36,18,5.93,35.15,5.93,35.15s-8.56-29.6,4.63-47.87C191.37-.7,209.7-8,226.62-17.95c18.69-11,35.87-22.63,30.72-41.51,9.45,9.45,12.72,24.28,5.28,33.39-9.57,11.72-28.53,14.24-36,21.75,13.15-6.63,25.22-4.11,34.71-7.91,9.32-3.72,9.22-14.28,9.22-14.28,3.85,13.31,0,28.65-15.38,34.28C239,13.67,220.41,6,203.74,15.45c17.88-6.2,38.65-3.18,50.14,15.82-4.56-4.56-13.31-6.15-20-6.15,15.6,8.72,13.79,31.7-.48,36.16,0,0,4.59-3.25,4.59-11.51,0-11.09-9.77-20.35-28-20.35-12.38,0-22.94,5.25-27.5,13.93,4.94-5.8,13.28-9.88,22.63-9.88,13.31,0,18.56,9.78,18.67,17.45a18,18,0,0,1-9.45,15.94c5.71-6.31,1.21-14.94-6.81-14.94-11.65,0-16.48,14.13-14.28,25.71,2.68-9.83,7.93-15,17.58-16.7-7,5.62-9.65,11.37-8.57,20.87,6.17-13.63,18.45-6.81,24.17-20.43,1.37,7.55.12,19-10.8,24.28C203.35,91.59,193.19,88.83,183.53,100Z"/><path class="cls-4" d="M131.5,95.13c-.31-5.33,7.82-10.37,15.23-10.14C137.84,81.52,124.24,85.47,131.5,95.13Z"/><path class="cls-4" d="M226.37,61.37c1.37,7.55.12,19-10.8,24.28-12.22,5.94-22.38,3.18-32,14.38,7.94-17.54-3.21-27.87,1.36-42.68,4.49-14.58,18.68-17.58,26.36-14.5,9.78,3.92,11.16,17.88,3,24,5.71-6.31,1.21-14.94-6.81-14.94-11.65,0-16.48,14.13-14.28,25.71,2.68-9.83,7.93-15,17.58-16.7-7,5.62-9.65,11.37-8.57,20.87C208.37,68.17,220.65,75,226.37,61.37Zm-43.94-18c4.56-8.68,15.12-13.93,27.5-13.93,18.25,0,28,9.26,28,20.35,0,8.26-4.59,11.51-4.59,11.51,14.27-4.46,16.08-27.44.48-36.16,6.73,0,15.48,1.59,20,6.15C234.72,8.81,186.08,15,182.43,43.35Zm88.09-69.86c2.31,17.76-7.31,25.1-29.79,27-28.54,2.42-37,15-37,15C220.41,6,239,13.67,255.14,7.77,270.52,2.14,274.37-13.2,270.52-26.51ZM226.59-4.32c7.5-7.51,26.46-10,36-21.75,7.44-9.11,4.17-23.94-5.28-33.39,6.41,9,7.72,20.67.55,29.1C248-18.74,235.16-18,226.59-4.32Zm27-51.29c0-6.47-4-11.72-9.33-11.72,8.18,2.21,8.8,16.16-4,27.07C228.93-30.7,212-22.15,195.54-11.83S164,11.55,164,32.83c0,17.27,10.79,31,10.79,31s-9.29-17.19-5.93-35.15c3.31-17.72,13.4-27.25,35.81-40C230.64-26.14,253.57-38.35,253.57-55.61ZM140.91,50.6c-12.83-21.19-8.59-44-2-51.84-8.3,8.3-14.44,27.66-7.83,45.83,5.23,14.35,16.62,24.57,30.89,35.46,8.67,6.61,13.63,14.25,14.36,22.3C179.24,78.8,153.53,71.47,140.91,50.6Zm20.31,43.28a20.83,20.83,0,0,1,8,1.53c-6.89-7.94-25.9-5.13-25.9,7.69a11.29,11.29,0,0,0,11.37,11.52c8.85,0,11.83-9.39,6.22-13.93a5.23,5.23,0,0,1-4.14,8.51,6.4,6.4,0,0,1-6.3-6.48C150.46,96.47,156.25,93.88,161.22,93.88Z"/><path class="cls-4" d="M152.22,127.2c-5.31,2.34-13.52-4-16.1-11.7C136,125.89,145.13,138.27,152.22,127.2Z"/><path class="cls-9" d="M-.08-1.24c-6.61,7.87-10.85,30.65,2,51.84,12.62,20.87,38.33,28.2,35.44,51.75-2-5.57-8.44-8.47-15.13-8.47-5,0-10.76,2.59-10.76,8.84a6.4,6.4,0,0,0,6.3,6.48,5.23,5.23,0,0,0,4.14-8.51c2.52.93,5.05,3.38,5.05,8.31,0,5.51-5.06,11.29-13.59,11.29a17.17,17.17,0,0,1-16.8-17c0-15.32,16.69-20.8,27.54-15.56C11.45,76.38-14.43,86-22.07,62.32a11.3,11.3,0,0,0,10,4.06c-3.9-1.95-8-5.95-10.45-12.32-3.91-10-1.57-15.62-7.86-21.69a35,35,0,0,1,18.24,16c-4.4-14.94-10-25.93-24.17-34.71,9.22,1.84,14.07,3.86,21.75,10.54C-12.76,12-8.42,6.13-.08-1.24Z"/><path class="cls-10" d="M44.52,100c-2.67-22.61-17.29-27.67-31.2-42.62C-4.68,38.08-3.67,11.27,5-3c-2.12,14.3.51,27.42,9.23,38.67C9.1,18.55,10,.55,18.37-13.32c-1.19,9.25-1,14.25,2,22.62.88-18,8.54-30.68,22.85-41.52-5.72,9.64-8.6,22-7,31.86C42.5-26.23,60.24-37.32,72.91-41a39.37,39.37,0,0,0-8.18,18.24c9.37-19.56,27.76-22.31,37.78-28.34,7.22-4.34,4.22-12.34-.16-12.34-2.37,0-3.75,1.37-5.12,4,1-5.25,4.37-7.88,8-7.88,5.31,0,9.33,5.25,9.33,11.72,0,17.26-22.93,29.47-48.95,44.26C43.2,1.39,33.1,10.92,29.8,28.64c-3.36,18,5.93,35.15,5.93,35.15s-8.56-29.6,4.62-47.87C52.35-.7,70.69-8,87.6-17.95c18.7-11,35.88-22.63,30.73-41.51,9.45,9.45,12.72,24.28,5.27,33.39C114-14.35,95.08-11.83,87.58-4.32c13.15-6.63,25.22-4.11,34.71-7.91,9.31-3.72,9.22-14.28,9.22-14.28,3.84,13.31,0,28.65-15.38,34.28C100,13.67,81.4,6,64.73,15.45c17.88-6.2,38.65-3.18,50.14,15.82-4.56-4.56-13.31-6.15-20-6.15,15.6,8.72,13.79,31.7-.49,36.16,0,0,4.6-3.25,4.6-11.51,0-11.09-9.77-20.35-28-20.35-12.38,0-22.94,5.25-27.5,13.93,4.93-5.8,13.28-9.88,22.63-9.88,13.3,0,18.56,9.78,18.67,17.45a18,18,0,0,1-9.45,15.94c5.71-6.31,1.21-14.94-6.81-14.94C56.81,51.92,52,66.05,54.18,77.63c2.67-9.83,7.92-15,17.58-16.7-7,5.62-9.66,11.37-8.57,20.87C69.35,68.17,81.64,75,87.36,61.37c1.37,7.55.12,19-10.8,24.28C64.34,91.59,54.18,88.83,44.52,100Z"/><path class="cls-4" d="M-7.51,95.13C-7.82,89.8.31,84.76,7.72,85-1.17,81.52-14.78,85.47-7.51,95.13Z"/><path class="cls-4" d="M90.36,76.63C91.54,82.31,83.58,89,75.57,90,85.69,92.27,99.71,85.87,90.36,76.63Z"/><path class="cls-4" d="M87.36,61.37c1.37,7.55.12,19-10.8,24.28-12.22,5.94-22.38,3.18-32,14.38,7.94-17.54-3.21-27.87,1.36-42.68,4.49-14.58,18.68-17.58,26.36-14.5,9.78,3.92,11.16,17.88,3,24,5.71-6.31,1.21-14.94-6.81-14.94C56.81,51.92,52,66.05,54.18,77.63c2.67-9.83,7.92-15,17.58-16.7-7,5.62-9.66,11.37-8.57,20.87C69.35,68.17,81.64,75,87.36,61.37Zm-43.94-18C48,34.67,58.54,29.42,70.92,29.42c18.25,0,28,9.26,28,20.35,0,8.26-4.6,11.51-4.6,11.51,14.28-4.46,16.09-27.44.49-36.16,6.73,0,15.48,1.59,20,6.15C95.71,8.81,47.07,15,43.42,43.35Zm88.09-69.86c2.31,17.76-7.31,25.1-29.79,27-28.55,2.42-37,15-37,15C81.4,6,100,13.67,116.13,7.77,131.5,2.14,135.35-13.2,131.51-26.51ZM87.58-4.32c7.5-7.51,26.46-10,36-21.75,7.45-9.11,4.18-23.94-5.27-33.39,6.41,9,7.72,20.67.55,29.1C109-18.74,96.15-18,87.58-4.32Zm27-51.29c0-6.47-4-11.72-9.33-11.72,8.18,2.21,8.8,16.16-4,27.07C89.92-30.7,73-22.15,56.53-11.83S24.94,11.55,24.94,32.83c0,17.27,10.79,31,10.79,31S26.44,46.6,29.8,28.64c3.3-17.72,13.4-27.25,35.81-40C91.63-26.14,114.56-38.35,114.56-55.61ZM1.9,50.6c-12.83-21.19-8.59-44-2-51.84-8.3,8.3-14.44,27.66-7.83,45.83C-2.68,58.94,8.71,69.16,23,80.05c8.67,6.61,13.62,14.25,14.36,22.3C40.23,78.8,14.52,71.47,1.9,50.6ZM22.21,93.88a20.74,20.74,0,0,1,8,1.53C23.31,87.47,4.3,90.28,4.3,103.1a11.29,11.29,0,0,0,11.37,11.52c8.85,0,11.83-9.39,6.22-13.93a5.23,5.23,0,0,1-4.14,8.51,6.4,6.4,0,0,1-6.3-6.48C11.45,96.47,17.24,93.88,22.21,93.88Z"/><path class="cls-4" d="M101.63,64.93c5.74-.84,9.31-10.62,7.42-18.47C114.71,55.17,113.52,70.53,101.63,64.93Z"/><path class="cls-4" d="M13.21,127.2c-5.31,2.34-13.52-4-16.1-11.7C-3,125.89,6.12,138.27,13.21,127.2Z"/></pattern></defs><g id="Capa_2" data-name="Capa 2"><g id="Capa_1-2" data-name="Capa 1"><polygon class="cls-11" points="14.76 804.43 256.06 878.42 1018.68 400.36 707.94 411.75 14.76 804.43"/><g class="cls-12"><polygon class="cls-13" points="565.12 141.42 1572 0 1064 1379 181 544.07 181.62 131.33 565.12 141.42"/><path class="cls-14" d="M1572,676s-563.19-65.44-602.54-68.65c-18.88,34-148.07,22.93-148.07,22.93l76.36,17.29-87.37-9.89L766,657.17l-14.72.12,177.82,97.82L715.72,657.6,660,629.72,856.28,873.18,620.39,765.7l-40.53-2.39,65.87,53.12-93.27-54.75-40.37-1.46,293.46,233.9-328.1-176L445,823.35,429.68,808.1l-36.91,22.14L586,1379l635.28-339.52-40-18.22,107.15-21.62Z"/><polygon class="cls-14" points="751.33 657.29 751.2 657.22 715.72 657.6 717.62 657.59 751.33 657.29"/></g><rect class="cls-15" x="506.32" y="348.92" width="406.92" height="3.6" transform="translate(359.06 1060.5) rotate(-90)"/><rect class="cls-16" x="509.03" y="348.75" width="406.92" height="1.8" transform="translate(362.83 1062.14) rotate(-90)"/><rect class="cls-15" x="464.78" y="391.03" width="406.92" height="3.6" transform="translate(275.4 1061.07) rotate(-90)"/><rect class="cls-16" x="467.48" y="390.8" width="406.92" height="1.8" transform="translate(279.24 1062.64) rotate(-90)"/><rect class="cls-15" x="666.43" y="188.81" width="275.13" height="3.6"/><rect class="cls-15" x="666.43" y="323.69" width="275.13" height="3.6"/><polygon class="cls-15" points="941.56 458.28 666.43 458.28 710.58 415.03 985.71 415.03 941.56 458.28"/><rect class="cls-17" x="666.43" y="458.28" width="275.13" height="3.6"/><rect class="cls-15" x="778.67" y="348.56" width="406.92" height="3.6" transform="translate(631.76 1332.49) rotate(-90)"/><rect class="cls-16" x="780.6" y="348.91" width="408.47" height="1.8" transform="translate(635.02 1334.65) rotate(-90)"/><polygon class="cls-18" points="941.56 323.69 666.43 323.69 710.58 280.44 985.71 280.44 941.56 323.69"/><rect class="cls-15" x="736.3" y="391.65" width="406.92" height="3.6" transform="translate(546.31 1333.21) rotate(-90)"/><polygon class="cls-18" points="941.56 188.81 666.43 188.81 710.58 145.56 985.71 145.56 941.56 188.81"/><polygon class="cls-18" points="941.56 192.41 985.74 148.67 985.71 145.56 941.56 188.81 941.56 192.41"/><polygon class="cls-16" points="941.56 327.31 985.74 283.57 985.71 280.45 941.56 323.71 941.56 327.31"/><rect class="cls-16" x="739.01" y="391.65" width="406.92" height="1.8" transform="translate(549.92 1335.02) rotate(-90)"/><polygon class="cls-16" points="941.56 192.34 985.74 148.59 985.71 145.48 941.56 188.73 941.56 192.34"/><polygon class="cls-18" points="941.54 461.91 985.72 418.17 985.69 415.05 941.54 458.3 941.54 461.91"/><polygon class="cls-19" points="240.74 699.59 0 656.9 709.31 337.63 906.6 337.63 240.74 699.59"/><polygon class="cls-20" points="240.72 846.07 235.42 843.62 235.42 700.2 240.72 702.65 240.72 846.07"/><polygon class="cls-21" points="246.06 843 240.72 846.07 240.72 702.65 246.06 699.59 246.06 843"/><polygon class="cls-22" points="5.31 803.38 0 800.93 0 657.52 5.31 659.97 5.31 803.38"/><polygon class="cls-23" points="10.64 800.32 5.31 803.38 5.31 659.97 10.64 656.9 10.64 800.32"/><polygon class="cls-24" points="0 656.9 0 662.39 240.74 705.07 240.74 699.59 0 656.9"/><polygon class="cls-25" points="589.88 653.49 584.57 651.04 584.57 507.62 589.88 510.07 589.88 653.49"/><polygon class="cls-25" points="595.21 650.43 589.88 653.49 589.88 510.07 595.21 507.01 595.21 650.43"/><polygon class="cls-25" points="813.46 414.27 808.15 413.83 808.15 387.93 813.46 388.37 813.46 414.27"/><polygon class="cls-25" points="815.1 413.72 813.46 414.27 813.46 388.37 815.1 387.82 815.1 413.72"/><polygon class="cls-25" points="735.42 456.29 812.89 414.56 778.83 412.54 706.26 452 735.42 456.29"/><polygon class="cls-15" points="737.63 455.45 735.99 456.01 735.99 430.1 737.63 429.55 737.63 455.45"/><polygon class="cls-26" points="735.99 456.01 730.68 455.56 730.68 429.66 735.99 430.1 735.99 456.01"/><polygon class="cls-25" points="240.74 699.59 0 656.9 709.31 337.63 906.6 337.63 240.74 699.59"/><polygon class="cls-27" points="702.96 453.45 702.96 451.71 735.99 456.01 735.99 458 702.96 453.45"/><polygon class="cls-28" points="737.63 455.45 735.99 456.01 735.99 430.1 737.63 429.55 737.63 455.45"/><polygon class="cls-27" points="906.6 337.63 240.74 699.59 240.74 705.07 906.6 343.12 906.6 337.63"/><polygon class="cls-27" points="735.99 458 815.1 414.84 815.1 413.72 735.99 456.01 735.99 458"/><polygon class="cls-17" points="519.57 489.99 520.74 488.73 478.63 483.04 476.06 483.04 478.77 484.46 519.57 489.99"/><polygon class="cls-17" points="266.4 595.74 267.57 594.49 225.46 588.79 222.9 588.79 225.6 590.22 266.4 595.74"/><polygon class="cls-17" points="307.61 635.62 309 637.6 309.75 563.06 309.45 558.55 308.34 563.41 307.61 635.62"/><path class="cls-17" d="M519.65,456.81l-1.39-.94L481,471.37a4.48,4.48,0,0,0-.65.34l-1.38.87,3.71-.54a4.56,4.56,0,0,0,1-.29Z"/><polygon class="cls-17" points="382.11 546.17 380.39 545.01 334.1 564.29 332.02 565.61 337.24 564.84 382.11 546.17"/><ellipse class="cls-17" cx="332.63" cy="532.16" rx="16.5" ry="11.24" transform="translate(-103.77 81.16) rotate(-12.05)"/><path class="cls-29" d="M349.53,532.29a8,8,0,0,0-.61-1.74C348.78,536,343,541.44,335,543.16s-15.5-.86-17.87-5.82a7.59,7.59,0,0,0,.15,1.84c1.29,6.07,9.57,9.45,18.49,7.55S350.83,538.36,349.53,532.29Z"/><ellipse class="cls-17" cx="765.08" cy="359.07" rx="35.85" ry="19.07"/><path class="cls-30" d="M668.1,357l2.52-1.76a20.42,20.42,0,0,1,15.47-2.77l13.18,2.79,16.12,4,9.76,1.06c4.09.44,7.41,2.33,11.58,2.36,5.48.05,11,0,16.46,0"/><path class="cls-31" d="M780.83,360.76c0,3.62-7.05,3.13-15.75,3.13s-15.75.49-15.75-3.13,7-6.54,15.75-6.54S780.83,357.15,780.83,360.76Z"/><path class="cls-32" d="M750,361.12c0-3.61,7-6.54,15.75-6.54,5.34,0,10,1.1,12.9,2.79-2.57-2.16-7.92-3.65-14.11-3.65-8.7,0-15.74,2.93-15.74,6.55a2.38,2.38,0,0,0,1.7,2.23A2.1,2.1,0,0,1,750,361.12Z"/><path class="cls-33" d="M778.79,357.71A3.54,3.54,0,0,1,780,360.2c0,3.61-7.05,3.13-15.74,3.13-6.18,0-11.51.23-14.09-.92,1.44,2.35,7.8,2,15.44,2,8.69,0,15.74.49,15.74-3.13C781.32,360,780.39,358.73,778.79,357.71Z"/><polygon class="cls-34" points="564.01 377.47 564.31 140.81 179.23 130.19 179.25 542.24 564.01 377.47"/><polygon class="cls-35" points="178.7 529.48 178.7 543.18 563.42 378.46 563.42 378.42 549.47 370.02 178.7 529.48"/><polygon class="cls-36" points="550.15 140.42 549.6 369.97 549.47 370.02 563.42 378.42 564.24 140.85 550.15 140.42"/><polygon class="cls-37" points="347.11 403.22 208.4 444.62 258.38 542.8 385.01 491.12 347.11 403.22"/><polygon class="cls-37" points="521.21 340.51 396.56 377.71 441.47 465.93 555.26 419.49 521.21 340.51"/><path class="cls-38" d="M236.75,465.93c1.71-1.67,33.58-13.62,33.58-13.62"/><line class="cls-38" x1="282.28" y1="447.19" x2="296.7" y2="440.93"/><path class="cls-38" d="M317.57,434.1c2.84.57,15.93-4,15.93-4"/><path class="cls-38" d="M248.33,487.32c1.7-1.68,33.57-13.63,33.57-13.63"/><line class="cls-38" x1="293.85" y1="468.57" x2="308.27" y2="462.31"/><path class="cls-38" d="M329.14,455.48c2.85.57,15.94-4,15.94-4"/><path class="cls-38" d="M259.9,505.23c1.71-1.68,33.58-13.63,33.58-13.63"/><line class="cls-38" x1="305.43" y1="486.48" x2="319.85" y2="480.22"/><path class="cls-38" d="M340.71,473.39c2.85.57,15.94-4,15.94-4"/><path class="cls-39" d="M431.73,415.6c1.7-1.68,33.58-13.63,33.58-13.63"/><line class="cls-39" x1="477.26" y1="396.85" x2="491.68" y2="390.59"/><path class="cls-39" d="M512.54,383.76c2.85.57,15.94-4,15.94-4"/><path class="cls-39" d="M423.76,401.72c1.71-1.67,33.58-13.62,33.58-13.62"/><line class="cls-39" x1="469.29" y1="382.97" x2="483.71" y2="376.71"/><path class="cls-39" d="M504.57,369.88c2.85.57,15.94-4,15.94-4"/><ellipse class="cls-40" cx="472.37" cy="428.33" rx="15.15" ry="11.81" transform="translate(-128.83 215.82) rotate(-22.73)"/><ellipse class="cls-40" cx="513.73" cy="410.58" rx="15.15" ry="11.81" transform="translate(-118.76 230.42) rotate(-22.73)"/><rect class="cls-41" x="508.9" y="407.1" width="8.91" height="6.12" rx="3.06" transform="translate(-122.12 243) rotate(-23.89)"/><rect class="cls-41" x="468.39" y="425.27" width="7.97" height="6.12" rx="0.65" transform="translate(-132.98 227.96) rotate(-23.89)"/><polygon class="cls-42" points="687.85 377.61 621.8 412.52 691.68 423.24 756.27 384.63 687.85 377.61"/><polygon class="cls-43" points="688.19 381.67 636 409.58 691.21 417.7 742.5 387.49 688.19 381.67"/><polygon class="cls-43" points="621.25 414.46 621.8 412.52 691.68 423.24 691.6 425.12 621.25 414.46"/><polygon class="cls-43" points="756.45 385.5 756.27 384.63 691.68 423.24 691.6 425.12 756.45 385.5"/><path class="cls-42" d="M691.73,369.73l-1-2.21a2.28,2.28,0,0,0-1.35-1.29l-21.74-7.45v-15.9l-9.45.31V361L639,376.47a3.09,3.09,0,0,0-1.07,1.84l-.45,2.61a.47.47,0,0,0,.66.54l26.15-13.32,26.95,2.33A.52.52,0,0,0,691.73,369.73Z"/><path class="cls-43" d="M559.53,371.23l-2.85-.78,1.46-125.1S599.19,237,664.85,230a840.72,840.72,0,0,1,90.08-4.1l2.11.92"/><path class="cls-44" d="M756,334.14s-34,2-88.68,11.94c-63,10.05-107.75,25.15-107.75,25.15L561,246.39S601.88,238,667.28,231A835.51,835.51,0,0,1,757,226.82Z"/><path class="cls-20" d="M749.57,325.23s-28.55,1.43-73.93,9.36c-51.51,7.81-87.55,19.78-87.55,19.78l1.17-102.09s32.94-7,86.38-13.15a699.34,699.34,0,0,1,74.84-4Z"/><path class="cls-45" d="M585.78,262.6a77.41,77.41,0,0,0-7.94.52,55.72,55.72,0,0,0-8.4,1.33l.11-9.1s3-.64,8.29-1.26c4.2-.47,8-.48,8-.48Z"/><path class="cls-45" d="M585.46,275.89a77.13,77.13,0,0,0-8,.6,56.28,56.28,0,0,0-8.4,1.41l.11-9.1s3-.68,8.29-1.35c4.21-.51,8-.56,8-.56Z"/><path class="cls-45" d="M585.14,289.18s-3.17.06-7.95.68a56.86,56.86,0,0,0-8.4,1.49l.1-9.1s3.05-.71,8.3-1.43c4.21-.55,8-.64,8-.64Z"/><path class="cls-45" d="M584.82,302.48s-3.17.09-8,.75a56.51,56.51,0,0,0-8.41,1.58l.11-9.11s3-.74,8.3-1.5c4.21-.6,8-.72,8-.72Z"/><path class="cls-45" d="M584.5,315.79a77.08,77.08,0,0,0-8,.83,56.44,56.44,0,0,0-8.41,1.65l.1-9.11s3-.77,8.31-1.58c4.21-.64,8.06-.8,8.06-.8Z"/><path class="cls-45" d="M584.18,329.1s-3.17.15-8,.91a57,57,0,0,0-8.41,1.73l.11-9.11s3.05-.8,8.3-1.67c4.22-.67,8.07-.87,8.07-.87Z"/><path class="cls-45" d="M583.86,342.42a77.93,77.93,0,0,0-8,1,58.76,58.76,0,0,0-8.42,1.82l.11-9.12s3-.82,8.31-1.74c4.22-.72,8.07-.95,8.07-.95Z"/><path class="cls-45" d="M583.54,355.74s-3.17.21-8,1.06a59,59,0,0,0-8.42,1.9l.1-9.12s3.06-.85,8.32-1.82c4.22-.76,8.07-1,8.07-1Z"/><circle class="cls-46" cx="888.52" cy="297.86" r="41.46"/><path class="cls-47" d="M888.52,339.32a41.41,41.41,0,0,1-15-2.8l-7.28,4.67a7.69,7.69,0,0,0-3.62,6.08l-.6,19.64,53.46-34.33.1-3.34A41.26,41.26,0,0,1,888.52,339.32Z"/><path class="cls-48" d="M892.4,338.69a41.46,41.46,0,0,1-8.8-82,41.46,41.46,0,1,0,12.67,81.8C895,338.62,893.7,338.69,892.4,338.69Z"/><g class="cls-49"><path class="cls-50" d="M887.22,262.42a37.67,37.67,0,0,1-5.17,72,38.13,38.13,0,0,1-6.3.86,37.68,37.68,0,1,0,11.47-72.84Z"/></g><ellipse class="cls-46" cx="916.76" cy="289.36" rx="3.94" ry="3.58"/><ellipse class="cls-51" cx="865.68" cy="296.98" rx="5.36" ry="7.24"/><path class="cls-52" d="M897.2,230.41a23.29,23.29,0,0,0-14.05,4.06,23.35,23.35,0,0,0-24.89,30.37,15.31,15.31,0,0,1,23.06,10.25,15.41,15.41,0,0,1,.11,4.92.84.84,0,0,0,.89.94,23.15,23.15,0,0,0,10.85-3.66,1.76,1.76,0,0,1,1.09-.27,20.21,20.21,0,0,0,2.07.1,23.36,23.36,0,0,0,.87-46.71Z"/><path class="cls-53" d="M872.46,264.34a15.26,15.26,0,0,1,11.11,4.8,23.33,23.33,0,0,0,4.75-17.44,23.6,23.6,0,0,0-2.52-7.83,23.33,23.33,0,0,1-40.37-.62.34.34,0,0,0-.58,0,23.31,23.31,0,0,0,10.82,32.86,1.59,1.59,0,0,0,2.16-1A15.33,15.33,0,0,1,872.46,264.34Z"/><path class="cls-51" d="M892.94,263.16a23.26,23.26,0,0,0,13.43-6.64l0-.26a23.13,23.13,0,0,0-2.52-7.84,23.31,23.31,0,0,1-28.73,9.63A23.25,23.25,0,0,0,892.94,263.16Z"/><path class="cls-51" d="M865.41,260.93a23.25,23.25,0,0,0,11.29-9.85l-.09-.25a23.27,23.27,0,0,0-4.45-6.93,23.3,23.3,0,0,1-25.31,16.65A23.22,23.22,0,0,0,865.41,260.93Z"/><path class="cls-51" d="M888,276l.49.49a2.48,2.48,0,0,0,.19-.26Z"/><circle class="cls-54" cx="929.98" cy="268.84" r="15.34"/><path class="cls-55" d="M940.31,246.21A11.44,11.44,0,0,0,930,239.68a12.13,12.13,0,0,0-2.19.22A11.45,11.45,0,1,0,905,241c.24,1.79,5.3,13.33,5.85,19a11.53,11.53,0,0,0,10,10.21,11.32,11.32,0,0,0,6.44-1.09,11.19,11.19,0,0,1-.67-3.82,11.31,11.31,0,0,1,.45-3.15,11.25,11.25,0,0,0,8-.77,11.29,11.29,0,0,1-.67-3.83,11.43,11.43,0,0,1,5.51-9.77A1.25,1.25,0,0,0,940.31,246.21Z"/><path class="cls-56" d="M918.76,259.21a23.5,23.5,0,0,0-19.45,12,7.37,7.37,0,1,0-4.83,12.94,7.45,7.45,0,0,0,1.9-.26A22.6,22.6,0,0,0,897,288a1.08,1.08,0,0,0,2.13-.25,3.34,3.34,0,0,1,2.79-3.07c3.35-.37,4.43,2.94,4.87,4.91a1,1,0,0,0,1.23.78,11.34,11.34,0,0,1,1.41-.18.61.61,0,0,0,.45-1,4.18,4.18,0,0,1-.25-4.7,8.34,8.34,0,1,1,10.34,12.4.52.52,0,0,0-.25.72,11.43,11.43,0,0,1,1,7.63.48.48,0,0,0,.49.59,23.35,23.35,0,0,0-2.4-46.63Z"/><path class="cls-31" d="M722.38,630.76l-27.29-16.59c-3.29-1.9-5.34-5.95-4.63-9.15l47.75-115.31,58.31,33.75-65.6,105.88C729.31,632,725.52,632.58,722.38,630.76Z"/><path class="cls-57" d="M697.93,615.88c-3.28-1.9-5.33-6-4.63-9.15L740.83,492l-8.31-4.81L684.77,602.46c-.71,3.2,1.34,7.25,4.63,9.15l27.29,16.59a7.64,7.64,0,0,0,3.17,1Z"/><path class="cls-58" d="M765.25,621.05H812.4a6.07,6.07,0,0,1,6.07,6.07v19.46a6.09,6.09,0,0,1-6.09,6.09H753.82a10.1,10.1,0,0,1-10.1-10.1v0a21.53,21.53,0,0,1,21.53-21.53Z" transform="translate(-164.58 288.43) rotate(-18.97)"/><path class="cls-59" d="M708.63,658.33l-45.91-26.5A10.1,10.1,0,0,1,659,618h0a21.22,21.22,0,0,1,29-7.76c12.31,7.12,27.73,16,36,20.78a6.74,6.74,0,0,1,2.46,9.21L717.39,656A6.41,6.41,0,0,1,708.63,658.33Z"/><path class="cls-33" d="M725,631.78l-29.6-17.1a21.23,21.23,0,0,0-29,7.76,10.1,10.1,0,0,0,2.48,12.95l39.73,22.94a6.41,6.41,0,0,0,8.76-2.34l9.08-15.73A6.74,6.74,0,0,0,725,631.78Z"/><circle class="cls-46" cx="793.83" cy="364" r="15.92"/><path class="cls-48" d="M795.35,379.73a15.92,15.92,0,0,1-2.49-31.65,15.92,15.92,0,0,0,.21,31.84,15.69,15.69,0,0,0,2.49-.2Z"/><path class="cls-60" d="M794.4,348.64h0a15.93,15.93,0,0,1-2.45,31.66,16.56,16.56,0,0,0,2.46.19,15.93,15.93,0,0,0,0-31.85Z"/><circle class="cls-46" cx="787.69" cy="375.81" r="7.51"/><path class="cls-48" d="M781.69,375.81a7.51,7.51,0,0,1,7.24-7.5,7.43,7.43,0,0,0-1.72-.21,7.52,7.52,0,0,0,0,15h.28A7.52,7.52,0,0,1,781.69,375.81Z"/><path class="cls-60" d="M788.86,368.39a7.51,7.51,0,0,1-4.4,13.6,7.7,7.7,0,0,1-1.17-.1,7.51,7.51,0,1,0,5.57-13.5Z"/><circle class="cls-61" cx="799.6" cy="391.78" r="8.46"/><circle class="cls-46" cx="795.8" cy="403.34" r="17.93"/><path class="cls-60" d="M803.73,387.08a17.92,17.92,0,0,1-19.28,30.06,17.93,17.93,0,1,0,19.28-30.06Z"/><path class="cls-62" d="M914.34,331.31a107.41,107.41,0,0,0-35.13,188,107.41,107.41,0,0,0,35.13-188Z"/><path class="cls-31" d="M938.7,497.91l-3-43.21-186.6,27.53-.93.14-3.06.45-.15.21a36.84,36.84,0,0,0-26.57,44.53l.56,3.8c.1.66.22,1.3.35,1.93,4.37,26.14,23.32,68,39.17,89.37a5.32,5.32,0,0,0,6.64,3.09l44.81-15c2.16-12.65-3.06-40.24-3.54-42.46-.87-4-2.39-9.39-4.25-15.1,37.2-5.59,83.22-15,111.76-21.6A32.22,32.22,0,0,0,938.7,497.91Z"/><path class="cls-63" d="M938.56,498.19l-3-43.2-10.78,1.59,2.26,32a32.22,32.22,0,0,1-24.85,33.66c-27.37,6.37-80.59,18.34-108.34,16.68a2.42,2.42,0,0,0-2.51,3c1.44,5.84,2.61,13.68,3.33,17,.48,2.23,5.26,42.59,3.1,55.24l12-3.19c2.15-12.65-3.06-40.24-3.54-42.47-.87-4-2.39-9.38-4.25-15.1,37.21-5.58,83.25-15,111.79-21.6A32.22,32.22,0,0,0,938.56,498.19Z"/><path class="cls-57" d="M737.94,542.87c-.13-.63-.25-1.27-.34-1.93l-.56-3.8a36.84,36.84,0,0,1,26.56-44.53l.16-.21,3.06-.45.93-.14,168-24.79-1-14L748.21,480.52l-.93.14-3.06.45-.16.22a36.83,36.83,0,0,0-26.56,44.52l.56,3.8c.09.66.21,1.3.34,1.93,4.37,26.14,23.32,68,39.18,89.37a5.31,5.31,0,0,0,6.63,3.09l6-2C756.19,599.33,741.69,565.3,737.94,542.87Z"/><path class="cls-64" d="M896.13,381.46c-.4.55-4.22,10.09-7.89,10.47-1,.11-13.07-.14-13.44-.1-40.74,4.08-65.13-5.57-71.13-8.34a2.19,2.19,0,0,1-1.25-2.28l3.51-27.4a1.35,1.35,0,0,1,1.61-1.15c6,1.28,29.08,6.2,41.62,8,4.71.89,49.23,3.49,49.23,3.49"/><path class="cls-65" d="M976.29,401c-2.34-37-18.09-66.88-46.06-86.71-11.9,4.11-27.79,18.89-37.86,26.18-31.06,22.46-46.73,49.64-44.15,90.47a117.5,117.5,0,0,0,22.67,62.51,46.56,46.56,0,0,0,90.68-15.15C967.3,459.76,977.82,425.3,976.29,401Z"/><path class="cls-66" d="M885.69,507.06A117.54,117.54,0,0,1,863,444.55c2.58-39.63,10.17-66.57,38-93.13,10.07-7.29,32.07-19.41,44-23.52.26.17.5.36.75.54a109.22,109.22,0,0,0-15.83-13.63c-11.89,4.11-27.79,18.89-37.86,26.17-31.05,22.47-46.72,49.64-44.15,90.48A117.54,117.54,0,0,0,870.61,494,46.88,46.88,0,0,0,892.53,520,46.52,46.52,0,0,1,885.69,507.06Z"/><path class="cls-67" d="M871.05,415.79c0-.43,0-.85.05-1.28.7-11.28,8-29.87,9.51-33.78s19.37-36.33,35.5-36.52a30.92,30.92,0,0,1,31.3,30.92c0,8.84-20.29,55.76-25,61-.55.61-6.33,11.59-10.79,11.59-1.27,0-15.7-1.8-16.14-1.8C846,445.69,817.91,431,811.05,427a2.64,2.64,0,0,1-1.23-2.9l7.66-32.49a1.62,1.62,0,0,1,2.08-1.18c7,2.29,34.17,11.09,49,14.87,5.54,1.67,58.73,10.37,58.73,10.37"/><path class="cls-68" d="M939.78,354.92a30.79,30.79,0,0,1,1.58,9.75c0,8.85-20.29,55.76-25,61-.55.6-6.34,11.59-10.8,11.59-1.27,0-42.54,6.64-94.64-17.28l-.89,4.44a2.66,2.66,0,0,0,1.22,2.91c35.62,20.35,99.3,20.74,100.57,20.74,4.46,0,10.25-11,10.8-11.59,4.7-5.22,25-52.14,25-61A30.79,30.79,0,0,0,939.78,354.92Z"/><path class="cls-69" d="M823.43,402.8a5.06,5.06,0,0,1,6.47-3.65c10.1,3.28,32.5,10.42,45.48,13.73l.43.12a3.44,3.44,0,0,0,4.19-2.44,224.28,224.28,0,0,1,7.41-22.22c1.48-3.9,19.37-36.33,35.51-36.52a30.76,30.76,0,0,1,19.74,6.82,30.89,30.89,0,0,0-26.57-14.51c-16.14.19-34,32.63-35.51,36.53a223.33,223.33,0,0,0-7.41,22.22,3.43,3.43,0,0,1-4.19,2.43l-.43-.12c-14.51-3.69-40.79-12.18-48.5-14.7a2.12,2.12,0,0,0-2.72,1.53l-7.53,32a3,3,0,0,0,1.1,3.2c.78.46,1.84,1.07,3.18,1.77a2.7,2.7,0,0,0,3.63-1.9Z"/><path class="cls-70" d="M888.52,339.32a41.46,41.46,0,0,0,41-35.57L887,331.1a7.66,7.66,0,0,0-3.61,6.09l-.06,1.79A41.14,41.14,0,0,0,888.52,339.32Z"/><path class="cls-47" d="M940.94,323.63,887.48,358l.61-19.64a7.66,7.66,0,0,1,3.61-6.08l47.85-30.72a1.25,1.25,0,0,1,2,1Z"/><path class="cls-1" d="M925.64,548.75l-5.4,69.9c16.86-4.95,28.08-11.67,35.22-17.32L958.2,599l-6-62.83S946.14,543.1,925.64,548.75Z"/><path class="cls-1" d="M861.55,475.44c-1.92,0-4.25-.06-6.15-.13l-9.79,57.75c32.71,1.29,56-.9,72.47-4.2l8-67.38A155.33,155.33,0,0,1,861.55,475.44Z"/><path class="cls-1" d="M842.3,555.5l-7.44,62.88,2.78.39c16.58,4.32,41.46,8.33,67.21,3.53,1.85-.34,3.64-.71,5.38-1.09l6.39-70.28C900,554.44,876.06,556.83,842.3,555.5Z"/><path class="cls-1" d="M973.84,427.74a156.61,156.61,0,0,1-38.12,29l-7.37,69.74c20.42-5.62,26.22-12.57,26.22-12.57s13.18-45.41,20.93-87.77A21.57,21.57,0,0,1,973.84,427.74Z"/><path class="cls-71" d="M984.9,413.62a3.13,3.13,0,0,0,0-.43v0c-.2-1.64-1.41-3.55-3.1-5.41l0,.05a37.75,37.75,0,0,0-5.38-4.77c0,1,.06,2.68.07,4.27,1.07,2.06,1.22,4.68-1,7.82l-.33.37a19.67,19.67,0,0,1-2.56,2.72,155.62,155.62,0,0,1-112.3,47.7q-6.13,0-12.16-.47l-13.21,71.74L820.74,629s42.36,18.54,87.38,10.15,59.57-29.56,61.34-31.77-9.71-78.11-9.71-78.11,13.18-45.4,20.93-87.76v0c1.75-9.62,3.23-19.07,4.21-27.8v-.1ZM910.23,621.21c-1.74.38-3.53.75-5.38,1.09-25.75,4.8-50.63.79-67.21-3.53l-2.78-.39,7.44-62.88c33.76,1.33,57.65-1.06,74.32-4.57Zm-64.62-88.15,9.79-57.75c1.9.07,4.23.13,6.15.13a155.33,155.33,0,0,0,64.55-14l-8,67.38C901.64,532.16,878.32,534.35,845.61,533.06Zm109.85,68.27c-7.14,5.65-18.36,12.37-35.22,17.32l5.4-69.9c20.5-5.65,26.53-12.61,26.53-12.61l6,62.83Zm-.89-87.46s-5.8,7-26.22,12.57l7.37-69.74a156.61,156.61,0,0,0,38.12-29,21.57,21.57,0,0,0,1.66-1.64C967.75,468.46,954.57,513.87,954.57,513.87Z"/><path class="cls-71" d="M976.39,409.47c0-.64,0-1.39,0-2.17l0-.09Z"/><path class="cls-71" d="M976.32,402.14V403h0C976.33,402.49,976.32,402.14,976.32,402.14Z"/><path class="cls-71" d="M976.32,403l0,4.19,0,.09c0-1.59,0-3.27-.07-4.27Z"/><path class="cls-16" d="M599.24,736.18a21.41,21.41,0,0,1,17.62,9.37,1.35,1.35,0,0,0,2.3-.45,267.35,267.35,0,0,0-31.71-178.33,1.09,1.09,0,0,0-2,.15,264,264,0,0,0-9.11,162.42q2,7.42,4.28,14.63a1.09,1.09,0,0,0,1.89.31A21.31,21.31,0,0,1,599.24,736.18Z"/><path class="cls-31" d="M607.18,684.33c-.3-18.79-11.13-69.52-11.13-69.52l13.14-1.15a259.36,259.36,0,0,0-22.75-49.24,261.3,261.3,0,0,0-16.33,133C577.93,698.31,607.43,700.64,607.18,684.33Z"/><rect class="cls-71" x="516.91" y="732.35" width="29.97" height="20.68"/><rect class="cls-71" x="584.25" y="738.23" width="29.97" height="20.68"/><path class="cls-31" d="M576.4,723.58c-.69.07-1.18,1.06-1,2.07.42,2.68.87,5.36,1.33,8q1.93,11,4.26,21.75c.27,1.25,1.38,1.58,1.93.56,4-7.38,10-12.08,16.67-12.08,7.24,0,13.64,5.47,17.56,13.87.57,1.24,1.86.86,2-.63q2.12-17.82,3.13-36c.05-1-.51-1.89-1.2-1.82Z"/><path class="cls-16" d="M533.64,733.82a21.44,21.44,0,0,0-16.51,5.76,2.66,2.66,0,0,1-4.42-1.9,273.72,273.72,0,0,1,14.2-112.07A269.2,269.2,0,0,1,557.47,564a2.64,2.64,0,0,1,4.78.82,274,274,0,0,1-4.84,164.05q-2.11,6.09-4.48,12a2.63,2.63,0,0,1-4.48.79A21.74,21.74,0,0,0,533.64,733.82Z"/><path class="cls-31" d="M529.72,679.58c1.82-19.25,17-70.29,17-70.29l-13.32-2.35a264.83,264.83,0,0,1,27.21-48.46,270.34,270.34,0,0,1,5.9,137.79C558.45,696.51,528.14,696.28,529.72,679.58Z"/><path class="cls-31" d="M555.8,721.94c1.77.33,2.82,3,2.17,5.5-.4,1.54-.8,3.09-1.21,4.62q-2.28,8.48-4.79,16.7c-.89,2.89-3.46,3.61-4.82,1.35-3.5-5.84-8.57-9.69-14.44-10.21-6.18-.54-12.05,2.69-16.53,8.34-1.82,2.3-4.54.73-4.65-2.68q-.45-13.29-.23-26.75c0-2.59,1.65-4.64,3.39-4.32Z"/><path class="cls-72" d="M608.23,453.12a34.29,34.29,0,0,0-24.65,10.41c-24,7.51-44.88,31.77-52,63.8a102.76,102.76,0,0,0-2.26,15.84L519.55,593a15.68,15.68,0,0,0,12.36,18.41l40.27,7.92,45.62-164.8A34.37,34.37,0,0,0,608.23,453.12Z"/><path class="cls-73" d="M642.21,485.85a34.43,34.43,0,0,0-24.81-31.59L571.78,619.07l41.69,8.2a13.13,13.13,0,0,0,15.41-10.35l3.1-15.77c8.89-10.92,17-31.37,20.52-47.12C658.2,528.36,653.74,503.45,642.21,485.85Z"/><path class="cls-74" d="M624.35,564.11a78.77,78.77,0,0,0-15.08-22.35s-19.64,13.46-24,15.23c0,0,7.72,41,28.46,47.87a21.18,21.18,0,1,0,10.67-40.75Z"/><path class="cls-75" d="M571,502.85c-.42,1.32-2.21,2.4-3.72,3.11a2.86,2.86,0,0,1-3.67-1.15c-.85-1.47-1.71-3.41-1.28-4.74a4.55,4.55,0,1,1,8.67,2.78Z"/><circle class="cls-16" cx="569.01" cy="501.88" r="1.64"/><circle class="cls-16" cx="564.74" cy="500.41" r="1.64"/><circle class="cls-76" cx="620.77" cy="448.94" r="34.42"/><circle class="cls-77" cx="623.04" cy="452.08" r="29.41"/><path class="cls-60" d="M627.21,423a29.41,29.41,0,0,1-8.15,57.67,28.73,28.73,0,0,1-4.17-.3A29.41,29.41,0,1,0,627.21,423Z"/><path class="cls-78" d="M635.54,430.33a20.24,20.24,0,0,1,4,1.24c-.11-10.31-7.9-19.62-19-21.85-12.68-2.53-24.69,4.28-27.08,16.2-.18.93-.3,1.73-.49,3.28a.32.32,0,0,0,.57.24,19.91,19.91,0,0,1,31.13,1.78A19.82,19.82,0,0,1,635.54,430.33Z"/><path class="cls-78" d="M635.92,415.26a24.91,24.91,0,0,0-26.11,10.06.82.82,0,0,0,.93,1.24,24.89,24.89,0,0,1,29,11.7,24.89,24.89,0,0,1,13.86,10.18,24.94,24.94,0,0,0-17.64-33.18Z"/><path class="cls-78" d="M656.78,433.77A17.49,17.49,0,0,0,636,427.58a17.49,17.49,0,0,1,12.25,19.12,1.59,1.59,0,0,0,.25,1.08A17.45,17.45,0,0,1,651.24,459a17.47,17.47,0,0,0,5.54-25.18Z"/><rect class="cls-79" x="622.37" y="446.08" width="20.01" height="13.42" rx="4.59" transform="translate(244.07 -221.1) rotate(24.45)"/><path class="cls-80" d="M641.2,449.64l-12.07-5.49a3.38,3.38,0,0,0-4.47,1.68l-2.76,6.08a3.37,3.37,0,0,0,1.67,4.46l12.08,5.49a3.37,3.37,0,0,0,4.46-1.67l2.77-6.08A3.37,3.37,0,0,0,641.2,449.64Zm1.33,4.52-2.6,5.73a3.37,3.37,0,0,1-4.47,1.68l-11.54-5.25a3.37,3.37,0,0,1-1.68-4.47l2.61-5.73a3.37,3.37,0,0,1,4.46-1.67l11.55,5.25A3.37,3.37,0,0,1,642.53,454.16Z"/><rect class="cls-81" x="599.8" y="435.84" width="20.01" height="13.42" rx="4.59" transform="translate(237.81 -212.68) rotate(24.45)"/><path class="cls-82" d="M618.63,439.4l-12.07-5.49a3.38,3.38,0,0,0-4.47,1.67l-2.76,6.08a3.36,3.36,0,0,0,1.67,4.47l12.07,5.49a3.37,3.37,0,0,0,4.47-1.68l2.76-6.08A3.37,3.37,0,0,0,618.63,439.4Zm1.33,4.52-2.61,5.73a3.37,3.37,0,0,1-4.46,1.67l-11.55-5.25a3.37,3.37,0,0,1-1.67-4.46l2.6-5.73a3.37,3.37,0,0,1,4.47-1.68l11.54,5.25A3.37,3.37,0,0,1,620,443.92Z"/><rect class="cls-83" x="640.69" y="455.1" width="14.01" height="1.77"/><polygon class="cls-83" points="600.58 439.12 591.06 431.3 591.74 429.79 601.6 437.88 600.58 439.12"/><rect class="cls-83" x="618.71" y="446.39" width="5.6" height="1.77" transform="translate(240.81 -217.1) rotate(24.45)"/><path class="cls-78" d="M628.48,457a1.46,1.46,0,0,1-.52-.09c-1.22-.51-1.72-3.18-.55-6,1.06-2.59,2.91-4,4.11-4a1.19,1.19,0,0,1,.51.1c1.23.5,1.73,3.18.56,6C631.53,455.57,629.68,457,628.48,457Z"/><path class="cls-78" d="M609.6,448.38a1.36,1.36,0,0,1-.51-.09c-1.23-.51-1.72-3.19-.56-6,1.06-2.58,2.91-4,4.11-4a1.36,1.36,0,0,1,.51.09,2.34,2.34,0,0,1,1.15,1.89,7.78,7.78,0,0,1-.59,4.12C612.65,447,610.8,448.38,609.6,448.38Z"/><circle class="cls-84" cx="543.65" cy="403.51" r="12.36"/><circle class="cls-84" cx="557.67" cy="401.43" r="3.59"/><circle class="cls-84" cx="591.8" cy="538.73" r="12.36"/><path class="cls-60" d="M602.66,532.93l-.21-.35a12.34,12.34,0,0,1-22.34,10.21,12.07,12.07,0,0,0,.83,1.93,12.36,12.36,0,0,0,21.72-11.79Z"/><path class="cls-85" d="M582,545.45a12.35,12.35,0,0,1,17.92-16,12.35,12.35,0,0,0-19.43,14.79,12.14,12.14,0,0,0,3.8,4.23A12.23,12.23,0,0,1,582,545.45Z"/><path class="cls-60" d="M554.9,398.09a3.87,3.87,0,0,0-.21-.34A12.34,12.34,0,0,1,532.35,408a13.52,13.52,0,0,0,.83,1.93,12.36,12.36,0,1,0,21.72-11.8Z"/><path class="cls-85" d="M533.49,409.44a12.35,12.35,0,0,1,19.63-13.87,12.36,12.36,0,0,0-21,12.47,12.19,12.19,0,0,0,3.29,4.64A12.17,12.17,0,0,1,533.49,409.44Z"/><circle class="cls-84" cx="603.13" cy="530.21" r="3.59"/><path class="cls-74" d="M623.78,561.08a78.77,78.77,0,0,0-15.08-22.35S589.06,552.19,584.65,554c0,0,7.73,41,28.46,47.88a21.18,21.18,0,1,0,10.67-40.75Z"/><path class="cls-86" d="M622.17,573a78.77,78.77,0,0,0-15.08-22.35s-13.15-.33-20.27,2.35c-5,1.89-2.06,20.11-2.06,20.11,3.28,12.1,11.49,35.61,26.74,40.64a21.15,21.15,0,0,0,18.34-1.6l1.79-9.16a64.58,64.58,0,0,0,8.29-12.44A21.19,21.19,0,0,0,622.17,573Z"/><path class="cls-87" d="M623.69,564.68a78.91,78.91,0,0,0-15.09-22.35S589,555.79,584.55,557.56c0,0,7.73,41,28.47,47.87a21.18,21.18,0,1,0,10.67-40.75Z"/><path class="cls-72" d="M571.73,468.75c1.69-23.33-11.49-58.63-11.49-58.63s-22.76,7-27.5,7.37c0,0-6.24,70.31,6.65,87.34"/><ellipse class="cls-88" cx="531.67" cy="756.7" rx="13.59" ry="21.18" transform="translate(-262.31 1230.88) rotate(-85.75)"/><ellipse class="cls-89" cx="531.17" cy="759.94" rx="10.74" ry="19.28" transform="translate(-266.01 1233.39) rotate(-85.75)"/><path class="cls-90" d="M530.52,770.66c-9.83-.73-17.63-5.45-18.38-10.84,0,.13,0,.27,0,.4-.44,5.92,7.81,11.36,18.43,12.14s19.58-3.37,20-9.28a6.36,6.36,0,0,0,0-1.31C549.68,767.47,540.89,771.43,530.52,770.66Z"/><path class="cls-90" d="M598.39,775.49c-9.84-.73-17.63-5.44-18.39-10.83,0,.13,0,.26,0,.4-.44,5.92,7.81,11.35,18.43,12.14s19.58-3.37,20-9.28a6.36,6.36,0,0,0,0-1.31C617.55,772.31,608.76,776.26,598.39,775.49Z"/><ellipse class="cls-88" cx="599.59" cy="761.49" rx="13.59" ry="21.18" transform="translate(-204.21 1303.05) rotate(-85.75)"/><ellipse class="cls-89" cx="599.09" cy="764.73" rx="10.74" ry="19.28" transform="translate(-207.91 1305.55) rotate(-85.75)"/><path class="cls-20" d="M473.14,813.42l-8.8,3.56a9.66,9.66,0,0,1-12.59-5.34l-8-7c4.25-3.35,8.47-5.79,11.22-10.88l8.79-3.56a9.67,9.67,0,0,1,12.6,5.33l2.14,5.28A9.69,9.69,0,0,1,473.14,813.42Z"/><path class="cls-20" d="M422.31,803.64,408.58,815.2A9.68,9.68,0,0,1,394.94,814l-3.66-4.35a9.58,9.58,0,0,1-2.35-7.06c2.65-1.47,17.25-18.13,17.25-18.13a9.68,9.68,0,0,1,13.64,1.17l3.66,4.36A9.67,9.67,0,0,1,422.31,803.64Z"/><path class="cls-91" d="M396.15,833.36l35.51-20.5.21-.1a19.94,19.94,0,0,0-7.41-22.32c-2.25,4.54-7.08,9-13.5,11.88-8.49,3.83-17.21,3.74-22,.3a17,17,0,0,0,6.41,31.44A2.54,2.54,0,0,1,396.15,833.36Z"/><path class="cls-92" d="M433.13,809.19a2.67,2.67,0,0,0-3.45-1.09,20.55,20.55,0,0,1-19.55,14.33h0a1.74,1.74,0,0,0-1.4.73,17.49,17.49,0,0,1-16,7.08l-.66-.1a2.69,2.69,0,0,0,3.49,4l36.54-21.21A2.71,2.71,0,0,0,433.13,809.19Z"/><path class="cls-92" d="M405.18,800.26a41.54,41.54,0,0,1-13.76,2.06c4.11,1.77,10.16,1.87,16.36-.12,8.13-2.61,14-8,14.74-13.05C418.88,793.72,412.73,797.83,405.18,800.26Z"/><circle class="cls-93" cx="426.08" cy="683.77" r="37.59"/><circle class="cls-93" cx="454.27" cy="687.84" r="37.59"/><path class="cls-45" d="M454,691.62,431.8,667.54a9.42,9.42,0,0,0-13.31-.55l-36,33.09a9,9,0,0,1-3.89,2.15,20,20,0,0,0-15.46,19.56v.42a111.15,111.15,0,0,0,24.3,69.51,9.44,9.44,0,0,0,13.26,1.35,19.94,19.94,0,0,1,12.31-4.24h.1a9.51,9.51,0,0,0,9.65-9.31c0-.69,0-1.38,0-2.07a111.74,111.74,0,0,0-4.9-32.8,9.36,9.36,0,0,1,3.58-10.39c13.95-9.81,26-22.5,32.62-30.06A9.42,9.42,0,0,0,454,691.62Z"/><path class="cls-45" d="M478.93,671.62l-21.23-6a1.83,1.83,0,0,0-2.27,1.27l-17.15,60.37a1.94,1.94,0,0,1-.38.69,13.6,13.6,0,0,0-3,6.26l-.06.31c-4.29,22.07,1.86,44.09,15.37,62.24a1.82,1.82,0,0,0,2.67.27A18.87,18.87,0,0,1,469,793h.09a8.51,8.51,0,0,0,10.12-6.56l.06-.31a74.43,74.43,0,0,0-2.4-37.41,1.83,1.83,0,0,1,0-1.06l15-52.8A18.81,18.81,0,0,0,478.93,671.62Z"/><path class="cls-93" d="M454,691.62,431.8,667.54a9.42,9.42,0,0,0-13.31-.55l-36,33.09a9,9,0,0,1-3.89,2.15,20,20,0,0,0-15.46,19.56v.42a111.15,111.15,0,0,0,24.3,69.51,9.44,9.44,0,0,0,13.26,1.35,19.94,19.94,0,0,1,12.31-4.24h.1a9.51,9.51,0,0,0,9.65-9.31c0-.69,0-1.38,0-2.07a111.74,111.74,0,0,0-4.9-32.8,9.36,9.36,0,0,1,3.58-10.39c13.95-9.81,26-22.5,32.62-30.06A9.42,9.42,0,0,0,454,691.62Z"/><path class="cls-93" d="M480.7,672.13l-24.77-7-17.76,62.53a13.59,13.59,0,0,0-3.3,6.56l-.06.31c-4.43,22.76,2.25,45.47,16.65,63.93C455.3,793.93,462,791.61,469,793a20.42,20.42,0,0,1,7.56,3.12,73.34,73.34,0,0,0,2.71-10,74.6,74.6,0,0,0-2.57-37.94l15.65-55.1A17,17,0,0,0,480.7,672.13Z"/><line class="cls-94" x1="434.02" y1="605" x2="387.27" y2="642.57"/><path class="cls-94" d="M483.18,693.4c-31.5,7-56.51,8.43-81.18,6-12.79-2.46-17.33-6.63-18.06-16.35l-6.33-85.23c-.73-9.71,6.19-18.14,15.44-18.83l81.17-6c9.25-.69,15-.86,19.74,15.53,9.41,34.45,6.85,64.43,4.66,86.05C497.64,684.26,497.25,687.88,483.18,693.4Z"/><path class="cls-94" d="M407,590.47c-5.23-10.87-15.63-12-23.16-2.61-4.13,5.17-8.67,10.59-12.75,14.89a10.59,10.59,0,0,1-10.57,2.9c-12.58-3.56-28.91-9.29-33.5-9.85a2.31,2.31,0,0,0-2.43,1.42c-2.18,5.34-7.27,15.47-9.62,20.09a2.45,2.45,0,0,0,1.29,3.39l53,18.78a13.32,13.32,0,0,0,14.89-4.26L404.87,609A17.61,17.61,0,0,0,407,590.47Z"/><path class="cls-95" d="M385.06,618.9l-62.41-5.12-7.78,4.55s-2.27,3.75,5.69,9.3a211.37,211.37,0,0,0,21.81,16.69l43.17-23.45C385.26,619.64,385.06,618.9,385.06,618.9Z"/><path class="cls-96" d="M407,592.37h0a19.85,19.85,0,0,0-3.08-4.69,17.57,17.57,0,0,1-2.8,16.81c-6.11,7.7-15,18.86-20.8,26.17a13.34,13.34,0,0,1-14.89,4.27l-49.53-17.56c-.34.67-.65,1.29-.93,1.83a2.46,2.46,0,0,0,1.29,3.4l53,18.78a13.33,13.33,0,0,0,14.89-4.27l20.81-26.17A17.61,17.61,0,0,0,407,592.37Z"/><path class="cls-97" d="M410.57,598.72A19.93,19.93,0,0,0,407.5,594a17.57,17.57,0,0,1-2.8,16.81L383.9,637a13.55,13.55,0,0,1-3.09,2.83l.59,8a13.28,13.28,0,0,0,6.29-4.36l20.81-26.18a17.61,17.61,0,0,0,2.08-18.56Z"/><path class="cls-98" d="M324.35,602.54a2.31,2.31,0,0,1,2.43-1.43c4.59.57,20.92,6.29,33.5,9.85a10.59,10.59,0,0,0,10.57-2.9c4.08-4.3,8.62-9.72,12.75-14.89,7.28-9.1,19.61-12.31,25-2.44a9.57,9.57,0,0,0-1.33-5.59l-2.78,1.92c-5.22-10.87-15.62-12-23.15-2.62-4.14,5.17-8.67,10.59-12.76,14.89a10.59,10.59,0,0,1-10.57,2.9c-12.58-3.56-28.91-9.28-33.49-9.85a2.35,2.35,0,0,0-2.44,1.43c-2.18,5.34-7.26,15.47-9.61,20.08a2.46,2.46,0,0,0,1.28,3.4l3.13,1.1C319.4,613.33,322.7,606.57,324.35,602.54Z"/><path class="cls-99" d="M494,588.52c-4.71-16.39-10.49-16.22-19.74-15.53l-50.59,3.76a15.4,15.4,0,0,0-1.24,6c0,13.28,17.71,24,39.55,24,14.28,0,26.78-4.6,33.74-11.49C495.16,593.07,494.59,590.81,494,588.52Z"/><polygon class="cls-100" points="342.57 649.72 364.74 637.67 358.69 635.47 342.38 644.34 342.57 649.72"/><circle class="cls-84" cx="419.63" cy="516.09" r="32.1"/><path class="cls-48" d="M392.84,519.7a32.1,32.1,0,0,1,47.42-28.22,32.1,32.1,0,1,0-36.14,52.64A32,32,0,0,1,392.84,519.7Z"/><path class="cls-101" d="M436.29,488.37a32.1,32.1,0,0,1-36.93,52.22,32.1,32.1,0,1,0,36.93-52.22Z"/><circle class="cls-102" cx="453.74" cy="555.59" r="35.89"/><path class="cls-103" d="M425.67,563.37a35.89,35.89,0,0,1,55.55-30,35.89,35.89,0,1,0-47.28,52.94A35.76,35.76,0,0,1,425.67,563.37Z"/><path class="cls-104" d="M466.21,514.79a35.89,35.89,0,0,1-49.69,47.73,35.89,35.89,0,1,0,49.69-47.73Z"/><path class="cls-105" d="M490.88,534.17c-4.06-5.44-12.65-2.2-12.45,4.59a36.38,36.38,0,0,1-.19,5.09,35.93,35.93,0,0,1-28.66,31.2c-18.13,2-21.08-10.46-21.08-10.46v0a17.52,17.52,0,1,0-16.93,22,17.75,17.75,0,0,0,3.37-.33h0c31.5,14,48.51,5.16,48.51,5.16l0-.05c.45,0,.9,0,1.35,0a35.89,35.89,0,0,0,26.13-57.21Z"/><path class="cls-98" d="M398.54,578.31A17.5,17.5,0,0,1,429.38,567a10.64,10.64,0,0,1-.92-2.27l0,0a17.52,17.52,0,1,0-29.65,16.55A17.76,17.76,0,0,1,398.54,578.31Z"/><path class="cls-98" d="M433,573.81v0s2.95,12.44,21.08,10.46a35.92,35.92,0,0,0,28.65-31.2,36.41,36.41,0,0,0,.2-5.09c-.21-6.79,8.39-10,12.45-4.59l.71,1a35.88,35.88,0,0,0-5.27-10.1c-4.06-5.45-12.65-2.2-12.44,4.59a36.41,36.41,0,0,1-.2,5.09,35.92,35.92,0,0,1-28.66,31.2c-9.95,1.08-15.32-2.18-18.15-5.34A17.47,17.47,0,0,1,433,573.81Z"/><path class="cls-106" d="M425.88,562.43l0,0a13.8,13.8,0,0,0,5.05,7.08,9,9,0,0,1-.5-1.39v0a17.6,17.6,0,0,0-5.85-9.06A17.13,17.13,0,0,1,425.88,562.43Z"/><path class="cls-106" d="M492.83,537.68a7.07,7.07,0,0,0-2.07-1.86,35.89,35.89,0,0,1-28.62,53.38c-.45,0-.9,0-1.35,0l0,0s-17,8.81-48.51-5.17h0a17.72,17.72,0,0,1-3.36.33,17.49,17.49,0,0,1-11.12-4,17.54,17.54,0,0,0,15.67,9.66,17.72,17.72,0,0,0,3.36-.33h0c31.51,14,48.52,5.16,48.52,5.16l0,0c.45,0,.89,0,1.35-.05a35.9,35.9,0,0,0,26.13-57.21Z"/><path class="cls-107" d="M431,471.87a31.91,31.91,0,0,0-6.15.61,31.23,31.23,0,0,1,.46,61.13,1.15,1.15,0,0,1-.06.17A31.22,31.22,0,1,0,431,471.87Z"/><circle class="cls-107" cx="393.2" cy="491.57" r="8.89"/><circle class="cls-107" cx="403.99" cy="484.39" r="8.89"/><circle class="cls-107" cx="423.68" cy="479.58" r="8.89"/><path class="cls-107" d="M450.23,500.46a12,12,0,0,1,7.12-11,12,12,0,1,0,0,21.95A12,12,0,0,1,450.23,500.46Z"/><path class="cls-107" d="M452.22,503.1c0-17.25-14.49-31.23-32.37-31.23-16.07,0-29.4,11.31-31.93,26.13a10.48,10.48,0,0,1,10.26,10.29,10.32,10.32,0,0,1-6.83,9.6,31.13,31.13,0,0,0,2.42,3.68,6.64,6.64,0,0,1,5.19.23,6.27,6.27,0,0,1-.27-1.8,6.52,6.52,0,1,1,6.51,6.28,6.57,6.57,0,0,1-2.87-.65,6.06,6.06,0,0,1,.28,1.81,6.22,6.22,0,0,1-.3,1.88,33.2,33.2,0,0,0,6.35,3.06,9.27,9.27,0,0,0,18.06,1.23C441.29,530.57,452.22,518.07,452.22,503.1Z"/><path class="cls-108" d="M433.52,478.7A31.05,31.05,0,0,1,450,483.39,31.21,31.21,0,0,0,397.79,501C399.77,501.11,407.26,480.8,433.52,478.7Z"/><path class="cls-109" d="M421.79,476.57a31.58,31.58,0,0,1,6.54-.91,31,31,0,0,1,16.05.78A31.22,31.22,0,0,0,398,506.21a.37.37,0,0,0,.12-.07A31.24,31.24,0,0,1,421.79,476.57Z"/><path class="cls-110" d="M441.31,525a19.82,19.82,0,0,1-12.68,3.55,5.69,5.69,0,0,0-1.55,0c-4.32,1.06-5.06,2.69-9.26,1.93a31.21,31.21,0,0,0,42-35.63C458.14,495.44,458.39,513,441.31,525Z"/><path class="cls-108" d="M418.1,510.38a4.47,4.47,0,0,1-.52,0,6.26,6.26,0,0,1-5.67-4.59,10.54,10.54,0,0,0-2-.31,10.29,10.29,0,0,0-10.07,6.19,10.28,10.28,0,0,1,15.17,5.65,30.16,30.16,0,0,0,3.82-2.11,6,6,0,0,1-.08-3.49A10.71,10.71,0,0,0,418.1,510.38Z"/><path class="cls-110" d="M414.93,536.92a5.69,5.69,0,0,0-.21-2.56,6.28,6.28,0,1,0,3.64-11.85,6.28,6.28,0,0,1-8.57,8.06,6.19,6.19,0,0,1,0,3.68A30.35,30.35,0,0,0,414.93,536.92Z"/><path class="cls-78" d="M427.77,513.68a6.42,6.42,0,0,0-.7-.31,6.26,6.26,0,0,0-1.78-.36,6.28,6.28,0,1,0-9.93-7.43,6.15,6.15,0,0,1,2.45.37,6.27,6.27,0,0,1,2.24,10.42,6.23,6.23,0,0,1,3.46,1.27A31.25,31.25,0,0,0,427.77,513.68Z"/><path class="cls-78" d="M448.52,487.61a32.34,32.34,0,0,1-4.58-2.13,8.92,8.92,0,0,0,5.88,5.84A8.76,8.76,0,0,1,448.52,487.61Z"/><circle class="cls-107" cx="462.25" cy="500.46" r="12.38"/><circle class="cls-107" cx="469.73" cy="508.39" r="12.38"/><circle class="cls-107" cx="472.03" cy="524.86" r="12.38"/><path class="cls-110" d="M481.82,517.64A12.37,12.37,0,0,1,460.54,530a12.37,12.37,0,1,0,21.28-12.34Z"/><circle class="cls-107" cx="464.4" cy="529.69" r="12.38"/><path class="cls-110" d="M474,522.76a12.36,12.36,0,0,1-21.27,12.34A12.37,12.37,0,1,0,474,522.76Z"/><path class="cls-108" d="M454.49,531.78a12.37,12.37,0,0,1,18.1-11A12.37,12.37,0,1,0,458.67,541,12.35,12.35,0,0,1,454.49,531.78Z"/><path class="cls-110" d="M479.4,500.56a12.37,12.37,0,0,1-21.28,12.34,12.37,12.37,0,1,0,21.28-12.34Z"/><path class="cls-110" d="M472.15,493a12.37,12.37,0,0,1-21.28,12.34A12.37,12.37,0,1,0,472.15,493Z"/><circle class="cls-111" cx="315.29" cy="598.13" r="5.27"/><circle class="cls-46" cx="308.19" cy="606.05" r="12.38"/><path class="cls-112" d="M316.32,596.61a12.36,12.36,0,0,1-15.7,18.88,12.37,12.37,0,1,0,15.7-18.88Z"/><path class="cls-113" d="M297.7,607.19a12.37,12.37,0,0,1,18.07-11,12.37,12.37,0,1,0-13.65,20.46A12.34,12.34,0,0,1,297.7,607.19Z"/><path class="cls-114" d="M820,634l-6.59-18.41a6.41,6.41,0,0,0-8-3.77l-36.65,12.09c-10.63,4.43-16.1,16-12.27,26.73h0a10.64,10.64,0,0,0,13.37,6.27l47.11-15.53A6,6,0,0,0,820,634Z"/><path class="cls-91" d="M445.22,833.75,480.92,821l.21,0a18.44,18.44,0,0,0-3-21.53c-2.79,3.75-7.93,7-14.25,8.57-8.36,2.06-16.28.54-20.06-3.38a15.74,15.74,0,0,0,.61,29.65A2.25,2.25,0,0,1,445.22,833.75Z"/><path class="cls-92" d="M482.86,817.9a2.46,2.46,0,0,0-2.95-1.56,19,19,0,0,1-20.16,9.79h0a1.61,1.61,0,0,0-1.4.43,16.19,16.19,0,0,1-15.69,3.79l-.58-.2a2.49,2.49,0,0,0,2.52,4.17l36.76-13.23A2.5,2.5,0,0,0,482.86,817.9Z"/><path class="cls-92" d="M458.93,805.14a38.16,38.16,0,0,1-12.86-.41c3.44,2.3,8.93,3.39,14.9,2.61,7.83-1,14-5,15.57-9.43C472.47,801.46,466.2,804.19,458.93,805.14Z"/><g class="cls-115"><path class="cls-92" d="M463.94,808.1c-8.36,2.06-16.28.54-20.07-3.38a15.73,15.73,0,0,0-2.3,28.32,2.47,2.47,0,0,0,3.12,1.4l36.76-13.23A2.51,2.51,0,0,0,483,818a2.47,2.47,0,0,0-.29-.56,19.06,19.06,0,0,0,.61-3,18.47,18.47,0,0,0-5.09-15C475.39,803.28,470.25,806.54,463.94,808.1Zm2.78,18.12,5.57-2A19.1,19.1,0,0,1,466.72,826.22Z"/><path class="cls-92" d="M461.06,807.45c7.83-1,14-5,15.58-9.42-4.07,3.55-10.35,6.28-17.62,7.23a38.36,38.36,0,0,1-12.85-.41C449.61,807.15,455.1,808.24,461.06,807.45Z"/></g><path class="cls-48" d="M787.84,418.84a17.93,17.93,0,0,1,16.32-31.77,17.93,17.93,0,1,0-16.32,31.77Z"/></g></g></svg>