<svg xmlns="http://www.w3.org/2000/svg" width="536" height="360" viewBox="0 0 536 360"><defs><style>.a{fill:#43c8df;opacity:0.6;}.b{fill:#fff;}</style></defs><g transform="translate(-1244 -1448)"><rect class="a" width="536" height="360" transform="translate(1244 1448)"/><path class="b" d="M168.16,2.584H17.844a15.014,15.014,0,0,0-14.987,15V167.887a15.014,15.014,0,0,0,14.987,15H168.16a15.007,15.007,0,0,0,14.987-15V17.58A15.008,15.008,0,0,0,168.16,2.584Zm9.119,165.3a9.134,9.134,0,0,1-9.119,9.119H17.844a9.126,9.126,0,0,1-9.11-9.119V17.58a9.126,9.126,0,0,1,9.11-9.119H168.16a9.134,9.134,0,0,1,9.119,9.119ZM161.558,40.648a21.177,21.177,0,0,0-29.914,0,19.7,19.7,0,0,0-4.369,6.435l-7.621-7.611L89.74,69.387l1.871,1.871a8.583,8.583,0,0,0-6.719.9l-10.8,5.955c-2.772-1.381-7.621-3.742-9.354-5.466l.97-.97a7.318,7.318,0,0,0-.069-10.324l-5.329-5.191a8.306,8.306,0,0,0-11.774.137L20.273,85.255a7.183,7.183,0,0,0,.137,10.109l6.161,6.024a7.335,7.335,0,0,0,9.9.206,41.79,41.79,0,0,0,2.5,4.163c1.518,2.625,3.183,5.26,3.81,7.826,1.381,4.849,4.359,11.421,7.062,13.988l4.016,3.879A12,12,0,0,0,70.973,148.14l.206.206c3.183,3.193,8.728,2.772,12.254-.9a9.505,9.505,0,0,0,2.361-3.879,9.069,9.069,0,0,0,8.933-2.419,10.04,10.04,0,0,0,2.488-4.986,9.111,9.111,0,0,0,7.826-2.566,8.479,8.479,0,0,0,2.224-7.758,8.263,8.263,0,0,0,4.849-2.625,9.156,9.156,0,0,0-.137-13.028l-1.459-1.45,9.286-9.286,12.675,12.675L162.391,82.2l-7.268-7.268a19.67,19.67,0,0,0,6.435-4.359A21.188,21.188,0,0,0,161.558,40.648ZM32.664,97.1a1.356,1.356,0,0,1-1.939.137l-6.161-6.024a1.377,1.377,0,0,1-.069-1.871L52.754,60.385a2.418,2.418,0,0,1,3.458,0l5.338,5.191a1.432,1.432,0,0,1-.069,2.008ZM58.846,143.36a6.21,6.21,0,0,1-.764-7.826l8.659,8.522A6.367,6.367,0,0,1,58.846,143.36Zm49.1-24.312a3.282,3.282,0,0,1-4.7.137l-1.6-1.587-4.222-4.085-1.871-1.871a3.023,3.023,0,0,0-4.163,0,2.825,2.825,0,0,0,.147,4.153l1.793,1.8,4.232,4.085,2.772,2.772a3.584,3.584,0,0,1,.48,5.054c-1.313,1.313-3.6,1.107-5.191-.343L92.855,126.4l-4.222-4.085-1.8-1.8a2.89,2.89,0,0,0-4.153.137,2.791,2.791,0,0,0,.069,4.085l1.724,1.734,4.232,4.085,1.734,1.734a3.375,3.375,0,0,1,.137,4.711,3.458,3.458,0,0,1-4.78.069l-1.8-1.8-4.222-4.085L78.1,129.51a2.832,2.832,0,0,0-4.153.137,2.866,2.866,0,0,0,.069,4.085l1.587,1.6,4.232,4.085c.9.9.617,2.7-.627,3.947-1.244,1.391-3.046,1.665-3.947.764l-.069-.069-4.222-4.085-8.806-8.659-4.222-4.085-4.016-3.879c-1.665-1.528-4.085-6.857-5.476-11.294-.823-3.458-2.831-6.582-4.5-9.345-1.175-1.871-3.046-4.849-2.909-5.681L61.275,77.36c2.557,2.145,6.367,4.153,11.01,6.3l.7.274a1.822,1.822,0,0,0,.823.274,2.029,2.029,0,0,0,.97,0,3.886,3.886,0,0,0,.97-.274l12.264-6.857a3.613,3.613,0,0,1,2.841.069,6.183,6.183,0,0,1,3.183,2.077,3.1,3.1,0,0,1,.627,2.429A3.343,3.343,0,0,1,93.2,83.8L86.41,88.507a2.824,2.824,0,0,0-1.244,2.214A2.936,2.936,0,0,0,86,93.082l3.115,2.978,4.153,4.153,8.865,8.59,4.232,4.085,1.518,1.528A3.2,3.2,0,0,1,107.949,119.049ZM96.6,88.576l-3.4,3.389-.549-.549Zm9.7,16.064-8.865-8.581,9.482-9.492,8.728,8.728ZM99.085,86.078a9.772,9.772,0,0,0,1.254-3.321,7.21,7.21,0,0,0,.069-2.7l2.351,2.361Zm33.392,17.739-34.43-34.43,21.618-21.608,34.42,34.42Zm18-33.529L131.918,51.726A14.528,14.528,0,0,1,135.8,44.8a15.279,15.279,0,0,1,21.608,21.608A14.4,14.4,0,0,1,150.48,70.288Z" transform="translate(1419.143 1494.116)"/></g></svg>