<svg xmlns="http://www.w3.org/2000/svg" width="536" height="360" viewBox="0 0 536 360"><defs><style>.a{fill:#43c8df;opacity:0.6;}.b{fill:#fff;}</style></defs><g transform="translate(-140 -1448)"><rect class="a" width="536" height="360" transform="translate(140 1448)"/><path class="b" d="M145.181,152.721a24.139,24.139,0,0,0,10.732-19.8v-2.244c.1-5.659-.39-9.073-3.512-15.512L122.157,61.989a.507.507,0,0,1-.2-.39,3.2,3.2,0,0,0-5.171,0,1.387,1.387,0,0,0-.2.585L86.059,115.55a36.5,36.5,0,0,0-3.22,15.024v2.244a23.852,23.852,0,0,0,10.634,19.9c-8.488,1.463-15.024,4.1-15.024,8.683,0,4.878,2.634,8.878,6.244,14.341,1.366,2.146,3.024,4.488,4.683,7.317a2.911,2.911,0,0,0,2.537,1.463H146.84a2.911,2.911,0,0,0,2.537-1.463c1.659-2.829,3.317-5.171,4.683-7.317,3.61-5.463,6.244-9.463,6.244-14.341C160.3,156.818,153.669,154.184,145.181,152.721Zm-25.854-37.463a3.074,3.074,0,1,1-3.122,3.122A3.144,3.144,0,0,1,119.327,115.257ZM88.693,132.818v-2.244a30.974,30.974,0,0,1,2.634-12.585L116.5,74.282l-.1,35.707a8.878,8.878,0,1,0,5.854,0l.1-35.8,24.878,43.707c2.634,5.463,2.829,8,2.829,12.781v2.146a18.406,18.406,0,0,1-18.244,18.244H119.327l-12.39-.1A18.2,18.2,0,0,1,88.693,132.818Zm60.488,39.707c-1.171,1.756-2.537,3.8-4,6.146H93.571c-1.463-2.341-2.829-4.39-4-6.146-3.22-4.78-5.268-8-5.366-10.732,1.366-1.951,13.561-4.878,35.122-4.878,21.659,0,33.854,2.927,35.122,4.488C154.449,164.526,152.4,167.745,149.181,172.526Zm70.244-128a20.146,20.146,0,1,0-19.9-23.122H138.157V5.013H99.522V21.4h-59.8a20.2,20.2,0,1,0,0,5.854h48.2a84.947,84.947,0,0,0-52.1,61.854H18.254v38.634H56.888V89.111H41.864A78.82,78.82,0,0,1,99.522,29.7V43.648h38.634V29.7a78.82,78.82,0,0,1,57.659,59.415H181.376v38.634H220.01V89.111H201.864a84.947,84.947,0,0,0-52.1-61.854h49.756A20.17,20.17,0,0,0,219.425,44.526Zm0-34.439a14.293,14.293,0,1,1-14.244,14.244A14.282,14.282,0,0,1,219.425,10.087ZM19.718,38.672A14.293,14.293,0,1,1,34.059,24.331,14.282,14.282,0,0,1,19.718,38.672ZM51.035,94.965v26.927H24.108V94.965ZM132.3,37.794H105.376V10.867H132.3Zm81.854,57.171v26.927H187.23V94.965Z" transform="translate(288.38 1494.767)"/></g></svg>