<svg xmlns="http://www.w3.org/2000/svg" xmlns:xlink="http://www.w3.org/1999/xlink" viewBox="0 0 1567.74 1470.19"><defs><style>.cls-1{isolation:isolate;}.cls-2{fill:#e3d3c5;}.cls-13,.cls-15,.cls-3{fill:#666;}.cls-3{opacity:0.2;}.cls-4{fill:#b5906d;}.cls-5{fill:#a17f60;}.cls-6{fill:#9e7e5e;}.cls-7{fill:#82674d;}.cls-8{fill:#614d3a;}.cls-9{fill:#856a50;}.cls-10{fill:#d4a87f;}.cls-11{fill:#856950;}.cls-12{opacity:0.25;fill:url(#Degradado_sin_nombre_4);}.cls-13{opacity:0.24;}.cls-14{fill:#9c9c9c;}.cls-16{fill:#d9d9d9;}.cls-17{fill:#d0c7b5;}.cls-18{fill:#999;}.cls-19{fill:#454545;}.cls-20{fill:#fff;}.cls-21{fill:none;stroke:#2b2b2b;stroke-linejoin:round;}.cls-22{fill:#f9e8d8;}.cls-23{fill:#461a00;}.cls-24{fill:#3b1600;}.cls-25{fill:#2e241b;}.cls-26{fill:#292016;}.cls-27{fill:#1a140f;}.cls-28{fill:#292929;}.cls-29{fill:#1f1f1f;}.cls-30{fill:#e6d6c7;}.cls-31{fill:#0c2326;}.cls-32{fill:#091d1f;}.cls-33{fill:#decfc0;}.cls-34{fill:#d9cabb;}.cls-35{fill:#14383b;}.cls-36{fill:#0e292b;}.cls-37{fill:#0a1d1f;}.cls-38{fill:#f55111;}.cls-39{fill:#c9430e;}.cls-40{fill:#9e7d5e;}.cls-41{fill:#c9420e;}.cls-42{fill:#b08b69;}.cls-43{fill:#c7420e;}.cls-44{mix-blend-mode:multiply;}.cls-45{fill:#9e9e9e;}.cls-46{fill:#1c1c1c;}.cls-47{fill:#141414;}.cls-48{fill:#574534;}.cls-49{fill:#061221;}.cls-50{fill:#071517;}.cls-51{fill:#d4b699;}</style><linearGradient id="Degradado_sin_nombre_4" x1="291.61" y1="90.18" x2="2004.24" y2="90.18" gradientTransform="matrix(-0.82, 0.33, -0.33, -0.82, 1667.71, 207.92)" gradientUnits="userSpaceOnUse"><stop offset="0" stop-color="#00b8d9"/><stop offset="1" stop-color="#fdff15"/></linearGradient></defs><g class="cls-1"><g id="Capa_2" data-name="Capa 2"><g id="gorro"><path class="cls-2" d="M387.21,475.58c-2.51,10.63-6,23.18-16.2,29-44.12,25.28-74.83-12.87-76.56-14.27-3-2.41-28.95-17.66-27-35.36a60.9,60.9,0,1,0,119.8,20.62Z"/><polyline class="cls-3" points="111.06 855.02 441.55 1470.19 1567.74 1147.36 519.1 540 308.55 685.16 111.06 855.02"/><polygon class="cls-4" points="142.45 569.35 101.18 444.33 101.18 693.62 142.45 818.64 142.45 569.35"/><polygon class="cls-5" points="105.05 444.33 105.05 456.06 142.45 569.35 142.45 819.29 146.32 818.64 146.32 569.35 105.05 444.33"/><polygon class="cls-6" points="862.45 541.24 659.61 719.23 659.61 968.52 862.45 790.53 862.45 541.24"/><polygon class="cls-7" points="659.61 719.3 860 543.46 860 540.53 657.16 718.52 657.16 968.52 659.61 968.52 659.61 719.3"/><polygon class="cls-8" points="401.01 489.83 391.29 496.74 582.29 618.26 585.83 607.42 401.01 489.83"/><polyline class="cls-9" points="392.59 493.9 583.6 615.43 603.18 555.41 422.58 472.61 392.59 493.9"/><path class="cls-10" d="M916.43,565.9,739.93,715.24l-8.26,7-33.24,28.13L697,751.59c-15.22,12.87-29.37,19.25-88.19,3.28-37.24-12.51-61.95-48.94-61.95-88.81a91.44,91.44,0,0,1,2.21-20c.83-2.93,1.62-5.82,2.36-8.61,0,0,0,0,0,0,3.09-11.71,5.26-21.89,5.26-27.3,0-59.34-55.47-107.44-123.89-107.44-34.29,0-65.32,12.09-87.76,31.61a235.3,235.3,0,0,1-105.36,43.13l-64.46,9.35a45.89,45.89,0,0,1-49.94-30.39L89.64,453.49A20.62,20.62,0,0,1,103,427.06l356-111.16Z"/><path class="cls-11" d="M432.74,502.73c-34.29,0-65.32,12.09-87.76,31.61a235.3,235.3,0,0,1-105.36,43.13l-64.46,9.35a45.87,45.87,0,0,1-48.37-26.46,45.88,45.88,0,0,0,49.59,29.45l64.46-9.35A235.3,235.3,0,0,0,346.2,537.33c22.44-19.52,53.47-31.61,87.76-31.61,53.31,0,98.75,29.2,116.23,70.17C533.68,533.36,487.34,502.73,432.74,502.73Z"/><path class="cls-11" d="M914.72,567.42,739.88,715.35l-8.26,7-33.24,28.13-1.45,1.23C681.71,764.57,667.57,771,608.74,755c-24.87-8.35-44.14-27.38-54.2-51,9.67,25,29.51,45.26,55.42,54,58.82,16,73,9.59,88.19-3.28l1.45-1.23,33.24-28.13,8.26-7L917.6,569Z"/><polygon class="cls-12" points="270.75 1470.19 11.61 692.13 0 0 538.84 6.97 1567.74 649.96 270.75 1470.19"/><polygon class="cls-13" points="380.98 462.15 253.16 438.45 186.58 435.87 273.99 552.67 380.98 462.15"/><path class="cls-14" d="M207.68,337.16s-6.12.48-7,3.84c-1,3.54-4.79,44.55-6.34,48.61s-16.77,42-3.87,50.52c2.13,1.78,20.37,2.95,21.73,1s7.69-66.83,6.92-69.92S207.68,337.16,207.68,337.16Z"/><rect class="cls-15" x="202.06" y="337.16" width="51.87" height="104.9" rx="5.61"/><polygon class="cls-13" points="898.14 581.38 759.48 527.23 703.74 555.1 791.15 671.9 898.14 581.38"/><path class="cls-14" d="M757.65,430.67s7.54.59,8.65,4.73c1.28,4.37,5.91,55,7.82,60s20.69,51.8,4.78,62.31c-2.63,2.2-25.13,3.64-26.8,1.25s-9.49-82.42-8.54-86.24S757.65,430.67,757.65,430.67Z"/><rect class="cls-15" x="700.59" y="430.67" width="63.98" height="129.4" rx="5.61" transform="translate(1465.16 990.73) rotate(-180)"/><rect class="cls-16" x="938.68" y="127.09" width="6.97" height="697.94"/><polygon class="cls-15" points="951.25 119.75 945.65 127.09 945.65 825.03 951.25 817.69 951.25 119.75"/><polygon class="cls-17" points="1303.64 585.11 942.48 585.11 747.76 748.22 1108.92 748.22 1303.64 585.11"/><polygon class="cls-15" points="1108.92 748.18 747.76 748.44 747.76 754.12 1108.92 754.12 1303.64 591.02 1296.55 591.02 1108.92 748.18"/><polygon class="cls-17" points="1301.19 431.95 940.03 431.95 745.31 595.06 1106.47 595.06 1301.19 431.95"/><polygon class="cls-15" points="1106.47 594.74 745.31 594.99 745.31 600.67 1106.47 600.67 1301.19 437.57 1294.1 437.57 1106.47 594.74"/><polygon class="cls-17" points="1301.19 278.1 940.03 278.1 745.31 441.2 1106.47 441.2 1301.19 278.1"/><polygon class="cls-15" points="1106.47 441.17 745.31 441.43 745.31 447.11 1106.47 447.11 1301.19 284 1294.1 284 1106.47 441.17"/><rect class="cls-16" x="745.31" y="283.08" width="6.97" height="697.94"/><rect class="cls-16" x="1098.09" y="282.51" width="6.97" height="697.94"/><polygon class="cls-15" points="757.88 275.74 752.28 283.08 752.28 981.02 757.88 973.68 757.88 275.74"/><rect class="cls-16" x="1291.07" y="128.09" width="6.97" height="697.94"/><polygon class="cls-15" points="1303.64 120.75 1298.04 128.09 1298.04 826.02 1303.64 818.68 1303.64 120.75"/><polygon class="cls-15" points="1110.27 276.73 1104.67 284.07 1104.67 982.01 1110.27 974.67 1110.27 276.73"/><polygon class="cls-17" points="1301.19 119.75 940.03 119.75 745.31 282.86 1106.47 282.86 1301.19 119.75"/><polygon class="cls-15" points="1106.47 282.82 745.31 283.08 745.31 288.76 1106.47 288.76 1301.19 125.66 1294.1 125.66 1106.47 282.82"/><polygon class="cls-18" points="533.62 430.42 438.6 430.42 413.9 472.27 508.92 472.27 533.62 430.42"/><polygon class="cls-19" points="446 433.16 438.93 433.16 437.09 436.28 444.16 436.28 446 433.16"/><polygon class="cls-19" points="443.17 437.85 436.1 437.85 434.26 440.97 441.33 440.97 443.17 437.85"/><polygon class="cls-19" points="440.34 442.54 433.27 442.54 431.43 445.66 438.5 445.66 440.34 442.54"/><polygon class="cls-19" points="437.51 447.23 430.44 447.23 428.6 450.35 435.67 450.35 437.51 447.23"/><polygon class="cls-19" points="434.68 451.92 427.61 451.92 425.77 455.03 432.84 455.03 434.68 451.92"/><polygon class="cls-19" points="431.85 456.61 424.78 456.61 422.94 459.72 430.01 459.72 431.85 456.61"/><polygon class="cls-19" points="429.02 461.3 421.95 461.3 420.11 464.41 427.18 464.41 429.02 461.3"/><polygon class="cls-19" points="426.19 465.98 419.12 465.98 417.28 469.1 424.35 469.1 426.19 465.98"/><polygon class="cls-20" points="528.42 433.16 447.64 433.16 426.65 469.53 507.43 469.53 528.42 433.16"/><polygon class="cls-18" points="533.62 430.42 508.93 472.25 413.9 472.25 413.9 473.96 509.85 473.96 533.62 433.74 533.62 430.42"/><path class="cls-19" d="M522.85,437.38h28.81a.67.67,0,0,1,.67.67v0a.67.67,0,0,1-.67.67H522.85a0,0,0,0,1,0,0v-1.33a0,0,0,0,1,0,0Z" transform="translate(-0.08 875.99) rotate(-78.34)"/><path class="cls-19" d="M534.66,452.2a.84.84,0,0,1,.58,1c-.1.48-.94.72-.94.72s-.68-.55-.58-1A.84.84,0,0,1,534.66,452.2Z"/><rect class="cls-19" x="534.27" y="451.74" width="0.72" height="1.38" transform="translate(-16.52 884.57) rotate(-78.34)"/><path class="cls-19" d="M541.26,458.6c0,3.55-3.17,2.83-6.72,2.83s-6.12.72-6.12-2.83a6.42,6.42,0,1,1,12.84,0Z"/><path class="cls-21" d="M435.89,436.28l-18.36,7.83a4.4,4.4,0,0,1-5.56-1.9l-4.22-7.52a4.4,4.4,0,0,0-6.38-1.44h0a4.4,4.4,0,0,1-6.52-1.7L393.63,429a4.43,4.43,0,0,1-.15-3.41L398.13,413"/><path class="cls-18" d="M600.47,567.77l-37-49.64c-2.38-3.2-1-6.07,3-6.41l33-2.78a14.58,14.58,0,0,1,11.65,5.18l37,49.64c2.39,3.2,1,6.07-3,6.41l-33,2.78A14.61,14.61,0,0,1,600.47,567.77Z"/><path class="cls-19" d="M612.33,549.26c-4.5,3.27-9.25-2.47-13.49-8.31s-6.37-9.57-1.87-12.83,11.58-1.19,15.82,4.65S616.82,546,612.33,549.26Z"/><path class="cls-21" d="M607.74,537l-17.2-19.83a5.48,5.48,0,0,1,1.8-8.55l15.93-7.55a5.49,5.49,0,0,0,1.57-8.79h0a5.48,5.48,0,0,1,3.52-9.31l47-3.39a5.49,5.49,0,0,0,5-6.57l-6.75-33"/><path class="cls-18" d="M516.94,245.13V391.65C482.45,389.36,436.52,388,386.1,388s-96.35,1.4-130.84,3.69V244.78c10-.64,20.9-1.21,32.56-1.69,28.21-1.16,60.82-1.83,95.57-1.83s67.3.66,95.49,1.83c12.58.52,24.28,1.13,34.91,1.83Z"/><ellipse class="cls-18" cx="386.1" cy="400.95" rx="43.56" ry="19.05"/><path class="cls-19" d="M386.1,420c-23.47,0-42.59-8.12-43.52-18.28,0,.26,0,.51,0,.77,0,10.52,19.5,19.05,43.56,19.05s43.56-8.53,43.56-19.05c0-.26,0-.51-.05-.77C428.69,411.9,409.56,420,386.1,420Z"/><rect class="cls-19" x="379.93" y="368.47" width="12.33" height="35.33" rx="6.16"/><path class="cls-18" d="M516.94,245.13V391.65C482.45,389.36,436.52,388,386.1,388s-96.35,1.4-130.84,3.69V244.78c10-.64,20.9-1.21,32.56-1.69,28.21-1.16,60.82-1.83,95.57-1.83s67.3.66,95.49,1.83c12.58.52,24.28,1.13,34.91,1.83Z"/><path class="cls-20" d="M506.94,381C472.57,379,430.16,378,386.1,378S299.63,379,265.26,381V254.2c7.33-.41,15-.79,23-1.11,29-1.2,61.88-1.83,95.16-1.83,33.48,0,66.36.63,95.07,1.82,10.17.43,19.72.9,28.48,1.43Z"/><path class="cls-15" d="M696.78,390c-7.08-6.71-14.86-13.93-23.23-21.56-18.76-17.1-40.44-36.17-63.54-55.79s-44.82-37.39-63.59-52.18c-7.76-6.1-15-11.7-21.67-16.7l-2.94,1c5.84,4.43,15,11.47,21.67,16.7C562.25,276.25,584,294,607.07,313.65s44.78,38.69,63.54,55.79c8.37,7.63,16.16,14.85,23.23,21.55l2.09,2V539.51l2.94-1V392Z"/><ellipse class="cls-18" cx="592.31" cy="457.73" rx="19.05" ry="43.56" transform="translate(-135.06 634.62) rotate(-51.36)"/><path class="cls-19" d="M626.33,484.9c-6.56,8.22-27.12,2.7-45.91-12.32-14.27-11.4-23.41-25-24.11-34.48-.77,9.48,8.67,24.4,24.11,36.74,18.79,15,39.35,20.54,45.91,12.32a10.55,10.55,0,0,0,2-7.59A9.53,9.53,0,0,1,626.33,484.9Z"/><rect class="cls-19" x="585.66" y="425.08" width="12.33" height="35.33" rx="6.16" transform="translate(1183.65 885.5) rotate(-180)"/><path class="cls-18" d="M695.93,393V539.51c-22.95-21.78-53.52-49.13-87.06-77.62s-64.11-53.05-87.06-70.25V244.77c6.64,5,13.9,10.6,21.66,16.71,18.77,14.78,40.47,32.54,63.59,52.17s44.78,38.69,63.54,55.79c8.37,7.63,16.16,14.85,23.23,21.56Z"/><path class="cls-18" d="M695.93,393V539.51c-22.95-21.78-53.52-49.13-87.06-77.62s-64.11-53.05-87.06-70.25V244.77c6.64,5,13.9,10.6,21.66,16.71,18.77,14.78,40.47,32.54,63.59,52.17s44.78,38.69,63.54,55.79c8.37,7.63,16.16,14.85,23.23,21.56Z"/><path class="cls-20" d="M685.93,516.49c-20.9-19.23-45.33-40.78-70.59-62.23-30.67-26-60.12-49.88-83.53-67.61V265c1.8,1.41,3.63,2.84,5.47,4.3,19.28,15.17,41.17,33.13,63.31,51.94s44.17,38.14,63.27,55.55c8,7.28,15.41,14.16,22.07,20.46Z"/><path class="cls-15" d="M255.27,244.68c10-.64,20.9-1.21,32.56-1.69,28.21-1.16,60.82-1.83,95.57-1.83s67.3.66,95.49,1.83c12.58.52,24.28,1.13,34.91,1.83.28,0,2.86.3,3.14.31l-2.31-3.52-3.15-.21c-10.63-.7-22.33-1.31-34.91-1.83-28.19-1.17-60.77-1.83-95.49-1.83s-67.36.67-95.57,1.83c-11.66.48-22.57,1.05-32.56,1.69V388.13l2.31,3.52Z"/><circle class="cls-22" cx="326.85" cy="468.37" r="60.9"/><ellipse class="cls-23" cx="374.31" cy="450.06" rx="3.35" ry="5.94"/><path class="cls-21" d="M379.58,461.42l-2.15,1.39c-5,3.25-10.89,1.09-13.07-4.83l-1.27-3.46-1.4-3.8a7.42,7.42,0,0,1,2.63-8.45L372.5,437c3.94-2.54,8.51-.85,10.21,3.77l1.8,4.87C386.58,451.26,384.37,458.32,379.58,461.42Z"/><line class="cls-21" x1="335.87" y1="468.37" x2="363.09" y2="454.52"/><path class="cls-24" d="M346.58,511.48c-2.24-.12-71-6.19-83-57.17-5.53,6.35-7.41,15.19-6.23,24,5.52,29.56,66.94,46.45,69.19,46.58S348.83,511.6,346.58,511.48Z"/><path class="cls-25" d="M533.7,752.41c4.82,13.47-2,28.2-15.15,32.92l-50,17.89c-8.55,3.06-18.2-2-21.53-11.35l-4.36-12.19c-1.91-5.35.51-11.11,5.42-12.86l10.48-3.75a99,99,0,0,0,34-21.25,24.83,24.83,0,0,1,8.61-5.23,25.14,25.14,0,0,1,22.82,3.08A26.05,26.05,0,0,1,533.7,752.41Z"/><path class="cls-26" d="M533.7,752.41a26.56,26.56,0,0,0-3.51-6.63,25.48,25.48,0,0,1-16.55,26.9l-50,17.9c-7.46,2.66-15.73-.85-19.94-8l3.31,9.26c3.33,9.33,13,14.41,21.53,11.35l50-17.89C531.73,780.61,538.52,765.88,533.7,752.41Z"/><path class="cls-27" d="M518.49,785.32l-50,17.9c-8.56,3.06-18.2-2-21.54-11.35l-4.36-12.19a11.13,11.13,0,0,1-.62-4.41,10.54,10.54,0,0,0-1.14,9.57L445.15,797c3.33,9.33,13,14.41,21.53,11.35l50-17.89a25.22,25.22,0,0,0,16-18.23A25,25,0,0,1,518.49,785.32Z"/><path class="cls-28" d="M507.9,645.76a36.38,36.38,0,0,0-67.24-15.5l-47.89-2.13s10.07,89.81,14.71,90.58,37.94-11.61,37.94-11.61-5.42,67.35,0,67.35,40.26-7,51.87-25.55c6.67-10.66,10.52-51.16,9.82-81.54a106.09,106.09,0,0,1,.75-14.14A36.42,36.42,0,0,0,507.9,645.76Z"/><path class="cls-29" d="M462.71,770.32c-5.42,0,4.64-85.93,4.64-85.93s-42.83,11.87-47.48,11.09c-3.07-.51-8.52-40-11.85-66.67l-15.25-.68s10.07,89.81,14.71,90.58,37.94-11.61,37.94-11.61-5.42,67.35,0,67.35S467.22,770.32,462.71,770.32Z"/><circle class="cls-22" cx="455.43" cy="522.77" r="25.43"/><path class="cls-30" d="M474.8,506.3a25.43,25.43,0,0,1-40.41,30.75A25.43,25.43,0,1,0,474.8,506.3Z"/><circle class="cls-22" cx="466.74" cy="542.39" r="8.98"/><path class="cls-30" d="M471.09,534.54a9,9,0,0,1-9.86,14.94,9,9,0,1,0,9.86-14.94Z"/><path class="cls-31" d="M218.2,512.63c-6.82,4.41-15.65,12.42-24,26.85-17,29.42-27.87,111.87-14.32,161.42S307.23,757,356,755.1c21.7-.86,33.36-6.78,39.62-13.08,12.46-.77,31.09-13,37.48-17.45a4.93,4.93,0,0,0,2.12-4.31c-4.45-84-20.51-151.61-51.22-184.39-2.45-16.52-6.8-25.3-8.11-26.59a4.21,4.21,0,0,0-3.78-1.11c-78.84,15.88-99.51-6.9-104.85-18.26a10.17,10.17,0,0,0-10-5.84,117.68,117.68,0,0,0-12,1.61c-15.1,2.71-15.1,21.67-15.1,21.67S225.27,508.06,218.2,512.63Z"/><path class="cls-32" d="M429.85,510.34l-58.66,23.2c.12,20-.11,46.22-.38,68.44,32.49-14.78,78.92-51.73,78.92-51.73Z"/><circle class="cls-22" cx="526.65" cy="580.9" r="25.43"/><path class="cls-33" d="M525.65,554.57a25.4,25.4,0,0,0-15.85,5.31,9,9,0,1,0,15.85-5.31Z"/><circle class="cls-22" cx="518.37" cy="559.81" r="8.98"/><path class="cls-34" d="M542.52,561a25,25,0,0,0-3-2.08l.19.15A25.43,25.43,0,0,1,511,600.91,25.43,25.43,0,0,0,542.52,561Z"/><path class="cls-31" d="M503.74,570.94l-69.36,27.43c-24.34-65.52-50.84-58.79-51.31-58.66h0a31.23,31.23,0,0,0-31.22,31.23c0,.72,0,1.43.08,2.13l-.08.09c8.61,74.84,34.06,93.42,34.06,93.42s1.21,11.36,31.14,10.84,108.39-63,108.39-63Z"/><path class="cls-35" d="M435.15,601.85l69.15-27.34-1.59-3.19-68.82,27.22C434.31,599.62,434.73,600.72,435.15,601.85Z"/><path class="cls-36" d="M386,667c-.06-.25-.08-.39-.08-.39s-.23-.17-.65-.53C385.45,666.34,385.69,666.65,386,667Z"/><path class="cls-36" d="M373.19,650c-7.68-13.73-16.84-37.51-21.36-76.8l.08-.09c0-.7-.08-1.41-.08-2.13a31.23,31.23,0,0,1,31.22-31.23h0c.38-.1,17.55-4.46,36.9,27.78-20.08-35.62-38.32-31-38.71-30.88h0A31.23,31.23,0,0,0,350,567.84c0,.72,0,1.43.08,2.14l-.08.08C354.9,612.49,365.19,636.83,373.19,650Z"/><path class="cls-37" d="M417.82,655.85c-1.37.15-2.76.25-4.16.3-8.55.29-17.44-1.86-24-7.37-3.41-2.87-6-6.5-8.63-10.09A105.55,105.55,0,0,1,373.81,628a149.88,149.88,0,0,1-12.67-31.8c-1.78-6.25-3.28-12.58-4.55-19q-1.06-5.38-1.94-10.82c-.3-1.93-.6-3.86-.87-5.79-.18-1.25-1.34-5-.8-6a31.14,31.14,0,0,0-3,13.26c0,.72,0,1.43.08,2.14l-.08.08c1.93,16.82,5,33.6,10,49.76a138.64,138.64,0,0,0,12.4,28.94c3.57,6,8.12,11.43,12.7,16.75,7.5,8.71,19.37,9,30.06,8.81,29.93-.51,108.38-63,108.38-63l-6-12q-14,10.68-28.56,20.7A419.33,419.33,0,0,1,452.54,643C441.56,648.94,430.31,654.46,417.82,655.85Z"/><path class="cls-37" d="M309.19,590.92a39.81,39.81,0,0,0-5.25-5.87,53.72,53.72,0,0,0-5.65-4.56A55.08,55.08,0,0,0,286.22,574c-4.2-1.61-8.72-2.14-13.23-2.7a46.51,46.51,0,0,0-6.84-.6,67.94,67.94,0,0,0-7.17.51,33.22,33.22,0,0,1-7,.07,20.45,20.45,0,0,1-6.47-1.8c-4.12-1.87-7.49-6.21-11.41-8.75a17.68,17.68,0,0,0-6.27-2.47,40.6,40.6,0,0,0-6.75-.88,37,37,0,0,0-7.14.39,28.88,28.88,0,0,0-7.68,2.2l-.57,1.9a28.79,28.79,0,0,0,5.19,6.08,37,37,0,0,0,5.74,4.26,40.59,40.59,0,0,0,6.11,3,17.73,17.73,0,0,0,6.6,1.4c4.67,0,9.88-1.72,14.34-1a20.63,20.63,0,0,1,6.39,2.07,32.91,32.91,0,0,1,5.83,4c1.89,1.52,3.75,3.1,5.71,4.38a46.5,46.5,0,0,0,6,3.27c4.07,2,8.13,4.07,12.52,5a55,55,0,0,0,13.66,1.23,53.5,53.5,0,0,0,7.23-.69,38.94,38.94,0,0,0,7.62-2Z"/><circle class="cls-38" cx="131.58" cy="855.54" r="18.32"/><path class="cls-39" d="M145.09,843.19a18.3,18.3,0,0,1-28.95,22.19,18.31,18.31,0,1,0,29-22.19Z"/><polygon class="cls-40" points="145.96 834.29 168.46 823.07 171.5 850.1 145.79 862.92 145.96 834.29"/><polygon class="cls-10" points="147.97 834.93 105.36 826.91 97.16 853.72 145.85 862.89 147.97 834.93"/><circle class="cls-38" cx="267.36" cy="902.71" r="20.65"/><path class="cls-41" d="M278.65,885.43a20.63,20.63,0,0,1-25.28,32.43,20.63,20.63,0,1,0,25.28-32.43Z"/><polygon class="cls-10" points="281.46 876.47 238.85 868.45 230.65 895.26 279.34 904.43 281.46 876.47"/><polygon class="cls-42" points="279.33 875.96 301.83 864.73 304.87 891.77 279.15 904.59 279.33 875.96"/><circle class="cls-38" cx="384.12" cy="831.51" r="18.32"/><path class="cls-43" d="M389.74,814.07A18.32,18.32,0,0,1,375,847.4a18.32,18.32,0,1,0,14.72-33.33Z"/><polygon class="cls-10" points="391.2 815 348.6 806.98 340.4 833.79 389.09 842.96 391.2 815"/><polygon class="cls-42" points="388.94 814.36 411.44 803.14 414.48 830.17 388.77 843 388.94 814.36"/><g class="cls-44"><polygon class="cls-45" points="411.48 803.49 411.44 803.14 388.94 814.36 388.94 814.58 348.6 806.98 340.4 833.79 363.16 838.08 411.48 807.1 411.48 803.49"/><polygon class="cls-45" points="301.83 864.73 279.33 875.96 279.33 876.07 238.85 868.45 236.27 876.89 279.87 891.48 279.87 891.48 279.88 891.48 280.39 891.14 303.16 876.55 301.83 864.73"/><polygon class="cls-45" points="171.5 850.1 168.46 823.07 145.96 834.29 145.96 834.55 105.36 826.91 104.13 830.93 104.13 832.64 165.38 853.15 171.5 850.1"/></g><polygon class="cls-46" points="280.52 646.71 104.77 587.87 104.77 828.64 280.52 887.48 280.52 646.71"/><path class="cls-47" d="M412.13,745,307.61,800.82V637.42h0L131.87,578.58h0l-27.08,9.29s0,0,0,0l175.72,58.83h0V887.48h0l.51-.34,131.1-84Z"/><path class="cls-48" d="M225.47,582.81c-21.11-21.57-48.6-14.53-60.93-9.72-4.13-6.84-12.49-14.71-29.33-16.75-5.08,13.72-3.34,22.24-3.34,22.24l175.74,58.84.15,163.37s26.08,12.56,38.69-10.48C370.16,793,384.34,776.51,390,768c24.69,1.11,31.23-7.23,32.33-13.85,10.45-.76,14.26-7.34,14.26-7.34,0-20.13-20.17-28.62-20.17-28.62l-63.17,40c1.82-9.17-.37-17.57-3.35-24.05,9.64-28.55,3.07-45.33-2.68-53.56,9.09-13,5.95-25.82,2.15-33.82,10.35-16.21,5.76-38.77,5.76-38.77s-6.58,2.33-18.58-3.07c-19.36-9.8-42.14-6.55-51.63-4.52-22-16.62-49.81-4.65-49.81-4.65A65.26,65.26,0,0,0,225.47,582.81Z"/><path class="cls-31" d="M430.06,679.55c-11.63,20.86-27.6,20.69-47.38,36.35q-8.93,7.54-17.62,15.1a71.19,71.19,0,0,1-5.63,23.91c19.51-1.32,30.27-6.93,36.19-12.89,12.46-.77,31.09-13,37.48-17.45a4.93,4.93,0,0,0,2.12-4.31C434.13,699.65,432.6,697.92,430.06,679.55Z"/><path class="cls-23" d="M337.31,423c2.16,2.6,16.77,14.52,19.22,33.67a3.66,3.66,0,0,1-1.58,3.52L333.2,474.45l15,6a3,3,0,0,1,.86,5l-1.07,1a3,3,0,0,0,.48,4.82h0a3,3,0,0,1,.34,4.93l-.77.62a3,3,0,0,0,.12,4.78l1.31,1a3,3,0,0,1,.66,4.19L345,513.94s-15.15,19.59-17.39,19.47-63.67-17-69.19-46.57c-1.6-11.94,2.39-23.93,13.49-29.72Z"/><path class="cls-49" d="M372.62,418.88a9,9,0,0,0-15.18-6.6,8.91,8.91,0,0,0,.34-2.43,9,9,0,0,0-16.18-5.51,9,9,0,0,0-16.29-4.88A9,9,0,0,0,311.62,397a9,9,0,0,0-14.46,4.23,9,9,0,0,0-16.28,5.38,8,8,0,0,0,.06,1,9,9,0,0,0-13.13,8,9.28,9.28,0,0,0,.36,2.54,9.06,9.06,0,0,0-4.77,5.07,9,9,0,0,0-7.7,12.3,9,9,0,0,0-2.23,17.27,9,9,0,0,0-.5,14.22,9,9,0,0,0,12.46,11.85c18.32-4.83,89.24-25.1,103.63-52.85A9,9,0,0,0,372.62,418.88Z"/><path class="cls-21" d="M297.16,401.25s-15.38,24.37-43.69,51.59c0,0,82.54-5.41,103.37-12.9"/><path class="cls-21" d="M311.62,397s-28.91,50.65-58.65,70c0,0,28.69,7.64,41.07,3.26l47.56-66c-42.26,16.41-73.43,13.86-73.43,13.86"/><path class="cls-21" d="M369.06,426.06s-99.46,14.18-113.36,9.51"/><path class="cls-21" d="M319.77,460.63s31.18-37,37.67-48.35c0,0-71.66,17.29-94,11"/><path class="cls-21" d="M280.94,407.62s24.9,3.95,44.37-8.16c0,0-30.06,54.1-59.88,79.45"/><circle class="cls-49" cx="284.35" cy="397.02" r="13.6"/><path class="cls-50" d="M384.08,535.87s-97.67,26.07-153.8-28.51c0,0,0-19,15.09-21.68a118.41,118.41,0,0,1,12-1.61,10.16,10.16,0,0,1,10,5.85c5.34,11.35,26,34.13,104.85,18.25a4.18,4.18,0,0,1,3.78,1.12C377.29,510.58,381.63,519.36,384.08,535.87Z"/><circle class="cls-22" cx="350.12" cy="470.51" r="11.15"/><circle class="cls-51" cx="350.12" cy="470.51" r="4.72"/></g></g></g></svg>