<svg xmlns="http://www.w3.org/2000/svg" xmlns:xlink="http://www.w3.org/1999/xlink" viewBox="0 0 1445.61 1159.22"><defs><style>.cls-1{isolation:isolate;}.cls-15,.cls-2{fill:#666;}.cls-2,.cls-3{opacity:0.25;}.cls-3{fill:url(#Degradado_sin_nombre_4);}.cls-4{fill:#e6e6e6;}.cls-5{fill:#ccc;}.cls-6{fill:#f7f7f7;}.cls-7{fill:#a57c52;}.cls-8{fill:#825d38;}.cls-9{fill:#989898;}.cls-10{fill:#826d57;}.cls-11{fill:#876749;}.cls-12{fill:#f9e8d8;}.cls-13{fill:#d9cabd;}.cls-14{fill:#999;}.cls-16{fill:#d9d9d9;}.cls-17{fill:#49208c;}.cls-18,.cls-19,.cls-20,.cls-21,.cls-22,.cls-23,.cls-24,.cls-25,.cls-36,.cls-41{fill:none;}.cls-18,.cls-21{stroke:#fff;}.cls-18,.cls-19,.cls-20,.cls-21,.cls-22,.cls-23,.cls-24,.cls-25,.cls-41,.cls-42{stroke-linecap:round;stroke-linejoin:round;stroke-width:0.74px;}.cls-19{stroke:lime;}.cls-20{stroke:blue;}.cls-21,.cls-23,.cls-25{stroke-dasharray:9.36 9.36;}.cls-22,.cls-23{stroke:red;}.cls-24,.cls-25{stroke:#ff0;}.cls-26{fill:#dae9ed;}.cls-27{fill:#00b8d9;}.cls-28{fill:#c7c7c7;}.cls-29{fill:#2573cf;}.cls-30{fill:#2062b0;}.cls-31{fill:#2b84ed;}.cls-32{fill:#1e5ca6;}.cls-33{fill:#f55111;}.cls-34,.cls-42{fill:#4d4d4d;}.cls-35{fill:#db490f;}.cls-37{fill:#333;}.cls-38{fill:#b2b2b2;}.cls-39{fill:#8f8f8f;}.cls-40{fill:#242424;}.cls-41,.cls-42{stroke:aqua;}.cls-43{fill:#474747;}.cls-44{fill:#404040;}.cls-45{fill:#3b3b3b;}.cls-46{fill:#9e928a;}.cls-47{fill:#91867f;}.cls-48{fill:#8c7866;}.cls-49{opacity:0.71;}.cls-50{fill:#fff;}.cls-51{mix-blend-mode:multiply;}.cls-52{fill:#827872;}.cls-53{fill:#dbdbdb;}.cls-54{fill:#dedede;}.cls-55{fill:#b5b5b5;}.cls-56{fill:#d4d4d4;}.cls-57{fill:#42210b;}</style><linearGradient id="Degradado_sin_nombre_4" x1="967.24" y1="976.79" x2="236.13" y2="294.95" gradientUnits="userSpaceOnUse"><stop offset="0" stop-color="#00b8d9"/><stop offset="1" stop-color="#fdff15"/></linearGradient></defs><g class="cls-1"><g id="Capa_2" data-name="Capa 2"><g id="Silla"><polyline class="cls-2" points="201.22 637.27 414.16 1159.22 1149.8 821.24 943.51 648.05 602.37 495.31 485.31 428.74 347.59 511.37 201.22 637.27"/><polygon class="cls-3" points="1445.61 724.37 967.47 0 349.3 63.97 0 517.92 115.24 1159.22 958.75 785.85 1062.72 1075.65 1445.61 724.37"/><rect class="cls-4" x="643.41" y="227.14" width="7.61" height="335.63"/><polygon class="cls-5" points="651.03 227.14 651.03 562.77 654.56 559.64 654.56 224.01 651.03 227.14"/><polygon class="cls-6" points="822.14 312.2 643.4 312.2 697.82 288.06 876.55 288.06 822.14 312.2"/><polygon class="cls-6" points="822.13 397.27 643.39 397.27 697.81 373.12 876.54 373.12 822.13 397.27"/><polygon class="cls-6" points="822.12 482.33 643.38 482.33 697.8 458.18 876.53 458.18 822.12 482.33"/><rect class="cls-4" x="814.54" y="227.14" width="7.61" height="335.63"/><polygon class="cls-5" points="822.15 227.14 822.15 562.77 825.68 559.64 825.68 224.01 822.15 227.14"/><rect class="cls-4" x="692.86" y="206.08" width="7.61" height="335.63"/><polygon class="cls-5" points="700.47 206.09 700.47 541.71 704 538.58 704 202.96 700.47 206.09"/><rect class="cls-4" x="865.4" y="206.08" width="7.61" height="335.63"/><polygon class="cls-6" points="822.15 227.14 643.41 227.14 697.83 203 876.57 203 822.15 227.14"/><polygon class="cls-4" points="822.13 227.24 643.41 227.14 643.39 230.66 822.13 230.66 876.54 206.51 876.54 202.96 822.13 227.24"/><polygon class="cls-4" points="822.12 312.3 643.4 312.2 643.38 315.72 822.12 315.72 876.53 291.57 876.53 288.02 822.12 312.3"/><polygon class="cls-4" points="822.1 397.37 643.39 397.27 643.37 400.78 822.1 400.78 876.52 376.63 876.52 373.08 822.1 397.37"/><polygon class="cls-4" points="822.09 482.43 643.38 482.33 643.36 485.84 822.09 485.84 876.51 461.7 876.51 458.15 822.09 482.43"/><polygon class="cls-5" points="873.01 206.09 873.01 541.71 876.54 538.58 876.54 202.96 873.01 206.09"/><polyline class="cls-7" points="389.27 536.57 389.27 710.63 201.22 637.27 201.22 471.65 389.27 536.57"/><polygon class="cls-8" points="389.27 710.63 394.75 707.78 395.44 525.01 389.27 526.55 389.27 710.63"/><polygon class="cls-8" points="439.17 492.53 563.42 415.95 562.34 414.1 439.17 490.53 439.17 492.53"/><polygon class="cls-8" points="424.61 486.39 439.17 492.53 439.17 490.53 424.16 483.86 424.61 486.39"/><polygon class="cls-9" points="424.15 483.85 439.17 490.53 439.17 488.53 423.68 481.31 424.15 483.85"/><path class="cls-7" d="M559.7,413.25c.77,0,3.72.43,3.72.43L439.16,490.53l-2.25-1Z"/><path class="cls-10" d="M418.79,479.3l20,9.05L563.42,411.8s-55.88-18.73-55.54-18.37-92.24,59.12-92.24,59.12Z"/><path class="cls-11" d="M436.39,487.24s17.95-60.47,95.3-56.6-21.83-24.73-21.83-24.73l-97.95,41.47-.79,38.34Z"/><g id="MANO"><ellipse class="cls-12" cx="500.8" cy="436.15" rx="4.99" ry="4.65" transform="translate(-128.82 224.94) rotate(-22.51)"/><path class="cls-13" d="M505.41,434.24a4.83,4.83,0,0,0-6.39-2.39l-.31.15a4.64,4.64,0,1,1,3.55,8.57l.32-.12A4.84,4.84,0,0,0,505.41,434.24Z"/><ellipse class="cls-12" cx="487.58" cy="445.1" rx="16.84" ry="15.7" transform="translate(-133.25 220.57) rotate(-22.51)"/><path class="cls-13" d="M503.14,438.65c-3.32-8-13-11.61-21.57-8l-.58.26c8.52-3.36,18,.24,21.26,8.16s-.76,17-9,20.69l.3-.11C502.18,456,506.46,446.66,503.14,438.65Z"/></g><path class="cls-7" d="M187.14,470.49l296-134.35L671,395.73s-21.73,64.5-145.82,27.34c0,0-84.83-17.52-89,61.7,0,0-4.91,38.55-56.79,48.37-33.82-8.12-181.84-58.65-192.22-62.2A.24.24,0,0,1,187.14,470.49Z"/><path class="cls-8" d="M671,395.79c-7.81,19.89-43.65,57.86-145.9,27.24,0,0-84.83-17.53-89,61.69,0,0-4.9,38.56-56.78,48.38-30.45-7.31-160.77-51.49-192.16-62.24a.09.09,0,0,0-.12.08v5.52a.22.22,0,0,0,.15.21c5.34,1.83,157.79,54,192.23,62.27,51.88-9.81,56.79-48.37,56.79-48.37,4.2-79.22,89-61.69,89-61.69C649.28,466,671,401.53,671,401.53l.13-5.7A.08.08,0,0,0,671,395.79Z"/><polygon class="cls-14" points="569.75 378.92 541.83 381.34 514.46 389.82 513.98 387.38 541.35 378.9 569.27 376.48 569.75 378.92"/><rect class="cls-15" x="539.38" y="367.85" width="3.98" height="12.11" rx="1.51"/><path class="cls-16" d="M637.58,359l-33.45,3A663.24,663.24,0,0,0,490,382.79l-43.42,11.76-.4-106.74,43.07-10.06a653.71,653.71,0,0,1,113.3-16.48l33.21-1.79Z"/><path class="cls-15" d="M633,357.71l-31.83,2.84a631.12,631.12,0,0,0-108.66,19.77l-41.33,11.19-.38-101.59,41-9.58a621.07,621.07,0,0,1,107.83-15.68l31.61-1.7Z"/><path class="cls-14" d="M446.31,288l43.07-10.06a653.71,653.71,0,0,1,113.3-16.48l33.05-1.95-4.42-3.28L598.1,258a653.71,653.71,0,0,0-113.3,16.48l-43.07,10.06.4,106.74,4.42,3.28Z"/><path class="cls-17" d="M450.84,289.92l32.77-7.26A627.74,627.74,0,0,1,598.31,265L631.77,263l-.62,10.85-33,1.95a652.75,652.75,0,0,0-113.3,16.48l-34,7Z"/><path class="cls-18" d="M456.63,309.36l29.12-6a653.58,653.58,0,0,1,113.3-16.48l25.68-1.51"/><path class="cls-18" d="M455.32,345.85l29.13-6a652.61,652.61,0,0,1,113.3-16.48l25.68-1.52"/><path class="cls-19" d="M455.32,349.39l29.13-6a652.61,652.61,0,0,1,113.3-16.48l25.68-1.52"/><path class="cls-18" d="M455.32,353.71l29.13-6a653.58,653.58,0,0,1,113.3-16.48l25.68-1.51"/><path class="cls-20" d="M455.32,358l29.13-6a651.66,651.66,0,0,1,113.3-16.48L623.43,334"/><path class="cls-19" d="M455.32,362.33l29.13-6a652.61,652.61,0,0,1,113.3-16.48l25.68-1.51"/><path class="cls-18" d="M534.47,349.62q28.35-4.11,55.91-5.59l33-1.95"/><path class="cls-18" d="M534.47,353.53q28.35-4.11,55.91-5.59l33-1.95"/><path class="cls-18" d="M534.47,357.48q28.35-4.11,55.91-5.59l33-1.95"/><line class="cls-18" x1="456.63" y1="315.55" x2="460.98" y2="314.65"/><path class="cls-21" d="M470.14,312.75l20.45-4.23Q515,302.82,539,299"/><path class="cls-18" d="M543.58,298.29c1.46-.23,2.93-.44,4.39-.66"/><line class="cls-18" x1="456.63" y1="321.64" x2="460.98" y2="320.74"/><path class="cls-21" d="M470.14,318.85l20.45-4.23Q515,308.92,539,305.1"/><path class="cls-18" d="M543.58,304.39c1.46-.23,2.93-.45,4.39-.66"/><line class="cls-22" x1="456.63" y1="327.74" x2="460.98" y2="326.84"/><path class="cls-23" d="M470.14,325l20.45-4.23Q515,315,539,311.2"/><path class="cls-22" d="M543.58,310.48l4.39-.65"/><line class="cls-24" x1="456.63" y1="333.84" x2="460.98" y2="332.94"/><path class="cls-25" d="M470.14,331.05l20.45-4.24Q515,321.11,539,317.3"/><path class="cls-24" d="M543.58,316.58l4.39-.65"/><ellipse class="cls-14" cx="388.48" cy="430.69" rx="19.7" ry="10.29" transform="translate(-186.18 352.15) rotate(-40.17)"/><path class="cls-15" d="M395.11,438.55c-8.31,7-18,9.18-21.68,4.84a5.67,5.67,0,0,1-1.22-2.51,6.4,6.4,0,0,0,1.4,4.26c3.66,4.35,13.37,2.18,21.69-4.84,6.94-5.86,10.71-13.25,9.63-18.05C404.92,427,401.26,433.36,395.11,438.55Z"/><rect class="cls-15" x="384.33" y="420.44" width="8.3" height="13.07" rx="4.15" transform="translate(-18.31 17.41) rotate(-2.51)"/><path class="cls-26" d="M439,386.55,418.8,401.81c-22.3,16.89-45.39,37.46-69,61.63l-26.34,26.93,2.05-96.27,26.1-25.27C375,346.15,397.89,327,420,311.4l20-14.09Z"/><path class="cls-27" d="M388,390.16a2,2,0,0,1-.81,1.61l-8.55,6.47a291.28,291.28,0,0,0-32,28.6l-8.61,8.8a2,2,0,0,1-3.5-1.48l.82-38.65a2.08,2.08,0,0,1,.62-1.43l11.51-11.14A269.61,269.61,0,0,1,379.2,356.3l6-4.24a2,2,0,0,1,3.22,1.7Z"/><path class="cls-28" d="M424.69,340.5l-4,3.05a125.1,125.1,0,0,0-13.78,12.31l-5.26,5.37L402,342l5.21-5A116,116,0,0,1,420.9,325.5l4-2.81Z"/><path class="cls-28" d="M424.69,364.49l-4,3.05a125.1,125.1,0,0,0-13.78,12.31l-5.26,5.37L402,366l5.21-5a116,116,0,0,1,13.66-11.47l4-2.81Z"/><path class="cls-28" d="M424.69,388.48l-4,3a125.1,125.1,0,0,0-13.78,12.31l-5.26,5.37L402,390l5.21-5a116,116,0,0,1,13.66-11.47l4-2.81Z"/><path class="cls-14" d="M325.56,394.18l26.1-25.26c23.43-22.69,46.32-41.86,68.43-57.43L440,297.31,437.4,296l-20,14.09c-22.11,15.57-45,34.74-68.43,57.43l-26.1,25.26-2.05,96.28,2.59,1.3Z"/><polygon class="cls-29" points="817.44 662 817.44 710.9 943.51 648.05 943.51 603.93 817.44 662"/><polygon class="cls-30" points="817.44 710.9 816.13 708.86 816.13 662.26 817.44 662 817.44 710.9"/><polygon class="cls-29" points="754.14 642.93 754.14 691.83 838.97 659.15 838.97 595.79 754.14 642.93"/><polygon class="cls-30" points="754.14 691.83 752.85 690.41 752.85 643.81 754.14 642.93 754.14 691.83"/><path class="cls-31" d="M958.75,613.87,857.62,663.33c-29.29,14.32-75.15,12.69-102.43-3.65h0a22.23,22.23,0,0,1,1.66-39l117.38-57.41Z"/><path class="cls-30" d="M857.62,663.37c-29.29,14.32-75.15,12.69-102.43-3.65h0A21.89,21.89,0,0,1,744.51,643c.84,8.85,2.67,16.58,10.68,21.38h0c27.28,16.34,73.14,18,102.43,3.64l101.13-49.46v-4.64Z"/><path class="cls-32" d="M755.19,664.33h0c-.36-.22-.71-.45-1.05-.68v1.64a19.93,19.93,0,0,0,4.21,3.34h0a93.53,93.53,0,0,0,28.39,10.64l6.79-2.62C779.32,674.83,765.84,670.7,755.19,664.33Z"/><path class="cls-32" d="M817.44,677.54v3.29c15.48-.5,30.65-3.69,42.91-9.68l83.16-40.67V626l-85.89,42C846.08,673.62,832,676.77,817.44,677.54Z"/><path class="cls-33" d="M816.13,642.77h0V588h-41.9v54.8h0c0,2.92,9.38,5.28,21,5.28s21-2.36,21-5.28Z"/><polygon class="cls-34" points="816.13 641.49 816.13 641.49 816.13 641.49 816.13 641.49"/><path class="cls-34" d="M816.13,643.69v-2.2c0,2.92-9.38,5.28-21,5.28s-20.92-2.36-20.95-5.26v2.19c0,2.91,9.38,5.27,21,5.27s21-2.36,21-5.27Z"/><ellipse class="cls-35" cx="795.18" cy="588.24" rx="20.95" ry="5.28"/><path class="cls-33" d="M809.12,587.46h0l-5.69-20.76-17.28.19-5.6,20.94a.73.73,0,0,0-.13.44c0,1.7,6.49,2.94,14.43,2.77s14.33-1.68,14.3-3.38A.71.71,0,0,0,809.12,587.46Z"/><ellipse class="cls-36" cx="794.79" cy="566.7" rx="8.65" ry="2.46"/><ellipse class="cls-37" cx="794.79" cy="565.23" rx="8.65" ry="2.46"/><path class="cls-34" d="M794.79,567.73c-3.9,0-7.57-1.49-8.65-2.5v1.47c0,1.36,3.87,2.46,8.65,2.46s8.65-1.1,8.65-2.46a8.18,8.18,0,0,0,0-1.49C802.36,566.22,798.69,567.73,794.79,567.73Z"/><path class="cls-38" d="M537.8,626.62a13.16,13.16,0,0,0,0-4.64l-1.24-8.67a6.28,6.28,0,0,0-7.12-5.33l-31.75,4.6c-9.24-1.42-5.69-.78-6.94-.93a17.22,17.22,0,0,0-18.53,11.85,17,17,0,0,0,12,21.52,14.86,14.86,0,0,0,6.95.74l33.83-6.8A14.89,14.89,0,0,0,537.8,626.62Z"/><path class="cls-39" d="M474.69,627.23a17.22,17.22,0,0,1,18.53-11.85c1.25.15-2.3-.49,6.93.93l31.76-4.6a6.27,6.27,0,0,1,4.59,1.14,6.28,6.28,0,0,0-7-4.87l-31.75,4.6c-9.24-1.42-5.69-.78-6.94-.93a17.22,17.22,0,0,0-18.53,11.85,17,17,0,0,0,3.37,16.14A16.93,16.93,0,0,1,474.69,627.23Z"/><path class="cls-14" d="M572,520.42s-63.73,38-56,58.11c2.09,9.6,44,17.65,66,17.65"/><path class="cls-37" d="M610.38,513.75a29.56,29.56,0,0,0-7.46,1l-2-15.83c-69.11-7.42-106.11,3.34-116.58,7.15a29.38,29.38,0,0,0-2.91,1.16l-.23.1a29.67,29.67,0,0,0-17.09,26.87c0,4.32,8.31,53.05,26.74,80.76a23.13,23.13,0,0,0,43-10.48h0c0-.44,0-.88,0-1.33a23.64,23.64,0,0,0-.38-4.15c-.52-7.43-1.66-21.39-3.78-35.44,13.95,5.23,38.92,10.84,80.69,9.59a29.68,29.68,0,0,0,0-59.35Z"/><path class="cls-40" d="M592.2,507.53a29.56,29.56,0,0,1,7.46-.95c.75,0,1.49,0,2.23.09l-1-7.8q-5.07-.54-9.92-1Z"/><path class="cls-40" d="M621.11,515.76a29.66,29.66,0,0,1-21.45,50.16c-41.76,1.26-66.74-4.35-80.69-9.58,2.12,14,3.27,28,3.78,35.43a23.75,23.75,0,0,1,.38,4.16c0,.45,0,.89,0,1.33h0A23.1,23.1,0,0,1,493,618a23.12,23.12,0,0,0,40.8-13.55h0c0-.44,0-.88,0-1.33a23.64,23.64,0,0,0-.38-4.15c-.52-7.43-1.66-21.39-3.78-35.44,13.95,5.23,38.92,10.84,80.69,9.59a29.67,29.67,0,0,0,10.73-57.34Z"/><path class="cls-41" d="M541.35,509.43a17.19,17.19,0,0,1-3.39,4.32C539.13,512.3,540.25,510.86,541.35,509.43Z"/><path class="cls-42" d="M574.09,436.72a24,24,0,0,1-.27,3.62C574,439.08,574,437.88,574.09,436.72Z"/><path class="cls-43" d="M683.5,389.64a25.5,25.5,0,0,0-9.33-19.32v0a25.49,25.49,0,0,0-5.53-3.53c3.81,12.86,6.61,30.14,7.46,53.26a95.28,95.28,0,0,0,7.13-26.77C683.36,392,683.45,390.8,683.5,389.64Z"/><path class="cls-34" d="M536.41,412.1c15.05-14.75,52.87-44.62,118.25-52.11a19,19,0,0,1,20.76,15.41c6.1,32.8,6.63,86-6.34,171.54a14.23,14.23,0,0,1-7.45,10.53c-21.66,11.27-68.36,16.35-101.58,11.24a13.8,13.8,0,0,1-11-9.33c-9.18-27.86-16.5-67.51-19.75-128.95A23.94,23.94,0,0,1,536.41,412.1Z"/><path class="cls-34" d="M509.6,509.85c-8.41-9.76-20.68-25.65-27-41.61a4.27,4.27,0,0,1,1.52-5.07c9.36-6.57,21.42-17.35,24-21.19a.61.61,0,0,1,1.05,0c2.49,4.17,8.12,14.32,9.86,17.47a8.63,8.63,0,0,1,.8,2l8.72,32.8a8.78,8.78,0,0,1-.61,6.13L524.1,508A8.76,8.76,0,0,1,509.6,509.85Z"/><path class="cls-44" d="M528.66,494.26l-8.72-32.8a8.21,8.21,0,0,0-.8-2c-1.74-3.15-7.37-13.3-9.85-17.47a.62.62,0,0,0-1.06,0c-2.54,3.84-14.6,14.62-24,21.19a4.32,4.32,0,0,0-1.74,2.74c9.23-6.61,20.65-16.86,23.11-20.59a.62.62,0,0,1,1.06,0c2.48,4.18,6.88,15,8.62,18.12.35.63-5.3,31.21-5.11,31.9l15.86,2.24a8.78,8.78,0,0,1-.61,6.13L521.88,511a8.76,8.76,0,0,0,2.41-3l3.76-7.63A8.78,8.78,0,0,0,528.66,494.26Z"/><path class="cls-45" d="M564.28,426.78v0A25.17,25.17,0,0,0,548,420.84a23.84,23.84,0,0,0-2.41.13,25.2,25.2,0,0,1,12.36,5.6v0a25.51,25.51,0,0,1,9.33,19.32c-.06,1.15-.14,2.36-.27,3.61-1.5,15-8.59,37.24-30.71,66.77q.55,3.5,1.14,6.85v0c1.16-1.45,2.29-2.9,3.38-4.32h0c23.51-30.68,30.93-53.73,32.46-69.08.13-1.26.22-2.47.27-3.62A25.46,25.46,0,0,0,564.28,426.78Z"/><path class="cls-34" d="M574.09,436.72c-.06,1.16-.14,2.36-.27,3.62-1.54,15.36-9,38.4-32.47,69.08h0c-1.1,1.43-2.22,2.87-3.39,4.32,0,0,0,0,0,0h0A17.41,17.41,0,0,1,526,518.46q-.45,0-.9,0c-11.1-.56-20.5-9.34-16.69-19.79,6.53-17.86,12-51,15-64.81a25,25,0,0,1,1.59-6.37,0,0,0,0,1,0,0,25.69,25.69,0,0,1,4.39-7.24,25.29,25.29,0,0,1,35.35-2.81v0A25.53,25.53,0,0,1,574.09,436.72Z"/><path class="cls-34" d="M557.84,394.64l3.36-21.52s46.8-25.34,75.12-24.88c0,11.64,1.55,14.26,1.55,14.26S595.81,369.82,557.84,394.64Z"/><path class="cls-43" d="M669.79,402.56a48.92,48.92,0,0,0-6.74.76c-2.19.38-4.33.86-6.44,1.41s-4.18,1.16-6.23,1.86-4.06,1.42-6,2.26a94.43,94.43,0,0,0-11.37,6c-1.86,1.09-3.73,2.15-5.51,3.4s-3.52,2.6-5.26,3.94a40.59,40.59,0,0,1-11.14,6.52c-4,1.53-8.61,1.82-12.79,3a30.66,30.66,0,0,0-5.95,2.45c-1.9,1-3.76,2.08-5.57,3.26a57.18,57.18,0,0,0-5.28,3.88,36.58,36.58,0,0,0-4.85,4.8l.44.95a34.86,34.86,0,0,0,6.8-.65,57.32,57.32,0,0,0,6.36-1.56c2.07-.63,4.09-1.37,6.07-2.19a29.84,29.84,0,0,0,5.7-3c3.59-2.43,6.76-5.78,10.5-7.88a41,41,0,0,1,12.15-4.38c2.15-.47,4.31-.91,6.4-1.5s4.11-1.33,6.13-2.05A95.39,95.39,0,0,0,649.1,419q2.86-1.47,5.61-3.19c1.84-1.12,3.65-2.32,5.42-3.58s3.51-2.6,5.21-4a50.12,50.12,0,0,0,4.9-4.69Z"/><path class="cls-44" d="M669.79,402.56c-.68,0-1.35.07-2,.13a52.11,52.11,0,0,1-4.41,4.17c-1.7,1.44-3.44,2.77-5.21,4s-3.58,2.46-5.42,3.59-3.7,2.2-5.61,3.18a93.9,93.9,0,0,1-11.92,4.86c-2,.73-4,1.48-6.13,2.06s-4.25,1-6.4,1.5a40.74,40.74,0,0,0-12.15,4.37c-3.74,2.1-6.91,5.45-10.5,7.89a29.8,29.8,0,0,1-5.7,3c-2,.82-4,1.56-6.07,2.19a57.34,57.34,0,0,1-6.36,1.57,42.52,42.52,0,0,1-4.88.6c-.13.15-.26.29-.38.44l.44.95a34.86,34.86,0,0,0,6.8-.65,57.32,57.32,0,0,0,6.36-1.56c2.07-.63,4.09-1.37,6.07-2.19a29.84,29.84,0,0,0,5.7-3c3.59-2.43,6.76-5.78,10.5-7.88a41,41,0,0,1,12.15-4.38c2.15-.47,4.31-.91,6.4-1.5s4.11-1.33,6.13-2.05A95.39,95.39,0,0,0,649.1,419q2.86-1.47,5.61-3.19c1.84-1.12,3.65-2.32,5.42-3.58s3.51-2.6,5.21-4a50.12,50.12,0,0,0,4.9-4.69Z"/><path class="cls-43" d="M663.9,513.75a36.17,36.17,0,0,0-5,.56c-1.61.28-3.19.63-4.74,1s-3.08.85-4.59,1.36-3,1-4.44,1.67a71.32,71.32,0,0,0-8.37,4.44c-1.37.81-2.75,1.59-4.06,2.5s-2.58,1.92-3.86,2.91a30.67,30.67,0,0,1-8.21,4.8c-2.95,1.12-6.34,1.33-9.41,2.21a21.27,21.27,0,0,0-4.38,1.81c-1.4.73-2.77,1.52-4.1,2.39a42.18,42.18,0,0,0-3.89,2.86,26.41,26.41,0,0,0-3.57,3.53l.32.7a26.21,26.21,0,0,0,5-.47,44.4,44.4,0,0,0,4.68-1.15c1.53-.47,3-1,4.47-1.62a21.75,21.75,0,0,0,4.19-2.2c2.65-1.8,5-4.26,7.74-5.81a30.23,30.23,0,0,1,8.94-3.22c1.58-.35,3.17-.67,4.71-1.1s3-1,4.51-1.52a69.26,69.26,0,0,0,8.78-3.57c1.4-.72,2.78-1.51,4.13-2.35s2.68-1.71,4-2.64,2.58-1.91,3.83-3a34.46,34.46,0,0,0,3.61-3.46Z"/><path class="cls-44" d="M663.9,513.75l-.58,0,0,.09a37.78,37.78,0,0,1-3.61,3.46q-1.87,1.57-3.83,3t-4,2.64q-2,1.26-4.13,2.34a69.31,69.31,0,0,1-8.78,3.58c-1.49.54-3,1.09-4.51,1.51s-3.13.76-4.71,1.11a30,30,0,0,0-8.94,3.22c-2.76,1.55-5.09,4-7.74,5.8a21.8,21.8,0,0,1-4.19,2.21c-1.46.6-3,1.15-4.47,1.61a42.24,42.24,0,0,1-4.69,1.15,27.32,27.32,0,0,1-4.41.47l.27.58a26.21,26.21,0,0,0,5-.47,44.4,44.4,0,0,0,4.68-1.15c1.53-.47,3-1,4.47-1.62a21.75,21.75,0,0,0,4.19-2.2c2.65-1.8,5-4.26,7.74-5.81a30.23,30.23,0,0,1,8.94-3.22c1.58-.35,3.17-.67,4.71-1.1s3-1,4.51-1.52a69.26,69.26,0,0,0,8.78-3.57c1.4-.72,2.78-1.51,4.13-2.35s2.68-1.71,4-2.64,2.58-1.91,3.83-3a34.46,34.46,0,0,0,3.61-3.46Z"/><path class="cls-43" d="M578.45,506.24a50.22,50.22,0,0,1,4.52-5.06c1.58-1.57,3.21-3,4.87-4.44s3.38-2.74,5.12-4,3.52-2.49,5.34-3.62a95.08,95.08,0,0,1,11.5-5.78c2-.89,3.91-1.8,6-2.53s4.15-1.36,6.25-2a41.28,41.28,0,0,0,11.77-5.32c3.57-2.4,6.46-6,9.85-8.69a29.5,29.5,0,0,1,5.44-3.44c1.91-1,3.87-1.87,5.88-2.66a55.93,55.93,0,0,1,6.22-2.06,35.84,35.84,0,0,1,6.72-1.19l.52.92a35.67,35.67,0,0,1-4.46,5.16,56.71,56.71,0,0,1-5,4.29c-1.72,1.32-3.49,2.54-5.3,3.69a30,30,0,0,1-5.74,2.91c-4.07,1.52-8.63,2.17-12.51,4a41,41,0,0,0-10.6,7.38c-1.62,1.47-3.23,3-4.92,4.35s-3.46,2.58-5.23,3.81a95.7,95.7,0,0,1-10.85,6.92c-1.91,1-3.86,1.89-5.85,2.73s-4,1.63-6.06,2.34-4.15,1.36-6.3,1.91a48.88,48.88,0,0,1-6.67,1.29Z"/><path class="cls-44" d="M667.89,455.45a28,28,0,0,0-2.95.37l.32.55a36.3,36.3,0,0,1-4.46,5.16,55.39,55.39,0,0,1-5,4.29c-1.71,1.32-3.48,2.54-5.3,3.69a30,30,0,0,1-5.74,2.91c-4.06,1.52-8.62,2.17-12.51,4a41.11,41.11,0,0,0-10.59,7.38c-1.63,1.47-3.24,3-4.92,4.35s-3.47,2.58-5.23,3.81a96.72,96.72,0,0,1-10.86,6.92c-1.9,1-3.85,1.89-5.84,2.73s-4,1.63-6.06,2.34-4.16,1.36-6.31,1.91c-1.23.32-2.48.6-3.76.84l.25.45a48.88,48.88,0,0,0,6.67-1.29q3.23-.83,6.3-1.91t6.06-2.34c2-.84,3.94-1.74,5.85-2.73A95.7,95.7,0,0,0,614.7,492c1.77-1.23,3.55-2.43,5.23-3.81s3.3-2.88,4.92-4.35a41,41,0,0,1,10.6-7.38c3.88-1.84,8.44-2.49,12.51-4a30,30,0,0,0,5.74-2.91c1.81-1.15,3.58-2.37,5.3-3.69a56.71,56.71,0,0,0,5-4.29,35.67,35.67,0,0,0,4.46-5.16Z"/><path class="cls-43" d="M529.66,442.58a16,16,0,0,1,4.37.57c.7.18,1.38.38,2.05.62a11,11,0,0,1,2,.87c1.25.71,2.39,1.71,3.68,2.32a15.1,15.1,0,0,0,4.1,1.24c.71.13,1.44.24,2.14.41s1.38.37,2.07.57a35.81,35.81,0,0,1,4.05,1.39,34.46,34.46,0,0,1,3.81,2,23.44,23.44,0,0,1,3.58,2.58l-.12.29a23,23,0,0,1-4.37-.56,32.09,32.09,0,0,1-4.14-1.16,33.93,33.93,0,0,1-3.9-1.75c-.64-.32-1.29-.62-1.91-1s-1.23-.77-1.84-1.16a15.17,15.17,0,0,0-3.85-1.9c-1.36-.43-2.87-.48-4.27-.82a10.28,10.28,0,0,1-2-.7,21.37,21.37,0,0,1-1.92-.95,15.81,15.81,0,0,1-3.58-2.56Z"/><path class="cls-43" d="M518.42,485.16a13.65,13.65,0,0,1,3.55.47c.56.14,1.12.31,1.66.5a9.41,9.41,0,0,1,1.59.71c1,.57,1.94,1.38,3,1.88a12.33,12.33,0,0,0,3.33,1c.58.11,1.17.2,1.74.33s1.12.31,1.68.47a28.85,28.85,0,0,1,3.28,1.13,28.24,28.24,0,0,1,3.09,1.6,19.29,19.29,0,0,1,2.91,2.1l-.1.23a19.58,19.58,0,0,1-3.55-.45,27.24,27.24,0,0,1-3.35-.94,31,31,0,0,1-3.17-1.42c-.52-.26-1-.51-1.55-.81s-1-.62-1.49-.94a12.59,12.59,0,0,0-3.12-1.54c-1.1-.35-2.33-.39-3.46-.66a9.08,9.08,0,0,1-1.64-.57c-.53-.23-1-.49-1.56-.77a13.3,13.3,0,0,1-2.91-2.08Z"/><path class="cls-43" d="M555.12,477.55a16.37,16.37,0,0,1-4.33-.81c-.69-.22-1.36-.46-2-.74a10.63,10.63,0,0,1-1.9-1c-1.21-.78-2.29-1.84-3.55-2.52a15.12,15.12,0,0,0-4-1.47c-.71-.18-1.43-.32-2.11-.53s-1.37-.45-2-.69a36.88,36.88,0,0,1-4-1.61,33,33,0,0,1-3.7-2.19,23.38,23.38,0,0,1-3.43-2.77l.14-.29a23.49,23.49,0,0,1,4.33.8,34.81,34.81,0,0,1,4.07,1.39,36,36,0,0,1,3.8,2c.62.35,1.25.69,1.84,1.09s1.19.84,1.78,1.26a14.85,14.85,0,0,0,3.73,2.11c1.33.51,2.84.65,4.22,1.06a10.69,10.69,0,0,1,2,.81c.63.32,1.26.68,1.86,1.06a16.17,16.17,0,0,1,3.44,2.76Z"/><path class="cls-46" d="M555.39,332h0s0-.07,0-.11A.65.65,0,0,1,555.39,332Z"/><path class="cls-46" d="M588.56,297.24l-.13,0,.28,0Z"/><path class="cls-47" d="M555.4,332a41.43,41.43,0,0,0,63.86,40.48C591.64,369,572,353.51,555.4,332Z"/><path class="cls-48" d="M611.09,376.71a41.17,41.17,0,0,0,8.17-4.19c-27.61-3.51-47.21-19-63.85-40.48C562.8,359.56,590.39,372.74,611.09,376.71Z"/><path class="cls-48" d="M556,346.91a41.44,41.44,0,0,0,40.46,32.48c1.28,0,2.55-.06,3.8-.18C583.83,374.64,565.3,364.58,556,346.91Z"/><path class="cls-46" d="M569.17,345.45s-13.61-.89-12.87,35.38a4.4,4.4,0,0,0,5.59,4.14c27.82-8,27.08-21.45,27.08-21.45"/><g class="cls-49"><path class="cls-50" d="M573.22,353.94a14.15,14.15,0,0,0-1.88-.6c0,.31.07.62.1.94C572,354.18,572.62,354.07,573.22,353.94Z"/><path class="cls-50" d="M574.58,356.1v0c.54-.17,1.08-.36,1.63-.55-.33-.23-.67-.45-1-.66l-.52.16c0-.17,0-.33-.08-.49-.33-.17-.66-.33-1-.48q.17,1.08.36,2.19Z"/><path class="cls-50" d="M570.12,364.89h0a22.44,22.44,0,0,0,12.26,3c0-.34,0-.66,0-1a22.49,22.49,0,0,1-10.63-2.09h0a20.22,20.22,0,0,1-9.67-10.59l-.54.27A21.17,21.17,0,0,0,570.12,364.89Z"/><path class="cls-50" d="M566.15,382.61a20.29,20.29,0,0,1-2.61-1.57h0a22,22,0,0,1-4.21-3.83c.31.8.65,1.57,1,2.29.55.54,1.11,1.05,1.69,1.53h0a24.67,24.67,0,0,0,2.47,1.76C565.05,382.74,565.6,382.69,566.15,382.61Z"/><path class="cls-50" d="M578.48,357.55a13.38,13.38,0,0,0-1.08-1.05l-.08-.07-.18-.15c.13.56.26,1.12.41,1.69Z"/><path class="cls-50" d="M557.14,366.7a21.62,21.62,0,0,0,7.82,9.54h0a21.24,21.24,0,0,0,10.24,3.32c.48-.28.94-.57,1.38-.88a21.64,21.64,0,0,1-10.09-2.49h0a20.92,20.92,0,0,1-9.33-10.89C557.14,365.77,557.13,366.24,557.14,366.7Z"/><path class="cls-50" d="M562.35,377.29c.11.74.24,1.5.37,2.26l.55-.11h0c.68-.15,1.38-.33,2.08-.53.18.82.38,1.65.59,2.51.81-.3,1.63-.62,2.46-1,.16.53.32,1.07.49,1.62a25.17,25.17,0,0,0,3.65-1.2l-.18-.48c-.86.47-1.71.92-2.55,1.33-.27-.83-.53-1.64-.77-2.44-.83.36-1.65.68-2.46,1-.21-.81-.4-1.62-.58-2.4l-1.12.3h0c-.52.13-1,.24-1.53.34-.13-.73-.25-1.46-.36-2.17-.65.08-1.28.14-1.91.18-.1-.86-.19-1.7-.27-2.53-.67,0-1.33-.07-2-.15-.05-1-.09-1.9-.11-2.82-.41-.1-.82-.22-1.22-.34l.18,1,.39.1c0,.61,0,1.22.07,1.84.1.38.21.76.32,1.13.57.06,1.14.11,1.72.12.07.86.17,1.74.27,2.64C561.08,377.44,561.71,377.37,562.35,377.29Z"/><path class="cls-50" d="M561,357.11c0,1-.07,2-.09,3a18.05,18.05,0,0,0,2,.47c0,1,.05,2,.11,3.05a20.62,20.62,0,0,0,2.09.05c.08.89.17,1.8.28,2.72.65-.07,1.32-.17,2-.29.11.77.24,1.55.37,2.34l.59-.15v0c.72-.2,1.46-.41,2.2-.66.18.84.39,1.7.6,2.57.86-.34,1.73-.71,2.6-1.12.25.85.52,1.72.81,2.6.89-.46,1.78-1,2.68-1.5q.43,1.14.9,2.31c.83-.53,1.66-1.09,2.5-1.68q.43,1,.9,2a14.3,14.3,0,0,0,.51-1.86l-.74-1.55c-.84.59-1.68,1.15-2.51,1.69-.31-.75-.6-1.49-.88-2.22-.91.54-1.8,1-2.69,1.52-.28-.85-.55-1.69-.8-2.5-.87.41-1.74.78-2.6,1.13-.22-.84-.41-1.67-.6-2.47l-1.18.37v0c-.54.16-1.08.31-1.61.44-.13-.76-.26-1.51-.37-2.25-.68.12-1.35.22-2,.29-.11-.89-.2-1.76-.28-2.61-.71,0-1.4,0-2.09-.06,0-1-.09-2-.11-2.93a17.88,17.88,0,0,1-2-.47c0-1,0-2,.08-2.89-.52-.23-1-.48-1.54-.76-.17.27-.34.54-.5.81C560.11,356.69,560.56,356.91,561,357.11Z"/><path class="cls-50" d="M573.16,358h0a22.69,22.69,0,0,0,8,3.53c-.21-.46-.45-.91-.71-1.36a22.14,22.14,0,0,1-5.58-2.32h0a21.59,21.59,0,0,1-5.67-4.83q-.59,0-1.17-.06A23.12,23.12,0,0,0,573.16,358Z"/><path class="cls-50" d="M567,370h0a24.06,24.06,0,0,0,13.54,4.76,11.31,11.31,0,0,0,.65-1.1A24.19,24.19,0,0,1,568.6,370h0a25,25,0,0,1-9.55-12.35c-.14.28-.26.56-.38.84A26.2,26.2,0,0,0,567,370Z"/></g><path class="cls-46" d="M624,378.05c-19.79,0-59.48-12.14-68.58-46,0,0,0-.06,0-.09v0a41.44,41.44,0,0,1,33-34.63l.3-.06a41.2,41.2,0,0,1,18.7.76c6.84,1.88,18.09,8.23,24.85,19.18C639.57,330.62,638.33,355.34,624,378.05Z"/><g class="cls-49"><path class="cls-50" d="M576.19,301.19a41.82,41.82,0,0,0-4.62,3l2.27,1.35C574.66,304.16,575.44,302.69,576.19,301.19Z"/><path class="cls-50" d="M583.27,301.85l0,0c.54-1.43,1.06-2.89,1.55-4.37-1.07.32-2.12.68-3.15,1.07-.18.45-.35.91-.53,1.35L580,299.3c-.94.42-1.86.86-2.76,1.34q2.65,1.42,5.43,2.85C582.84,303,583.06,302.4,583.27,301.85Z"/><path class="cls-50" d="M595.36,326.48h0c10.51-4.35,19.28-11.93,26.08-22-.72-.54-1.44-1.06-2.16-1.55a59.06,59.06,0,0,1-21.51,19.64v0c-11.58,6-25.58,7.76-41.24,4q-.22.87-.42,1.74C570.8,332.09,584.08,331.15,595.36,326.48Z"/><path class="cls-50" d="M629.77,367a58.54,58.54,0,0,1-7.93,3.83h0a62.62,62.62,0,0,1-16.26,3.94c2.47.64,4.89,1.16,7.21,1.56a62.51,62.51,0,0,0,6.51-1.61v0a60.62,60.62,0,0,0,8.24-3.2Q628.74,369.25,629.77,367Z"/><path class="cls-50" d="M592.93,296c-1.37.13-2.72.31-4,.56-.1,0-.2,0-.3.06l-.63.13c1.44.64,2.89,1.27,4.38,1.9C592.54,297.76,592.73,296.87,592.93,296Z"/><path class="cls-50" d="M576.54,361.16c13.52,2.89,25.8,1.78,36.32-2.58v0a57.74,57.74,0,0,0,23.85-18.85c.09-1.59.11-3.15.07-4.67a58.9,58.9,0,0,1-21.51,19.64h0c-11.77,6.11-26,7.81-42,3.83C574.32,359.45,575.42,360.32,576.54,361.16Z"/><path class="cls-50" d="M611,367.06q2.92,1.59,6,3.16c.22-.54.43-1.09.64-1.64l0,0q1.17-3,2.18-6.25,3.33,1.51,6.85,3c.61-2.55,1.16-5.17,1.65-7.84q2.23.83,4.55,1.64a77.77,77.77,0,0,0,2.84-10.94l-1.38-.38q-.33,4.31-.83,8.46c-2.36-.79-4.65-1.6-6.87-2.41q-.74,4-1.67,7.8c-2.25-.93-4.44-1.88-6.57-2.83-.36,1.13-.74,2.24-1.13,3.34l0,0c-.54,1.52-1.11,3-1.71,4.48q-2.94-1.49-5.75-3-1.34,2.68-2.8,5.21-3.35-2-6.49-3.91c-1.22,1.7-2.51,3.32-3.85,4.87q-3.6-2.44-7-4.88c-1,.88-2,1.72-3,2.53.9.47,1.81.92,2.72,1.36l.95-.83c1.46,1.07,3,2.14,4.51,3.21,1.1.44,2.2.85,3.29,1.24,1.14-1.37,2.25-2.78,3.3-4.25q3.29,2.06,6.76,4.1Q609.64,369.76,611,367.06Z"/><path class="cls-50" d="M561.32,334.26q3.28,2.76,6.8,5.53c1.62-1.21,3.18-2.51,4.68-3.88q3.51,2.55,7.27,5.11,2-2.36,3.84-4.92c2.19,1.38,4.44,2.74,6.76,4.1q1.47-2.54,2.79-5.24c1.95,1.05,3.95,2.11,6,3.15.22-.54.43-1.08.64-1.63l0,0c.78-2,1.5-4.11,2.18-6.24q3.33,1.51,6.84,3c.62-2.56,1.17-5.17,1.66-7.85,2.32.87,4.7,1.73,7.15,2.56.33-2.78.61-5.61.82-8.5,2.12.63,4.29,1.25,6.52,1.84.06-2.69.09-5.43.06-8.2q2.77.64,5.64,1.24a40.8,40.8,0,0,0-3.32-4.11c-1.53-.31-3-.63-4.51-.95q0,4.14-.09,8.17c-2.13-.57-4.22-1.14-6.26-1.73q-.33,4.32-.84,8.47c-2.35-.79-4.64-1.6-6.86-2.41-.5,2.66-1,5.26-1.67,7.8-2.25-.94-4.45-1.88-6.57-2.83-.36,1.12-.74,2.23-1.13,3.33l0,0c-.54,1.53-1.11,3-1.71,4.49-2-1-3.88-2-5.75-3-.89,1.79-1.83,3.52-2.81,5.21-2.22-1.3-4.38-2.61-6.48-3.91-1.23,1.69-2.51,3.32-3.85,4.87q-3.6-2.44-7-4.89-2.26,2-4.69,3.83c-2.25-1.76-4.42-3.53-6.51-5.29q-2.28,1.26-4.69,2.32c.29.9.6,1.79.93,2.66Q559.32,335.39,561.32,334.26Z"/><path class="cls-50" d="M585,308v0a61.24,61.24,0,0,0,20.79-11.13,39.53,39.53,0,0,0-4.08-.72,59.63,59.63,0,0,1-14.18,7.95h0a63.53,63.53,0,0,1-20.56,4.25c-.78.8-1.53,1.63-2.24,2.49A66.84,66.84,0,0,0,585,308Z"/><path class="cls-50" d="M601.79,342.59v0c13-4,23.77-11.94,32.13-22.89a28.72,28.72,0,0,0-1.49-3.21,63.73,63.73,0,0,1-28.1,22.2v0c-13,5.13-28.48,5.92-45.62,1.21.39.83.8,1.64,1.23,2.44C575.42,346.53,589.56,346.34,601.79,342.59Z"/></g><g class="cls-51"><path class="cls-52" d="M634.94,323.91c3.07,14,0,33.55-11.53,51.85-19.39,0-57.85-11.66-68-44a.43.43,0,0,0,0,.11v0s0,.06,0,.09c9.1,33.88,48.79,46,68.58,46C636.19,358.73,638.9,338,634.94,323.91Z"/></g><path class="cls-41" d="M456.37,332.34h0s0-.07,0-.1A.66.66,0,0,1,456.37,332.34Z"/><ellipse class="cls-53" cx="620.28" cy="377.39" rx="10.69" ry="9.34" transform="translate(-95.04 252.97) rotate(-21.45)"/><ellipse class="cls-50" cx="619.19" cy="376.88" rx="8.78" ry="7.67" transform="translate(-94.93 252.54) rotate(-21.45)"/><path class="cls-14" d="M582,596.18c59,0,135.23-31.62,125.54-57.24,0-14.63-30.36-24.28-49.29-34l-1.35-.68L572,520.42"/><ellipse class="cls-50" cx="368.91" cy="473.51" rx="49.49" ry="26.26" transform="translate(-107.16 107.92) rotate(-14.56)"/><path class="cls-54" d="M416.81,461.07a14.46,14.46,0,0,0-1.6-3.8c.14.4.27.8.38,1.21,3.64,14-14.85,31-41.31,37.86-23.92,6.21-46.16,2.05-52.9-9.18,4.71,13.15,28.45,18.43,54.13,11.76C402,492.05,420.46,475.11,416.81,461.07Z"/><path class="cls-55" d="M331,490.75A8.73,8.73,0,1,0,315,486s0,.09,0,.13a10.61,10.61,0,0,0-4.24,6.72,12.13,12.13,0,0,0-5.88,10.39v.08a12.11,12.11,0,0,0-1.35,15.28,10.13,10.13,0,0,0,1.51,4.12,8.54,8.54,0,0,0,17.07,0,10.28,10.28,0,0,0,1.51-4.12,12.08,12.08,0,0,0,2.09-6.81v-.08a12.1,12.1,0,0,0,3.45-8.47,13.34,13.34,0,0,0-.09-1.41,10.56,10.56,0,0,0,2-11.09Z"/><path class="cls-54" d="M331,490.75a8.73,8.73,0,0,0-7.32-13.47c-.34,0-.66,0-1,.06a8.73,8.73,0,0,1,6.34,13.41,10.78,10.78,0,0,1,.78,4,10.55,10.55,0,0,1-2.75,7.1,13.34,13.34,0,0,1,.09,1.41,12.1,12.1,0,0,1-3.45,8.47v.08a12,12,0,0,1-2.1,6.81,10,10,0,0,1-1.51,4.12,8.52,8.52,0,0,1-7.55,8.18,7.93,7.93,0,0,0,1,.07,8.55,8.55,0,0,0,8.54-8.25,10.28,10.28,0,0,0,1.51-4.12,12.08,12.08,0,0,0,2.09-6.81v-.08a12.1,12.1,0,0,0,3.45-8.47,13.34,13.34,0,0,0-.09-1.41,10.56,10.56,0,0,0,2-11.09Z"/><path class="cls-54" d="M303.24,518.2a12.11,12.11,0,0,1,2.38-13.44v-.07a12.12,12.12,0,0,1,5.88-10.39,10.62,10.62,0,0,1,4.23-6.73s0-.08,0-.12a8.72,8.72,0,0,1,16-4.79A8.72,8.72,0,0,0,315,486s0,.09,0,.13a10.61,10.61,0,0,0-4.24,6.72,12.13,12.13,0,0,0-5.88,10.39v.08a12.09,12.09,0,0,0-1.61,14.87Z"/><path class="cls-54" d="M305.77,524.16a10.09,10.09,0,0,1-1.51-4.11,13.64,13.64,0,0,1-.72-1.23,10,10,0,0,0,1.47,3.91,8.43,8.43,0,0,0,1.42,4.42A8.75,8.75,0,0,1,305.77,524.16Z"/><circle class="cls-50" cx="411.91" cy="454.56" r="15.84"/><path class="cls-56" d="M426.24,447.85a15.83,15.83,0,0,1-29.06,12.52,15.83,15.83,0,1,0,29.06-12.52Z"/><path class="cls-54" d="M411.91,438.72l-.4,0a15.82,15.82,0,0,1,0,31.64l.4,0a15.84,15.84,0,0,0,0-31.68Z"/><path class="cls-50" d="M411.15,442.19a15.77,15.77,0,0,1-3.35-9.74c0-.53,0-1.06.08-1.57A15.8,15.8,0,0,0,400.29,449,15.79,15.79,0,0,1,411.15,442.19Z"/><path class="cls-54" d="M407.88,430.88a25.68,25.68,0,0,1,3.27,11.31A16.08,16.08,0,0,1,407.88,430.88Z"/><path class="cls-50" d="M417,443a15.8,15.8,0,0,1-2.21-10.05c.06-.53.15-1.05.26-1.56a15.85,15.85,0,0,0-9.62,17.13A15.86,15.86,0,0,1,417,443Z"/><path class="cls-54" d="M415.05,431.37A25.56,25.56,0,0,1,417,443,16.07,16.07,0,0,1,415.05,431.37Z"/><ellipse class="cls-57" cx="420.36" cy="451.08" rx="1.38" ry="2.58"/><path class="cls-50" d="M379.06,507.13l-8.7,1.29a.85.85,0,0,1-.92-1.12c6.05-17-6.9-22.58-6.9-22.58s-13.63-2.8-13.23,8.61l2,14.22a9.55,9.55,0,0,0,3.42,6.08c.77.63,1.68,1.27,2.44,1.78a5.62,5.62,0,0,0,3.52,1l24-1.66a1.5,1.5,0,0,0,1.37-1.61A6.5,6.5,0,0,0,379.06,507.13Z"/><path class="cls-5" d="M379.06,507.13l-.14,0a6.52,6.52,0,0,1,5.78,5.94,1.51,1.51,0,0,1-1.38,1.61l-23.67,1.63a5.55,5.55,0,0,0,1,0l24-1.66a1.5,1.5,0,0,0,1.37-1.61A6.5,6.5,0,0,0,379.06,507.13Z"/><path class="cls-5" d="M361.17,484.72s13,5.54,6.91,22.58a.85.85,0,0,0,.91,1.12l.81-.12a.85.85,0,0,1-.36-1c6.05-17-6.9-22.58-6.9-22.58a19.65,19.65,0,0,0-4.12-.29A18.94,18.94,0,0,1,361.17,484.72Z"/><path class="cls-5" d="M404.79,476.81s-1.09,11.07-6.88,16.45c.42,1.73.83,3.46,1.1,4.66a1.39,1.39,0,0,0,1.78,1,2.1,2.1,0,0,1,.24-.06,1.34,1.34,0,0,1-.81-.93c-.27-1.2-.68-2.93-1.1-4.66,4-3.74,5.78-10.22,6.47-13.83A2.94,2.94,0,0,0,403.5,476,37.42,37.42,0,0,0,393,474.5,43.5,43.5,0,0,1,404.79,476.81Z"/><path class="cls-5" d="M408.39,501a5.17,5.17,0,0,0-5.07-2.28,4.86,4.86,0,0,1,3.86,2.28,1.41,1.41,0,0,1-.52,1.91l-6.7,4a5.25,5.25,0,0,1-2,.67,5.2,5.2,0,0,0,3.22-.67l6.7-4A1.41,1.41,0,0,0,408.39,501Z"/><path class="cls-50" d="M407.32,501.09c-1.23-2.12-4-2.74-6.38-2a1.39,1.39,0,0,1-1.78-1c-.28-1.2-.69-2.93-1.11-4.66,5.79-5.37,7.12-17,7.12-17s-24.71-8.26-22.41,8.58c.45,2.31.95,7.34,3.46,10l3.58,8.73a5.15,5.15,0,0,0,3.38,3l2.92.8a5.19,5.19,0,0,0,4-.53l6.71-4A1.4,1.4,0,0,0,407.32,501.09Z"/><path class="cls-15" d="M710.81,555.93c-.11-3.46-.26-6.84-.42-10.12a236.27,236.27,0,0,0-2.67-27.3c-1.47-9.5-7.12-18.37-11.62-24.15-2.14-2.74-9.5-11.76-14.51-12.59a8.44,8.44,0,0,0-1.5-.13c-4.64,0-6.56,15-8.49,18.58-2.41,4.51-11.28,13.87-43.89,21.45q-4.34,1-9.24,2c-9.86,1.92-21.52,3.67-35.3,5.13-2.2.19-4.46.28-6.71.28a92.13,92.13,0,0,1-38.83-8.84l-.61-.32-.67-.17a51.41,51.41,0,0,0-12-1.44c-9.74,0-17.49,3-22.4,8.8-5.36,6.27-7.14,15.36-5.29,27l0,.21,0,.2c1.46,6.29,2.86,12,4.1,17.06.65,2.64,1.26,5.14,1.83,7.53,1,4.1,1.86,7.88,2.59,11.45,3,14.45,3.62,25.67.21,42.15-4.88,23.66-7.89,30-8.41,30.93-1.12,1.42-3.87,5.46-3.11,10a9.85,9.85,0,0,0,5,6.9c5.33,3.08,53.06,29.77,107.39,30.47.74,0,1.46,0,2.2,0h0q3.75,0,7.43-.16c34.8-1.59,64.31-14.43,87.82-38.22l.13-.12.11-.14c4.26-4.87,5.41-14,5.6-15.76v-.18l0-.17C709.77,653.25,712.23,598.75,710.81,555.93Zm-89.25-2.77a75.58,75.58,0,0,0,6-25.51c64.22-15.09,50.74-40.39,53.09-40,2.76.46,18.91,16.61,21.22,31.83,1.41,8,2.3,19.09,2.81,31.5a182.31,182.31,0,0,1-90.76,41.21C615.47,575.5,618,561.41,621.56,553.16ZM501.9,675.42c-4.79-2.78,0-8.31,0-8.31s3.4-4.15,9.4-33.22c3.34-16.18,3-27.63.46-41.14,35,11.4,65.79,13.84,92.15,11.22-2.43,33.86-1.51,75.34,1.6,101.1C552.08,704.09,504.9,677.15,501.9,675.42Zm102.91-82.07c-27.16,2.83-59,.3-95.46-11.93-1.87-8-4.22-17.09-6.81-28.26-6-37.83,32.29-27.68,32.29-27.68a97,97,0,0,0,48.9,9.23c13.27-1.4,24.72-3.13,34.61-5.08a76.19,76.19,0,0,1-6,26.22C608.85,563.85,606.39,577.33,604.81,593.35ZM703.68,656s-.92,8.76-4.15,12.45C674.12,694.21,644,703.75,615.07,705c-3.32-25.13-4.41-67.39-2-102.13a182.23,182.23,0,0,0,92-41.63C706.08,603.92,703.68,656,703.68,656Z"/></g></g></g></svg>