<svg xmlns="http://www.w3.org/2000/svg" width="359.999" height="122.962" viewBox="0 0 359.999 122.962"><defs><style>.a,.b,.d{fill:#fff;}.b{font-size:18px;}.b,.d{font-family:Roboto-Regular, Roboto;}.c{letter-spacing:0.01em;}.d{font-size:8px;}</style></defs><g transform="translate(-0.018 0)"><g transform="translate(0.018 0)"><path class="a" d="M257.032,92.132a15.5,15.5,0,0,1-4.258-.57,6.461,6.461,0,0,1-2.68-1.453,5.375,5.375,0,0,1-1.406-2.422,12.5,12.5,0,0,1-.4-3.3V55.733l5.75-.953V83.249a8,8,0,0,0,.164,1.758,2.758,2.758,0,0,0,.594,1.211,2.586,2.586,0,0,0,1.164.781,8.7,8.7,0,0,0,1.875.406Z" transform="translate(-54.324 -11.982)"/><path class="a" d="M276.393,69.379a14.063,14.063,0,0,1,4.8.711,7.625,7.625,0,0,1,3.125,2,7.344,7.344,0,0,1,1.664,3.125,15.116,15.116,0,0,1,.5,4.016V94.3c-.883.188-2.227.414-4.016.688a41.5,41.5,0,0,1-6.055.4,18.516,18.516,0,0,1-4.094-.422,8.7,8.7,0,0,1-3.125-1.383,6.462,6.462,0,0,1-2.047-2.469,8.594,8.594,0,0,1-.734-3.758,7.25,7.25,0,0,1,.836-3.609,6.891,6.891,0,0,1,2.25-2.4,9.749,9.749,0,0,1,3.3-1.328,18.344,18.344,0,0,1,3.906-.406,18.11,18.11,0,0,1,2,.117,17.686,17.686,0,0,1,2.234.406v-.969a7.523,7.523,0,0,0-.242-1.9,3.781,3.781,0,0,0-2.4-2.664,6.876,6.876,0,0,0-2.445-.375,22.033,22.033,0,0,0-3.664.281,16.36,16.36,0,0,0-2.711.664l-.711-4.688a22.815,22.815,0,0,1,3.188-.781,24.547,24.547,0,0,1,4.438-.328Zm.469,21.43a21.75,21.75,0,0,0,4.047-.281V84.16a12.586,12.586,0,0,0-3.375-.43,13.448,13.448,0,0,0-1.93.141,6.329,6.329,0,0,0-1.758.523,3.172,3.172,0,0,0-1.258,1.094,2.969,2.969,0,0,0-.477,1.734,3.047,3.047,0,0,0,1.281,2.828A6.633,6.633,0,0,0,276.862,90.809Z" transform="translate(-58.287 -15.174)"/><path class="a" d="M323.375,79.257a15.57,15.57,0,0,1-.883,5.391,11.828,11.828,0,0,1-2.516,4.117,10.984,10.984,0,0,1-3.969,2.609,14.54,14.54,0,0,1-5.281.906,33.779,33.779,0,0,1-5.469-.43A34.248,34.248,0,0,1,301,90.89V55.733l5.75-.953V67.663a13.284,13.284,0,0,1,2.453-.953,11.11,11.11,0,0,1,3.2-.43,11.383,11.383,0,0,1,4.688.93,9.2,9.2,0,0,1,3.438,2.633,12.275,12.275,0,0,1,2.109,4.117,17.969,17.969,0,0,1,.734,5.3Zm-5.9-.086a10.219,10.219,0,0,0-1.445-5.8,5.124,5.124,0,0,0-4.586-2.141,8.18,8.18,0,0,0-2.688.43,8.468,8.468,0,0,0-2.023.945v14.3q.774.172,1.563.266a20.13,20.13,0,0,0,2.344.117,6.141,6.141,0,0,0,4.992-2.164A8.817,8.817,0,0,0,317.477,79.171Z" transform="translate(-65.854 -11.982)"/><path class="a" d="M335.57,82.45a15.258,15.258,0,0,1,.859-5.156,12.187,12.187,0,0,1,2.445-4.156,11.2,11.2,0,0,1,3.906-2.758,12.719,12.719,0,0,1,5.133-1,17.5,17.5,0,0,1,6.625,1.266L353.3,75.333a13.008,13.008,0,0,0-2.258-.719,12.258,12.258,0,0,0-2.68-.281,6.3,6.3,0,0,0-5.133,2.109,9.094,9.094,0,0,0-1.758,5.969,9.375,9.375,0,0,0,1.664,5.867q1.664,2.164,5.6,2.164a14.3,14.3,0,0,0,2.9-.289,13.094,13.094,0,0,0,2.477-.711l.781,4.758a12.048,12.048,0,0,1-2.875.852,20.656,20.656,0,0,1-3.969.383,14.4,14.4,0,0,1-5.531-.977,10.5,10.5,0,0,1-3.906-2.711,11.2,11.2,0,0,1-2.3-4.133A17.125,17.125,0,0,1,335.57,82.45Z" transform="translate(-73.415 -15.175)"/><path class="a" d="M373.108,59.93a3.281,3.281,0,0,1-1.047,2.563,3.547,3.547,0,0,1-2.469.953,3.6,3.6,0,0,1-2.516-.953A3.281,3.281,0,0,1,366,59.93a3.344,3.344,0,0,1,1.047-2.617,3.6,3.6,0,0,1,2.516-.953,3.547,3.547,0,0,1,2.469.953,3.344,3.344,0,0,1,1.078,2.617Zm-.617,32.126H366.78V67.2h5.75Z" transform="translate(-80.071 -12.328)"/><path class="a" d="M382.33,61.573l5.75-.953v7.508h8.836v4.8H388.08V83.089a7.374,7.374,0,0,0,.953,4.281,3.753,3.753,0,0,0,3.234,1.281,10.351,10.351,0,0,0,2.781-.336,17.186,17.186,0,0,0,1.922-.617l.953,4.563a21.882,21.882,0,0,1-2.617.883,14.391,14.391,0,0,1-3.8.453,11.961,11.961,0,0,1-4.438-.719,6.523,6.523,0,0,1-2.828-2.063,8.211,8.211,0,0,1-1.477-3.281,20.614,20.614,0,0,1-.43-4.4Z" transform="translate(-83.644 -13.26)"/><text class="b" transform="translate(276.217 99.228)"><tspan x="0" y="0">se</tspan><tspan class="c" y="0">r</tspan><tspan y="0">vices</tspan></text><text class="d" transform="translate(347.999 91.517)"><tspan x="0" y="0">SM</tspan></text><path class="a" d="M134.608,36.93a1.945,1.945,0,0,1-.875-1.367A29.961,29.961,0,0,0,97.428,9.938,1.828,1.828,0,0,1,95.67,9.4a30.221,30.221,0,0,0-2.633-2.477A29.563,29.563,0,0,0,73.9,0,29.946,29.946,0,0,0,51.63,9.945a1.859,1.859,0,0,1-1.781.578A29.969,29.969,0,0,0,14.161,34.5c-.3,1.773.055,1.961-.641,2.406a29.688,29.688,0,0,0-3.656,46.97A29.727,29.727,0,0,0,15.77,77.5l.2-.3a1.867,1.867,0,0,1,3.313.43A81.462,81.462,0,0,0,35.692,105.76h0l1.031,1.109a2,2,0,0,1,.156.2,49.22,49.22,0,0,0,32.243,15.875h.414a5.648,5.648,0,0,0,2.672-.734V111.275l-.289-.078a21.493,21.493,0,0,1-12.5-9.524l3.18-1.922a17.8,17.8,0,0,0,10.039,7.813c.469.141.938.273,1.414.367a17.75,17.75,0,0,0,11.453-8.172l3.188,1.922a21.485,21.485,0,0,1-12.774,9.6v10.938a5.625,5.625,0,0,0,3.055.734l.563-.055a49.157,49.157,0,0,0,31.672-15.821,1.335,1.335,0,0,1,.164-.2l.977-1.07a81.892,81.892,0,0,0,12.922-19.485,83.24,83.24,0,0,0,3.5-8.641,1.852,1.852,0,0,1,1.516-1.242,1.875,1.875,0,0,1,1.8.781,29.986,29.986,0,0,0,6.156,6.719A29.688,29.688,0,0,0,134.6,36.946ZM59.669,70.314a17.774,17.774,0,0,0-27.688.109l-2.906-2.344a21.5,21.5,0,0,1,33.485-.133Zm56.462,0a17.782,17.782,0,0,0-27.6,0L85.638,67.97a21.508,21.508,0,0,1,33.383,0Z" transform="translate(-0.018 0)"/></g></g></svg>