<svg xmlns="http://www.w3.org/2000/svg" width="160" height="59.705" viewBox="0 0 160 59.705"><defs><style>.a{fill:#8bddeb;}.b{fill:#fff;}</style></defs><g transform="translate(-0.016 0.009)"><g transform="translate(0.016 -0.009)"><path class="a" d="M249.2,69.729a8.025,8.025,0,0,1-2.2-.3,3.384,3.384,0,0,1-1.4-.768,2.744,2.744,0,0,1-.724-1.252,6.5,6.5,0,0,1-.208-1.7V50.932l2.972-.492v14.7a4.176,4.176,0,0,0,.084.908,1.432,1.432,0,0,0,.316.616,1.368,1.368,0,0,0,.6.4,4.484,4.484,0,0,0,.968.208Z" transform="translate(-146.804 -30.26)"/><path class="a" d="M268.075,65.157a7.3,7.3,0,0,1,2.476.368,3.952,3.952,0,0,1,1.6,1.032,3.852,3.852,0,0,1,.86,1.6,7.84,7.84,0,0,1,.256,2.072v7.788q-.684.144-2.072.356a21.6,21.6,0,0,1-3.128.208,9.569,9.569,0,0,1-2.112-.22,4.436,4.436,0,0,1-1.632-.712,3.4,3.4,0,0,1-1.056-1.276,4.46,4.46,0,0,1-.38-1.94,3.724,3.724,0,0,1,.444-1.864,3.492,3.492,0,0,1,1.164-1.24,5.069,5.069,0,0,1,1.7-.688,9.813,9.813,0,0,1,2.024-.208,8.5,8.5,0,0,1,1.032.064,9.042,9.042,0,0,1,1.152.208v-.492a3.891,3.891,0,0,0-.12-.98,2.064,2.064,0,0,0-.432-.824,2,2,0,0,0-.8-.552,3.48,3.48,0,0,0-1.264-.2,10.993,10.993,0,0,0-1.888.148,7.936,7.936,0,0,0-1.4.344l-.368-2.4a12.282,12.282,0,0,1,1.644-.4A13.165,13.165,0,0,1,268.075,65.157Zm.244,11.068a10.844,10.844,0,0,0,2.084-.148V72.789a6.574,6.574,0,0,0-.712-.148,6.72,6.72,0,0,0-1.028-.072,7.037,7.037,0,0,0-1,.072,3.168,3.168,0,0,0-.908.272,1.676,1.676,0,0,0-.628.552,1.536,1.536,0,0,0-.248.9,1.576,1.576,0,0,0,.648,1.46,3.448,3.448,0,0,0,1.788.4Z" transform="translate(-157.733 -39.088)"/><path class="a" d="M309.408,63.064a8.136,8.136,0,0,1-.452,2.8,6.036,6.036,0,0,1-1.3,2.12,5.6,5.6,0,0,1-2.052,1.352,7.537,7.537,0,0,1-2.724.464,17.149,17.149,0,0,1-2.8-.22,17.621,17.621,0,0,1-2.22-.492V50.932l2.968-.492v6.648a7.088,7.088,0,0,1,1.264-.488,6.284,6.284,0,0,1,4.072.256,4.7,4.7,0,0,1,1.78,1.364,6.221,6.221,0,0,1,1.092,2.12,9.232,9.232,0,0,1,.372,2.724Zm-3.04-.048a5.28,5.28,0,0,0-.748-2.992,2.66,2.66,0,0,0-2.372-1.1,4.252,4.252,0,0,0-1.384.22,4.4,4.4,0,0,0-1.044.488v7.4a8.185,8.185,0,0,0,.824.136,10.4,10.4,0,0,0,1.2.06,3.172,3.172,0,0,0,2.576-1.116,4.61,4.61,0,0,0,.948-3.08Z" transform="translate(-178.718 -30.26)"/><path class="a" d="M332.719,71.889a7.816,7.816,0,0,1,.444-2.66,6.256,6.256,0,0,1,1.268-2.14,5.788,5.788,0,0,1,2-1.424,6.528,6.528,0,0,1,2.648-.516,8.94,8.94,0,0,1,3.436.664l-.64,2.428a6.761,6.761,0,0,0-1.164-.368,6.4,6.4,0,0,0-1.388-.148,3.244,3.244,0,0,0-2.648,1.092,4.688,4.688,0,0,0-.908,3.08,4.86,4.86,0,0,0,.86,3.032,3.429,3.429,0,0,0,2.9,1.116,7.5,7.5,0,0,0,1.5-.148,6.873,6.873,0,0,0,1.276-.368l.4,2.456a6.209,6.209,0,0,1-1.484.44,10.488,10.488,0,0,1-2.048.2,7.429,7.429,0,0,1-2.86-.5,5.409,5.409,0,0,1-2-1.4,5.84,5.84,0,0,1-1.2-2.136A8.892,8.892,0,0,1,332.719,71.889Z" transform="translate(-199.632 -39.084)"/><path class="a" d="M367.1,53.9a1.7,1.7,0,0,1-.54,1.348,1.944,1.944,0,0,1-2.576,0,1.7,1.7,0,0,1-.54-1.328,1.732,1.732,0,0,1,.54-1.348,1.932,1.932,0,0,1,2.576,0A1.732,1.732,0,0,1,367.1,53.9Zm-.32,16.589h-2.968V57.648h2.968Z" transform="translate(-218.067 -31.244)"/><path class="a" d="M379.879,56.822l2.968-.492V60.2h4.564v2.48h-4.564V67.91a3.782,3.782,0,0,0,.492,2.208,1.938,1.938,0,0,0,1.668.664,5.373,5.373,0,0,0,1.436-.172,8.633,8.633,0,0,0,.992-.32l.492,2.356a11.068,11.068,0,0,1-1.348.456,7.328,7.328,0,0,1-1.964.232,6.26,6.26,0,0,1-2.3-.368,3.368,3.368,0,0,1-1.46-1.068,4.212,4.212,0,0,1-.76-1.692,10.5,10.5,0,0,1-.22-2.272Z" transform="translate(-227.927 -33.793)"/><path class="b" d="M65.368,17.927a.956.956,0,0,1-.424-.664,14.517,14.517,0,0,0-14.425-12.8,14.357,14.357,0,0,0-3.2.356.916.916,0,0,1-.856-.264,14.525,14.525,0,0,0-21.385.264.9.9,0,0,1-.86.284A14.545,14.545,0,0,0,6.89,16.743c-.148.86.024.952-.312,1.168A14.4,14.4,0,0,0,4.8,40.712a14.353,14.353,0,0,0,2.864-3.1c.036-.044.072-.1.1-.144a.9.9,0,0,1,1.6.212,39.7,39.7,0,0,0,7.976,13.657h0l.472.52.08.1a23.837,23.837,0,0,0,15.653,7.708h.188a2.7,2.7,0,0,0,1.3-.356V54.033l-.14-.04a10.46,10.46,0,0,1-6.064-4.624l1.58-.936a8.628,8.628,0,0,0,4.872,3.792c.228.068.456.132.688.18a8.636,8.636,0,0,0,5.56-3.972l1.548.936a10.456,10.456,0,0,1-6.2,4.664v5.3a2.7,2.7,0,0,0,1.484.356l.276-.024A23.857,23.857,0,0,0,54.012,52l.08-.1.472-.52h0a39.713,39.713,0,0,0,6.276-9.46,40.358,40.358,0,0,0,1.7-4.2.9.9,0,0,1,1.6-.212,14.525,14.525,0,0,0,2.992,3.264,14.4,14.4,0,0,0-1.768-22.8Zm-36.4,16.189a8.636,8.636,0,0,0-13.449.056L14.11,33.04a10.44,10.44,0,0,1,16.257-.064Zm27.417,0a8.64,8.64,0,0,0-13.4,0l-1.368-1.14a10.444,10.444,0,0,1,16.209,0Z" transform="translate(-0.016 0.009)"/></g></g></svg>