<svg xmlns="http://www.w3.org/2000/svg" width="536" height="360" viewBox="0 0 536 360"><defs><style>.a{fill:#43c8df;opacity:0.6;}.b{fill:#fff;}</style></defs><g transform="translate(-692 -1448)"><rect class="a" width="536" height="360" transform="translate(692 1448)"/><path class="b" d="M21.675,167.9H63.951V125.631H21.675Zm5.867-36.4H58.083V162.02H27.542ZM167.74,3.877H17.424A15,15,0,0,0,2.437,18.864V169.18a15,15,0,0,0,14.987,14.987H167.74a15,15,0,0,0,14.987-14.987V18.864A15,15,0,0,0,167.74,3.877Zm9.11,165.3a9.126,9.126,0,0,1-9.11,9.119H17.424A9.134,9.134,0,0,1,8.3,169.18V18.864a9.126,9.126,0,0,1,9.119-9.11H167.74a9.117,9.117,0,0,1,9.11,9.11ZM121.213,167.9h42.266V39.9H121.213Zm5.867-122.116h30.532V162.02H127.081ZM71.444,167.9H113.71V83.355H71.444Zm5.867-78.675h30.532v72.8H77.311Z" transform="translate(867.563 1494.833)"/></g></svg>