<svg xmlns="http://www.w3.org/2000/svg" width="536" height="360" viewBox="0 0 536 360"><defs><style>.a{fill:#43c8df;opacity:0.6;}.b{fill:#fff;}</style></defs><g transform="translate(-140 -1067)"><g transform="translate(0 -54)"><g transform="translate(140 1121)"><rect class="a" width="536" height="360"/></g><path class="b" d="M13.8,163.613H55.922V121.5H13.8Zm5.844-36.273H50.078v30.429H19.649Zm105.659,6.868a2.956,2.956,0,0,0,4.146,0,2.918,2.918,0,0,0-.01-4.137l-11.4-11.4,12.1-12.1a2.925,2.925,0,0,0-4.137-4.137l-14.166,14.166a2.921,2.921,0,0,0,0,4.137Zm51.932-15.532-11.4,11.4a2.925,2.925,0,0,0,4.137,4.137l13.463-13.463a2.927,2.927,0,0,0,0-4.137l-14.166-14.166a2.925,2.925,0,1,0-4.137,4.137ZM137.912,142.14a2.886,2.886,0,0,0,2.644-1.688L160.02,98.667a2.922,2.922,0,1,0-5.3-2.468l-19.454,41.776a2.918,2.918,0,0,0,2.644,4.166ZM224.38,4.306H15.62A15.643,15.643,0,0,0,0,19.935V159.886A15.633,15.633,0,0,0,15.62,175.5H117.073v8.263H101.024a2.927,2.927,0,0,0,0,5.854h37.951a2.927,2.927,0,0,0,0-5.854H122.927V175.5H224.38A15.633,15.633,0,0,0,240,159.886V19.935A15.643,15.643,0,0,0,224.38,4.306Zm9.766,48.166H69.376v5.844H234.146V159.886a9.774,9.774,0,0,1-9.766,9.756H15.62a9.774,9.774,0,0,1-9.766-9.756V19.935A9.778,9.778,0,0,1,15.62,10.16H224.38a9.778,9.778,0,0,1,9.766,9.776ZM117.834,24.179a8.863,8.863,0,1,0,8.868,8.859A8.864,8.864,0,0,0,117.834,24.179Zm0,11.873a3.015,3.015,0,1,1,3.015-3.015A3.017,3.017,0,0,1,117.834,36.052Zm29.8-11.922a8.863,8.863,0,1,0,8.868,8.859A8.864,8.864,0,0,0,147.639,24.13Zm0,11.873a3.015,3.015,0,1,1,3.024-3.015A3.017,3.017,0,0,1,147.639,36ZM87.288,24.13a8.863,8.863,0,1,0,8.868,8.859A8.873,8.873,0,0,0,87.288,24.13Zm0,11.873A3.015,3.015,0,1,1,90.3,32.989,3.01,3.01,0,0,1,87.288,36ZM34.859,16.189A21.063,21.063,0,1,0,55.922,37.252,21.079,21.079,0,0,0,34.859,16.189Zm0,36.283a15.215,15.215,0,1,1,15.22-15.22A15.237,15.237,0,0,1,34.859,52.472ZM13.8,110.969H55.922V68.843H13.8Zm5.844-36.283H50.078v30.429H19.649Z" transform="translate(278 1167.694)"/></g></g></svg>