<svg xmlns="http://www.w3.org/2000/svg" viewBox="0 0 800 298.5"><defs><style>.cls-1{fill:#8bddeb;}.cls-2{fill:#fff;}</style></defs><g id="Capa_2" data-name="Capa 2"><g id="Capa_1-2" data-name="Capa 1"><path class="cls-1" d="M512,197.31a40.16,40.16,0,0,1-11-1.47,16.93,16.93,0,0,1-6.93-3.86,13.63,13.63,0,0,1-3.62-6.26,31.63,31.63,0,0,1-1-8.53V103.33l14.84-2.45v73.49a20.15,20.15,0,0,0,.43,4.54,7.35,7.35,0,0,0,1.53,3.13,6.9,6.9,0,0,0,3,2,23.14,23.14,0,0,0,4.85,1Z"/><path class="cls-1" d="M551.71,130.33a36.21,36.21,0,0,1,12.39,1.84,19.71,19.71,0,0,1,8,5.15,19.28,19.28,0,0,1,4.29,8,39.32,39.32,0,0,1,1.29,10.37v38.89q-3.44.75-10.37,1.78a105.09,105.09,0,0,1-15.64,1.05,46.73,46.73,0,0,1-10.55-1.11,22,22,0,0,1-8.16-3.56,16.64,16.64,0,0,1-5.27-6.38,22,22,0,0,1-1.91-9.69,18.7,18.7,0,0,1,2.15-9.32,17.58,17.58,0,0,1,5.83-6.2,25.13,25.13,0,0,1,8.53-3.43,47.64,47.64,0,0,1,10.12-1.05,46.84,46.84,0,0,1,5.15.31,49.53,49.53,0,0,1,5.77,1V155.6a19.2,19.2,0,0,0-.62-4.91,9.78,9.78,0,0,0-6.19-6.87,17.66,17.66,0,0,0-6.32-1,57.22,57.22,0,0,0-9.45.73,42.91,42.91,0,0,0-7,1.72l-1.84-12a57,57,0,0,1,8.22-2A63.92,63.92,0,0,1,551.71,130.33Zm1.23,55.33a55.32,55.32,0,0,0,10.43-.74V168.48a29.4,29.4,0,0,0-3.56-.73,32.54,32.54,0,0,0-5.15-.37,33.55,33.55,0,0,0-5,.37,15.14,15.14,0,0,0-4.54,1.35,8.1,8.1,0,0,0-3.25,2.76,7.68,7.68,0,0,0-1.23,4.47c0,3.52,1.1,6,3.31,7.3S549.18,185.66,552.94,185.66Z"/><path class="cls-1" d="M653.47,164.06A40.34,40.34,0,0,1,651.2,178a30,30,0,0,1-6.51,10.61,27.83,27.83,0,0,1-10.24,6.75,37.55,37.55,0,0,1-13.62,2.33,91,91,0,0,1-25.15-3.56V103.33l14.84-2.45v33.25a35.68,35.68,0,0,1,6.32-2.46A31.75,31.75,0,0,1,637.21,133a23.72,23.72,0,0,1,8.89,6.81,31.25,31.25,0,0,1,5.46,10.61A46.49,46.49,0,0,1,653.47,164.06Zm-15.22-.24q0-9.45-3.74-15t-11.84-5.52a22.91,22.91,0,0,0-12.15,3.56v36.93c1.07.24,2.44.47,4.11.67a50,50,0,0,0,6.08.31q8.22,0,12.88-5.58T638.25,163.82Z"/><path class="cls-1" d="M665.45,164.06a39.42,39.42,0,0,1,2.2-13.31A31.65,31.65,0,0,1,674,140a29,29,0,0,1,10-7.12,32.7,32.7,0,0,1,13.25-2.57,44.92,44.92,0,0,1,17.18,3.31l-3.19,12.14a35.11,35.11,0,0,0-5.83-1.84,31.41,31.41,0,0,0-6.93-.73q-8.72,0-13.25,5.46t-4.54,15.39q0,9.58,4.29,15.16t14.48,5.58a37.45,37.45,0,0,0,7.49-.74,35.14,35.14,0,0,0,6.38-1.84l2.08,12.27A30.66,30.66,0,0,1,708,196.7a53.1,53.1,0,0,1-10.25,1,37.32,37.32,0,0,1-14.29-2.51,27.12,27.12,0,0,1-10.06-7,28.92,28.92,0,0,1-6-10.67A44.24,44.24,0,0,1,665.45,164.06Z"/><path class="cls-1" d="M745.17,113.27a8.49,8.49,0,0,1-2.7,6.62,9.15,9.15,0,0,1-6.38,2.46,9.32,9.32,0,0,1-6.5-2.46,8.49,8.49,0,0,1-2.7-6.62,8.67,8.67,0,0,1,2.7-6.75,9.36,9.36,0,0,1,6.5-2.45,9.18,9.18,0,0,1,6.38,2.45A8.67,8.67,0,0,1,745.17,113.27Zm-1.59,82.94H728.73V132h14.85Z"/><path class="cls-1" d="M759.76,115.11l14.84-2.45V132h22.82v12.39H774.6v26.14q0,7.73,2.46,11c1.63,2.21,4.42,3.31,8.34,3.31a27.33,27.33,0,0,0,7.18-.86,49,49,0,0,0,5-1.59L800,194.25a57.58,57.58,0,0,1-6.75,2.27,37,37,0,0,1-9.81,1.16A31,31,0,0,1,772,195.84a16.88,16.88,0,0,1-7.3-5.34,21.19,21.19,0,0,1-3.81-8.46,53,53,0,0,1-1.1-11.35Z"/><path class="cls-2" d="M326.78,89.66a4.77,4.77,0,0,1-2.12-3.32,72.72,72.72,0,0,0-88.14-62.21,4.47,4.47,0,0,1-4.27-1.31,75.17,75.17,0,0,0-6.38-6A71.83,71.83,0,0,0,179.4,0a72.77,72.77,0,0,0-54.07,24.14A4.51,4.51,0,0,1,121,25.55,72.73,72.73,0,0,0,34.37,83.77c-.73,4.3.13,4.75-1.55,5.84a72,72,0,0,0-8.88,114,71.7,71.7,0,0,0,14.33-15.48c.17-.24.34-.48.5-.73a4.52,4.52,0,0,1,8,1.06,197.89,197.89,0,0,0,39.87,68.28.31.31,0,0,1,.07.09l2.37,2.59a4.5,4.5,0,0,1,.39.5,119.3,119.3,0,0,0,78.27,38.54,7.37,7.37,0,0,0,.94,0,13.58,13.58,0,0,0,6.48-1.77V270.17l-.7-.19a52.23,52.23,0,0,1-30.32-23.12l7.73-4.68a43.2,43.2,0,0,0,24.38,19c1.13.34,2.27.64,3.43.89a43.2,43.2,0,0,0,27.81-19.86l7.73,4.68a52.25,52.25,0,0,1-31,23.31v26.52a13.64,13.64,0,0,0,7.42,1.79l1.38-.12a119.4,119.4,0,0,0,76.89-38.42,3.56,3.56,0,0,1,.39-.5l2.36-2.59a.73.73,0,0,1,.08-.09,197.92,197.92,0,0,0,31.38-47.31,201.57,201.57,0,0,0,8.49-21,4.52,4.52,0,0,1,8-1.06,72.15,72.15,0,0,0,15,16.32,72,72,0,0,0-8.85-114.08Zm-181.92,81a43.17,43.17,0,0,0-67.23.27l-7.06-5.65a52.19,52.19,0,0,1,81.29-.32Zm137.07,0a43.18,43.18,0,0,0-67,0l-7-5.7a52.19,52.19,0,0,1,81,0Z"/></g></g></svg>