<svg xmlns="http://www.w3.org/2000/svg" viewBox="0 0 400 156.36"><defs><style>.cls-1{fill:#9ce2ed;}.cls-2{fill:#00adcc;}</style></defs><g id="Capa_2" data-name="Capa 2"><g id="Capa_1-2" data-name="Capa 1"><path class="cls-1" d="M257.61,101.9a20.06,20.06,0,0,1-5.43-.72,8.38,8.38,0,0,1-3.43-1.91A6.83,6.83,0,0,1,247,96.18a15.82,15.82,0,0,1-.51-4.21V55.51l7.34-1.21V90.58a10.14,10.14,0,0,0,.21,2.24,3.49,3.49,0,0,0,.76,1.54,3.33,3.33,0,0,0,1.48,1,11.13,11.13,0,0,0,2.4.52Z"/><path class="cls-1" d="M277.26,68.84a18.09,18.09,0,0,1,6.12.9,9.85,9.85,0,0,1,4,2.55,9.48,9.48,0,0,1,2.12,4,19.66,19.66,0,0,1,.64,5.12v19.2c-1.14.24-2.84.54-5.13.88a52.82,52.82,0,0,1-7.73.51,23.51,23.51,0,0,1-5.22-.54,10.83,10.83,0,0,1-4-1.76,8.23,8.23,0,0,1-2.61-3.15,10.83,10.83,0,0,1-.94-4.78,9.18,9.18,0,0,1,1.06-4.6,8.79,8.79,0,0,1,2.88-3.06,12.63,12.63,0,0,1,4.22-1.7,24,24,0,0,1,5-.51,22.87,22.87,0,0,1,2.55.15,23.94,23.94,0,0,1,2.85.51V81.31a9.55,9.55,0,0,0-.3-2.42,5.2,5.2,0,0,0-1.06-2,5,5,0,0,0-2-1.36,8.73,8.73,0,0,0-3.12-.49,27,27,0,0,0-4.67.37,19.61,19.61,0,0,0-3.46.85l-.91-5.94a29,29,0,0,1,4.07-1A32.21,32.21,0,0,1,277.26,68.84Zm.6,27.31a27.59,27.59,0,0,0,5.16-.36V87.67a14.19,14.19,0,0,0-1.76-.36,16.62,16.62,0,0,0-2.55-.18,17,17,0,0,0-2.45.18A7.77,7.77,0,0,0,274,88a4.1,4.1,0,0,0-1.6,1.37,3.74,3.74,0,0,0-.61,2.21,3.87,3.87,0,0,0,1.64,3.6A8.39,8.39,0,0,0,277.86,96.15Z"/><path class="cls-1" d="M327.56,85.49a19.82,19.82,0,0,1-1.12,6.88,14.82,14.82,0,0,1-3.22,5.23,13.77,13.77,0,0,1-5.06,3.34,18.69,18.69,0,0,1-6.73,1.15,43.12,43.12,0,0,1-6.95-.55,44,44,0,0,1-5.49-1.21V55.51l7.34-1.21V70.71a18.16,18.16,0,0,1,3.13-1.21,15.72,15.72,0,0,1,10.06.64,11.64,11.64,0,0,1,4.4,3.36,15.56,15.56,0,0,1,2.7,5.24A22.8,22.8,0,0,1,327.56,85.49ZM320,85.37A13,13,0,0,0,318.19,78c-1.23-1.82-3.18-2.72-5.85-2.72a11.23,11.23,0,0,0-6,1.75V95.24a20.16,20.16,0,0,0,2,.34,25.64,25.64,0,0,0,3,.15A7.83,7.83,0,0,0,317.73,93Q320,90.21,320,85.37Z"/><path class="cls-1" d="M333.48,85.49a19.6,19.6,0,0,1,1.09-6.57,15.51,15.51,0,0,1,3.13-5.3,14.34,14.34,0,0,1,4.94-3.51,16.18,16.18,0,0,1,6.55-1.27,22.24,22.24,0,0,1,8.49,1.63l-1.57,6a15.85,15.85,0,0,0-2.89-.91,15.59,15.59,0,0,0-3.42-.37,8,8,0,0,0-6.55,2.7q-2.25,2.7-2.25,7.6A11.94,11.94,0,0,0,343.13,93c1.41,1.84,3.8,2.76,7.15,2.76a18.21,18.21,0,0,0,3.7-.37,16.64,16.64,0,0,0,3.16-.91l1,6.06a15.31,15.31,0,0,1-3.67,1.09,26.41,26.41,0,0,1-5.07.49,18.36,18.36,0,0,1-7.06-1.25,13.33,13.33,0,0,1-5-3.45,14.37,14.37,0,0,1-2.94-5.27A22,22,0,0,1,333.48,85.49Z"/><path class="cls-1" d="M372.9,60.42a4.21,4.21,0,0,1-1.34,3.27,4.52,4.52,0,0,1-3.15,1.21,4.61,4.61,0,0,1-3.22-1.21,4.2,4.2,0,0,1-1.33-3.27,4.25,4.25,0,0,1,1.33-3.33,4.61,4.61,0,0,1,3.22-1.22,4.53,4.53,0,0,1,3.15,1.22A4.25,4.25,0,0,1,372.9,60.42Zm-.79,40.94h-7.34V69.68h7.34Z"/><path class="cls-1" d="M380.11,61.33l7.34-1.22v9.57h11.28V75.8H387.45V88.7q0,3.81,1.21,5.45c.81,1.09,2.18,1.64,4.12,1.64a13.13,13.13,0,0,0,3.55-.43,22,22,0,0,0,2.46-.79l1.21,5.82a27.37,27.37,0,0,1-3.34,1.12,18.26,18.26,0,0,1-4.85.58,15.52,15.52,0,0,1-5.67-.91,8.4,8.4,0,0,1-3.61-2.64,10.48,10.48,0,0,1-1.88-4.18,26.14,26.14,0,0,1-.54-5.6Z"/><path class="cls-2" d="M59.55,76.38a25.7,25.7,0,0,0-20.17,9.69l3.49,2.79a21.37,21.37,0,0,1,33.25-.13l3.47-2.82A25.77,25.77,0,0,0,59.55,76.38Z"/><path class="cls-2" d="M127.35,76.38a25.75,25.75,0,0,0-20,9.53l3.46,2.82a21.37,21.37,0,0,1,33.15,0l3.47-2.82A25.77,25.77,0,0,0,127.35,76.38Z"/><path class="cls-2" d="M169.36,45.55a40.43,40.43,0,0,0-47.64-33.78A40,40,0,0,0,93.2,0,40.49,40.49,0,0,0,64,12.47,40.47,40.47,0,0,0,16.93,45.88a40,40,0,0,0-2.79,63.19,2.24,2.24,0,0,0,3.27.74,40.08,40.08,0,0,0,7.41-6.89,102.22,102.22,0,0,0,19.27,31.42,63.56,63.56,0,0,0,42.65,22l.17,0H87l.27,0a2.25,2.25,0,0,0,.26,0,11.14,11.14,0,0,0,5.81-1.48A11.39,11.39,0,0,0,99,156.35c.11,0,.22,0,.33,0h.16l.27,0h.1l.18,0a63.54,63.54,0,0,0,42.65-22,102.22,102.22,0,0,0,19.27-31.42,40.08,40.08,0,0,0,7.41,6.89,2.29,2.29,0,0,0,1.91.27,2.24,2.24,0,0,0,1.05-.65,40,40,0,0,0-2.92-63.88Zm1.12,59.54a35.48,35.48,0,0,1-7.4-8.06,2.24,2.24,0,0,0-4,.52,97.68,97.68,0,0,1-19.72,33.73s0,0,0,0l-1.16,1.28a2.19,2.19,0,0,0-.2.25,59,59,0,0,1-38.71,19A6.73,6.73,0,0,1,95.6,151V137.9a25.83,25.83,0,0,0,15.34-11.51l-3.82-2.31a21.43,21.43,0,0,1-13.76,9.81,21.41,21.41,0,0,1-13.75-9.81l-3.82,2.31A25.83,25.83,0,0,0,91.13,137.9V151a6.92,6.92,0,0,1-3.67.87,59,59,0,0,1-38.71-19l-.2-.25-1.17-1.28,0,0A98,98,0,0,1,27.62,97.55a2.23,2.23,0,0,0-1.82-1.49,2.26,2.26,0,0,0-2.15,1,35.63,35.63,0,0,1-7.34,8A35.54,35.54,0,0,1,20.7,48.72a2.23,2.23,0,0,0,.93-2.5,1.68,1.68,0,0,0-.16-.39A36,36,0,0,1,64.33,17.08a2.23,2.23,0,0,0,2.13-.69,36,36,0,0,1,52.89-.66,2.23,2.23,0,0,0,2.11.65,36.3,36.3,0,0,1,7.93-.88,35.88,35.88,0,0,1,35.66,31.6,2.37,2.37,0,0,0,1,1.64,35.53,35.53,0,0,1,4.38,56.35Z"/></g></g></svg>